<?xml version="1.0" encoding="UTF-8"?>
<svg version="1.1" xmlns="http://www.w3.org/2000/svg" width="477" height="523">
<path d="M0 0 C2.3125 1.0625 2.3125 1.0625 4 3 C4.16188436 5.00736607 4.32267159 7.01485935 4.46875 9.0234375 C5.32050889 12.19248161 7.54583287 13.04154855 10.24609375 14.65625 C12.34402528 16.26357394 12.89933981 17.56765647 13.875 20 C16.06119701 25.10757532 20.1073115 26.82547178 25 29 C24.47731534 31.76276177 23.89130413 34.3260876 23 37 C23.49033822 39.0550085 23.49033822 39.0550085 24.375 41.125 C24.65085937 41.82882813 24.92671875 42.53265625 25.2109375 43.2578125 C25.87184818 44.98931128 25.87184818 44.98931128 27 46 C27.5625 49.25 27.5625 49.25 27 53 C24.22329443 55.54900306 20.86538875 58 17 58 C16.79503906 58.91523438 16.59007812 59.83046875 16.37890625 60.7734375 C16.10949219 61.96195313 15.84007812 63.15046875 15.5625 64.375 C15.29566406 65.55835938 15.02882813 66.74171875 14.75390625 67.9609375 C14 71 14 71 13 73 C13.57878906 73.2165625 14.15757812 73.433125 14.75390625 73.65625 C21.53054752 77.7104493 25.48030232 87.59568932 28.77734375 94.55859375 C30.10410249 97.20787238 31.61580903 99.67658165 33.1875 102.1875 C35.59030554 106.09746378 37.02722982 109.52525717 38 114 C43.24590899 109.71762532 47.64398039 105.17277329 52 100 C52.515625 99.41089844 53.03125 98.82179688 53.5625 98.21484375 C56.81614635 94.49518035 59.76877344 90.6495189 62.60546875 86.6015625 C64 85 64 85 67 84 C67.40388766 82.11519094 67.80670874 80.2301446 68.203125 78.34375 C69.70062076 73.93935071 72.76590429 70.29511638 76 67 C76.66 67 77.32 67 78 67 C78 66.34 78 65.68 78 65 C78.99 64.34 79.98 63.68 81 63 C80.38722388 60.03824877 79.74627478 58.61941217 78 56 C78.375 52.3125 78.375 52.3125 79 49 C79.99 48.67 80.98 48.34 82 48 C83.20882096 45.99983534 83.20882096 45.99983534 84 44 C85.65 44 87.3 44 89 44 C89 48.95 89 53.9 89 59 C90.65 58.34 92.3 57.68 94 57 C93.67 56.01 93.34 55.02 93 54 C97.75 52.875 97.75 52.875 100 54 C100 55.32 100 56.64 100 58 C101.65 58.33 103.3 58.66 105 59 C105 59.99 105 60.98 105 62 C106.32 62.33 107.64 62.66 109 63 C108.54961229 67.84166786 107.40027839 70.49668287 104 74 C103.34 74 102.68 74 102 74 C102 74.66 102 75.32 102 76 C95.34103154 82.86652073 87.58621713 87.93284452 79 92 C79.350625 92.7425 79.70125 93.485 80.0625 94.25 C81.12578368 97.36896546 81.1051815 97.98443334 80 101 C78.64804899 103.23427694 77.26727707 105.39788137 75.8125 107.5625 C72.4192069 112.71724328 69.31659493 117.93034571 66.41015625 123.37890625 C64.90412786 126.17820001 63.34902712 128.94025581 61.75 131.6875 C61.27046875 132.51636719 60.7909375 133.34523438 60.296875 134.19921875 C59.86890625 134.79347656 59.4409375 135.38773438 59 136 C58.34 136 57.68 136 57 136 C56.6596875 137.0828125 56.6596875 137.0828125 56.3125 138.1875 C54.71598057 141.60861306 52.78966959 143.46393673 50 146 C49.53335938 146.47050781 49.06671875 146.94101562 48.5859375 147.42578125 C45.87875783 149.9954304 44.22897885 150.97137764 40.5 151.4375 C37 151 37 151 31 149 C30.67 156.59 30.34 164.18 30 172 C33.774375 171.979375 37.54875 171.95875 41.4375 171.9375 C70.83133412 171.89348293 70.83133412 171.89348293 81 175 C81.70511719 175.19335938 82.41023437 175.38671875 83.13671875 175.5859375 C88.41505643 177.24456487 90.94499255 179.37120084 94 184 C97.21021515 192.88982658 94.9388314 205.03310607 91.609375 213.5625 C89.50681177 219.0200535 88.33006798 224.67698014 87.0625 230.375 C86.80235107 231.52677734 86.54220215 232.67855469 86.27416992 233.86523438 C85.75267885 236.1775274 85.23350776 238.49034503 84.71679688 240.80371094 C84.09823347 243.56196436 83.4674305 246.31681249 82.828125 249.0703125 C80.9368277 257.27919711 79.31890646 265.48652785 78.03833008 273.81445312 C77.2873627 278.63050045 76.23972186 283.28481857 75 288 C75.99 288.680625 75.99 288.680625 77 289.375 C77.66 289.91125 78.32 290.4475 79 291 C79 291.66 79 292.32 79 293 C80.0209375 292.938125 80.0209375 292.938125 81.0625 292.875 C83.85522986 292.99383957 86.16100213 293.53403733 88.8203125 294.35546875 C93.49980046 295.73918831 98.26260969 296.8331551 103 298 C104.125 304.75 104.125 304.75 103 307 C91.23813942 312.63758145 73.99954798 310.50676257 61.328125 309.21484375 C55.99665229 308.87067591 50.66007347 308.99435062 45.32080078 309.125 C43.21368297 309.1559807 41.10559757 309.08581461 39 309 C37 307 37 307 36.734375 304.171875 C36.73953125 303.04265625 36.7446875 301.9134375 36.75 300.75 C36.74226563 299.07164062 36.74226563 299.07164062 36.734375 297.359375 C37.00679567 293.91405479 37.8276006 291.23617363 39 288 C39.50959424 285.62566834 39.92702706 283.24820238 40.33984375 280.85546875 C40.89999522 278.43256503 41.59045459 276.20763728 42.40234375 273.86328125 C44.17525093 268.65034047 45.44639589 263.37514216 46.625 258 C46.84663818 256.99541748 47.06827637 255.99083496 47.29663086 254.95581055 C48.71987603 248.18124976 49.4373543 241.66550011 49.61547852 234.75805664 C49.84693636 228.38002011 51.5728764 222.85896348 54 217 C52.77023438 217.3609375 51.54046875 217.721875 50.2734375 218.09375 C48.64074413 218.56291476 47.0079249 219.0316417 45.375 219.5 C44.56675781 219.73847656 43.75851563 219.97695313 42.92578125 220.22265625 C42.13300781 220.44824219 41.34023437 220.67382812 40.5234375 220.90625 C39.80075684 221.11572266 39.07807617 221.32519531 38.33349609 221.54101562 C35.5226294 222.09389587 32.8588066 222.02873326 30 222 C30.1053582 223.18169769 30.1053582 223.18169769 30.21284485 224.38726807 C30.87328114 232.2679184 31.16002609 240.07808621 31.16796875 247.984375 C31.17296135 249.75593964 31.17296135 249.75593964 31.17805481 251.56329346 C31.18307681 254.03714615 31.18546461 256.5110055 31.18530273 258.98486328 C31.18750254 262.75434445 31.20574508 266.52353863 31.22460938 270.29296875 C31.22754171 272.71093651 31.22952758 275.12890564 31.23046875 277.546875 C31.23765427 278.66269958 31.24483978 279.77852417 31.25224304 280.92816162 C31.22776761 289.34883312 30.71513141 297.75890534 26 305 C21.44936676 308.71396973 17.80570918 309.67570386 12.0625 309.5625 C10.86802246 309.55041504 10.86802246 309.55041504 9.64941406 309.53808594 C1.43744043 309.2849876 -6.65021746 308.048403 -14.75 306.75 C-16.66607056 306.44364624 -16.66607056 306.44364624 -18.62084961 306.13110352 C-26.43513529 304.80153561 -34.00188773 303.04206673 -41.62011719 300.88818359 C-45.84641255 299.77757521 -50.08584885 299.09608023 -54.3984375 298.421875 C-57.79127257 297.87168553 -60.79227779 297.25519565 -64 296 C-65.4375 293.875 -65.4375 293.875 -66 292 C-66.99 293.98 -66.99 293.98 -68 296 C-67.195625 296.391875 -66.39125 296.78375 -65.5625 297.1875 C-63 299 -63 299 -62.125 301.5 C-62 304 -62 304 -63 307 C-71.70614252 310.44618141 -79.45582212 309.39343235 -88 306 C-88 305.34 -88 304.68 -88 304 C-88.66 304 -89.32 304 -90 304 C-92.80460853 299.12290966 -92.70954634 294.49216154 -92 289 C-90.82218976 285.57400468 -89.44914994 282.27756284 -88.0390625 278.94140625 C-86.73819484 275.25887486 -87.18577312 272.77505188 -88 269 C-87.30659449 263.67677927 -85.22009339 258.84384011 -83 254 C-76.20327692 254.25843054 -70.81192496 255.28561388 -64.59765625 258.0234375 C-60.88802958 259.41803399 -57.16869463 259.91475309 -53.25 260.41015625 C-50.47190623 260.91435356 -48.00721412 261.60283321 -45.328125 262.4609375 C-39.85611719 264.15223879 -34.42631056 264.90364252 -28.75 265.5625 C-22.89560819 266.25474227 -17.58269413 267.0291398 -12 269 C-10.68 269 -9.36 269 -8 269 C-8.25394531 268.12859375 -8.50789063 267.2571875 -8.76953125 266.359375 C-9.11371094 265.16828125 -9.45789063 263.9771875 -9.8125 262.75 C-9.99554688 262.11682861 -10.17859375 261.48365723 -10.3671875 260.83129883 C-11.5193493 256.80427176 -12.54715844 252.76734645 -13.5 248.6875 C-15.84934285 239.2776321 -19.35252619 233.0332647 -26 226 C-31 220.475 -31 220.475 -31 217 C-31.66 217 -32.32 217 -33 217 C-37.68434699 210.62928809 -37.19274973 203.32208295 -37.1875 195.75 C-37.18814453 194.77200439 -37.18878906 193.79400879 -37.18945312 192.78637695 C-37.14693342 186.84666374 -36.78574708 181.07175155 -36 175.1875 C-34.16099246 161.21168017 -34.49924156 146.91462563 -35.5 132.875 C-37.18199164 108.48612116 -36.40292093 89.47554598 -22.19458008 68.85107422 C-21.62634521 68.01463379 -21.05811035 67.17819336 -20.47265625 66.31640625 C-19.94937744 65.57849854 -19.42609863 64.84059082 -18.88696289 64.08032227 C-17.73651639 62.01187464 -17.73651639 62.01187464 -18.69384766 59.84643555 C-20.50341012 57.28835688 -22.69833264 55.96212044 -25.3125 54.25 C-32.05736882 49.48268434 -36.11273332 44.31496159 -37.78125 36.1328125 C-38.5262383 28.8691766 -37.31923797 21.96998122 -33 16 C-28.63791954 11.36291881 -23.7279441 7.75381928 -18 5 C-16.68 5 -15.36 5 -14 5 C-14 4.34 -14 3.68 -14 3 C-5.66266551 -1.93045415 -5.66266551 -1.93045415 0 0 Z M87 67 C85.68 68.65 84.36 70.3 83 72 C88.58500567 71.80101292 88.58500567 71.80101292 93 69 C91.02 68.34 89.04 67.68 87 67 Z " fill="#060606" transform="translate(157,174)"/>
<path d="M0 0 C10.28612001 7.04396586 14.78668311 19.58961188 18.34375 31.12890625 C19.22316014 33.63627208 20.57848853 35.76619626 22 38 C22 38.66 22 39.32 22 40 C22.66 40 23.32 40 24 40 C24.98414433 41.91411557 25.96213349 43.8313967 26.9375 45.75 C27.48277344 46.81734375 28.02804687 47.8846875 28.58984375 48.984375 C30.46581333 52.99614375 31.11866367 56.35879032 31.31640625 60.765625 C31.35830078 61.65507812 31.40019531 62.54453125 31.44335938 63.4609375 C31.48267578 64.38132812 31.52199219 65.30171875 31.5625 66.25 C31.62727539 67.65378906 31.62727539 67.65378906 31.69335938 69.0859375 C31.7991805 71.39048641 31.90126557 73.69513839 32 76 C33.485 76.495 33.485 76.495 35 77 C35 77.66 35 78.32 35 79 C33.68 79 32.36 79 31 79 C33.03802135 83.06024321 33.03802135 83.06024321 37 85 C36.505 86.485 36.505 86.485 36 88 C34.35 88 32.7 88 31 88 C31.99 91.96 32.98 95.92 34 100 C32.02 100 30.04 100 28 100 C28 99.34 28 98.68 28 98 C27.34 98 26.68 98 26 98 C17.9563621 123.44954286 12.7171043 146.32644935 24.66796875 171.515625 C27.56842729 179.10274822 27.35187088 189.11497866 25.19140625 196.921875 C22.97810543 201.24125792 19.85229812 204.10925076 16.3125 207.375 C11.21891565 212.29148953 10.55888034 216.11826444 10 223 C9.82082031 224.23878906 9.64164062 225.47757813 9.45703125 226.75390625 C6.7316719 245.86754911 5.29251064 267.57510638 12 286 C13.28725907 287.70250393 14.62131719 289.37064759 16 291 C17.14822178 293.17530089 18.23098701 295.38625934 19.25 297.625 C19.77078125 298.75164062 20.2915625 299.87828125 20.828125 301.0390625 C22 304 22 304 22 307 C22.66 307 23.32 307 24 307 C24.21914063 307.60585938 24.43828125 308.21171875 24.6640625 308.8359375 C27.12657695 315.34258136 30.17669409 321.18857502 34 327 C34.43441406 327.72574219 34.86882812 328.45148438 35.31640625 329.19921875 C37.62867215 331.67243123 39.5768261 331.84119674 42.875 332.4375 C48.02123643 333.60935384 50.87793146 334.51202647 54 339 C55.12898354 341.22912443 56.1380199 343.46925586 57.0859375 345.78125 C57.87979067 347.70820982 58.8044896 349.58024743 59.75 351.4375 C61 354 61 354 61 356 C61.66 356 62.32 356 63 356 C67.06153846 362.4 67.06153846 362.4 66.75 365.4375 C66.37875 366.2109375 66.37875 366.2109375 66 367 C65.01 367 64.02 367 63 367 C61.39453125 365.1015625 61.39453125 365.1015625 59.8125 362.625 C59.28269531 361.81289063 58.75289063 361.00078125 58.20703125 360.1640625 C57 358 57 358 57 356 C56.34 356 55.68 356 55 356 C54.01 354.515 54.01 354.515 53 353 C50.54589642 356.68115537 50.76712157 358.65293598 51 363 C51.495 364.485 51.495 364.485 52 366 C53.41291085 375.96320643 53.41291085 375.96320643 50.49609375 380.16796875 C48.42706678 382.00215509 46.32939163 383.51222076 44 385 C42.99453125 385.70576172 42.99453125 385.70576172 41.96875 386.42578125 C36.90678256 389.83055697 31.21484501 393 25 393 C24.19032562 390.08517222 23.78154007 388.53886783 24.9375 385.6875 C25.288125 385.130625 25.63875 384.57375 26 384 C26.66 384 27.32 384 28 384 C28.66 382.35 29.32 380.7 30 379 C30.66 379 31.32 379 32 379 C32.64174782 371.53968162 30.44748534 366.10142388 27.5 359.3125 C27.05092285 358.25482422 26.6018457 357.19714844 26.13916016 356.10742188 C22.73376732 348.26382353 18.90149181 341.00995477 14 334 C13.57175326 341.910669 13.33582707 347.44100681 18 354 C18 354.66 18 355.32 18 356 C18.66 356 19.32 356 20 356 C25.0202087 366.68005788 19.78473731 382.74156277 18 394 C16.0625 394.5625 16.0625 394.5625 14 395 C13.67 394.67 13.34 394.34 13 394 C13.06482148 391.91392691 13.20244935 389.82993487 13.375 387.75 C13.46523438 386.61046875 13.55546875 385.4709375 13.6484375 384.296875 C13.94961307 381.47251739 14.38555321 378.77021771 15 376 C13.68 376 12.36 376 11 376 C11 376.66 11 377.32 11 378 C10.29875 378.66 9.5975 379.32 8.875 380 C5.58840292 383.10919553 3.60870993 386.86483912 1.4296875 390.79296875 C0 393 0 393 -3 395 C-5.14135742 395.25878906 -5.14135742 395.25878906 -7.60546875 395.265625 C-8.50716797 395.26820313 -9.40886719 395.27078125 -10.33789062 395.2734375 C-11.27826172 395.26570313 -12.21863281 395.25796875 -13.1875 395.25 C-14.10853516 395.25773437 -15.02957031 395.26546875 -15.97851562 395.2734375 C-21.65986565 395.25730876 -26.55075336 394.61364295 -32 393 C-32 391.35 -32 389.7 -32 388 C-26.44920563 385.07321751 -20.99932374 382.8331267 -15 381 C-15 380.34 -15 379.68 -15 379 C-14.34 379 -13.68 379 -13 379 C-12.814375 377.71029297 -12.814375 377.71029297 -12.625 376.39453125 C-12.00403323 373.02190548 -11.06129141 369.94550857 -10 366.6875 C-4.24361403 346.42417797 -5.81341219 316.27714375 -13.95703125 296.69921875 C-16.48366412 292.58279442 -20.4552975 289.58120721 -24.0625 286.4375 C-24.74957031 285.83550781 -25.43664062 285.23351562 -26.14453125 284.61328125 C-27.49968761 283.43500846 -28.87045435 282.27462138 -30.25 281.125 C-36.39289357 273.66577209 -36.71709585 265.32105829 -36.875 256 C-36.89091187 255.33536743 -36.90682373 254.67073486 -36.92321777 253.98596191 C-37.37211881 234.91162542 -36.99965601 215.19017847 -33.3125 196.4375 C-31.36805928 186.54501403 -32.06581676 176.56031576 -32.5793457 166.55249023 C-33.59536999 145.87032545 -33.59536999 145.87032545 -30 136 C-30.763125 135.938125 -31.52625 135.87625 -32.3125 135.8125 C-35 135 -35 135 -36.625 133 C-40.80333613 123.88363026 -41.78974868 115.14786273 -42.76611328 105.25830078 C-43.11273244 101.9115083 -43.54393925 98.58383945 -44 95.25 C-44.2165625 93.64898437 -44.2165625 93.64898437 -44.4375 92.015625 C-45.02228518 88.88052668 -45.92277834 85.99826696 -47 83 C-47.66 83 -48.32 83 -49 83 C-49.30292969 82.39671875 -49.60585938 81.7934375 -49.91796875 81.171875 C-52.41162968 76.41473723 -54.48106864 73.0919004 -59 70 C-60.8125 68.5 -60.8125 68.5 -62 67 C-62 65.68 -62 64.36 -62 63 C-58.04179141 63.56545837 -55.3340947 64.80902348 -52 67 C-50.79047519 61.72207354 -51.17732285 58.876004 -53.296875 53.93359375 C-54.27131293 51.25388944 -54.21126326 48.81684343 -54 46 C-53.01 46 -52.02 46 -51 46 C-51 46.66 -51 47.32 -51 48 C-50.01 48 -49.02 48 -48 48 C-48 47.34 -48 46.68 -48 46 C-47.01 46 -46.02 46 -45 46 C-45 46.66 -45 47.32 -45 48 C-44.34 48 -43.68 48 -43 48 C-42.16235732 49.95649397 -41.33000941 51.91525556 -40.5 53.875 C-40.0359375 54.96554688 -39.571875 56.05609375 -39.09375 57.1796875 C-38 60 -38 60 -38 62 C-36.515 62.495 -36.515 62.495 -35 63 C-33.68 61.02 -32.36 59.04 -31 57 C-29.35 57.33 -27.7 57.66 -26 58 C-26.309375 58.94875 -26.61875 59.8975 -26.9375 60.875 C-28.06960072 64.7779766 -28.3820606 68.61446627 -28.7109375 72.65234375 C-29 75 -29 75 -30.125 78.125 C-31.32949424 82.08262392 -30.69955038 84.94260778 -30 89 C-29.34 89 -28.68 89 -28 89 C-27.731875 88.278125 -27.46375 87.55625 -27.1875 86.8125 C-26 84 -26 84 -24.59375 81.75390625 C-22.79156742 78.63984076 -21.59543228 75.48488568 -20.3125 72.125 C-18.06657046 66.51017615 -15.50297946 62.85511089 -10.5390625 59.33203125 C-10.03117187 58.89246094 -9.52328125 58.45289063 -9 58 C-9 57.01 -9 56.02 -9 55 C-9.51949219 55.28875 -10.03898437 55.5775 -10.57421875 55.875 C-17.99381398 59.824803 -17.99381398 59.824803 -22 59 C-24 56 -24 56 -24 53 C-24.66 53 -25.32 53 -26 53 C-26 51.68 -26 50.36 -26 49 C-26.556875 48.87625 -27.11375 48.7525 -27.6875 48.625 C-30.2618003 47.92924316 -32.59880886 47.16814704 -35 46 C-35.98754277 43.0373717 -35.95819879 41.81141794 -35.6875 38.8125 C-35.59029935 33.81476679 -37.47665824 31.61903094 -40.58984375 27.90234375 C-42.75340035 24.98363997 -43 22.58269055 -43 19 C-42.50678077 16.55784655 -41.82034632 14.36452763 -41 12 C-40.34 12 -39.68 12 -39 12 C-38.773125 11.46375 -38.54625 10.9275 -38.3125 10.375 C-34.37963622 3.25838936 -28.79794528 -1.22809409 -20.98046875 -3.6171875 C-13.29420321 -5.10289563 -6.8594625 -3.68483523 0 0 Z " fill="#070707" transform="translate(325,88)"/>
<path d="M0 0 C0.99 0 1.98 0 3 0 C3 0.66 3 1.32 3 2 C3.99 2 4.98 2 6 2 C6 1.34 6 0.68 6 0 C6.99 0 7.98 0 9 0 C9 0.66 9 1.32 9 2 C9.66 2 10.32 2 11 2 C11 2.66 11 3.32 11 4 C9.68 3.67 8.36 3.34 7 3 C6.67 4.32 6.34 5.64 6 7 C5.01 7 4.02 7 3 7 C3 8.98 3 10.96 3 13 C2.67 13 2.34 13 2 13 C0.54815522 8.46298506 -0.23509196 4.81938524 0 0 Z " fill="#403E3E" transform="translate(271,134)"/>
<path d="M0 0 C0.33 0 0.66 0 1 0 C1.19412181 1.47831221 1.38012131 2.95769316 1.5625 4.4375 C1.66691406 5.26121094 1.77132813 6.08492188 1.87890625 6.93359375 C1.91886719 7.61550781 1.95882813 8.29742187 2 9 C1.67 9.33 1.34 9.66 1 10 C0.7714679 11.9230873 0.60481143 13.85360228 0.46484375 15.78515625 C0.37783203 16.95498047 0.29082031 18.12480469 0.20117188 19.33007812 C0.11416016 20.56177734 0.02714844 21.79347656 -0.0625 23.0625 C-0.15337891 24.29806641 -0.24425781 25.53363281 -0.33789062 26.80664062 C-0.56267598 29.87081994 -0.7831856 32.93524802 -1 36 C-1.33 36 -1.66 36 -2 36 C-2.33505359 23.88222833 -1.30816011 12.0395959 0 0 Z " fill="#868586" transform="translate(291,287)"/>
<path d="M0 0 C4.75 0.75 4.75 0.75 7 3 C6.01 3.33 5.02 3.66 4 4 C3.67 4.66 3.34 5.32 3 6 C2.34 6 1.68 6 1 6 C0.67 4.02 0.34 2.04 0 0 Z " fill="#5E5E5E" transform="translate(263,151)"/>
<path d="M0 0 C0.99 0 1.98 0 3 0 C3 0.66 3 1.32 3 2 C3.66 2 4.32 2 5 2 C5 2.66 5 3.32 5 4 C3.68 3.67 2.36 3.34 1 3 C0.67 4.32 0.34 5.64 0 7 C-0.66 5.35 -1.32 3.7 -2 2 C-1.34 2 -0.68 2 0 2 C0 1.34 0 0.68 0 0 Z " fill="#777374" transform="translate(277,134)"/>
<path d="M0 0 C0.33 0.66 0.66 1.32 1 2 C1.66 2.33 2.32 2.66 3 3 C0.66666667 5.33333333 -1.66666667 7.66666667 -4 10 C-3.52449439 8.51965236 -3.04448784 7.04074979 -2.5625 5.5625 C-2.29566406 4.73878906 -2.02882813 3.91507813 -1.75390625 3.06640625 C-1 1 -1 1 0 0 Z " fill="#4E4C4D" transform="translate(309,152)"/>
<path d="M0 0 C2.31 0 4.62 0 7 0 C7 0.66 7 1.32 7 2 C7.66 2 8.32 2 9 2 C9 3.65 9 5.3 9 7 C8.67 5.68 8.34 4.36 8 3 C7.4225 2.87625 6.845 2.7525 6.25 2.625 C3.97664233 1.99351176 2.0746471 1.11141809 0 0 Z " fill="#626262" transform="translate(291,134)"/>
</svg>
