<?xml version="1.0" encoding="UTF-8"?>
<svg version="1.1" xmlns="http://www.w3.org/2000/svg" width="776" height="641">
<path d="M0 0 C2.17926201 2.17926201 2.45384372 3.16877814 3.25 6.0625 C5.93447356 14.38303248 10.66296208 20.20493064 17.4609375 25.58984375 C17.96882813 26.05519531 18.47671875 26.52054688 19 27 C19 27.66 19 28.32 19 29 C19.79664063 29.13535156 20.59328125 29.27070313 21.4140625 29.41015625 C27.71252188 30.68977026 31.88059884 31.71446948 35.69921875 37.03125 C36.34310547 38.00578125 36.34310547 38.00578125 37 39 C38.0575335 40.39959989 39.12007353 41.79543044 40.1875 43.1875 C41.12631739 44.45736043 42.06383677 45.72818161 43 47 C43.52980469 47.60199219 44.05960937 48.20398438 44.60546875 48.82421875 C46.46005031 51.71778157 46.7034297 54.22944289 47.125 57.625 C47.57318292 61.96022495 47.57318292 61.96022495 49 66 C49.14050511 67.59552973 49.22570565 69.19613403 49.28125 70.796875 C49.31863281 71.7559375 49.35601562 72.715 49.39453125 73.703125 C49.42933594 74.70859375 49.46414063 75.7140625 49.5 76.75 C49.56940143 78.72408505 49.64222483 80.69805327 49.71875 82.671875 C49.74904297 83.5494043 49.77933594 84.42693359 49.81054688 85.33105469 C49.94289314 88.00204959 49.94289314 88.00204959 50.52294922 90.58935547 C51.23750507 95.69802755 51.02559614 100.74951285 50.9140625 105.8984375 C50.89282318 107.04736481 50.87158386 108.19629211 50.84970093 109.3800354 C50.80353219 111.80581848 50.75461189 114.23155054 50.703125 116.65722656 C50.62542628 120.35471463 50.55814779 124.05228595 50.4921875 127.75 C50.445936 130.11199146 50.39908086 132.47397119 50.3515625 134.8359375 C50.33171295 135.93513519 50.3118634 137.03433289 50.29141235 138.1668396 C50.12576443 145.60918993 49.7933806 152.67163656 47.6015625 159.8359375 C45.59413669 167.05745634 44.21872822 174.46653903 43.125 181.875 C42.22965547 186.92623536 40.47722226 191.16737104 37 195 C33.42234516 197.46590696 29.3355087 197.58281198 25.125 198 C20.18302404 198.49511448 15.68115004 199.2674989 11 201 C5.02548081 202.75721153 -0.98982781 204.36975438 -7 206 C-7.34899197 209.00105047 -7.34899197 209.00105047 -5.49609375 210.54296875 C-4.81675781 211.08566406 -4.13742187 211.62835938 -3.4375 212.1875 C0.18000244 215.2127001 3.22047303 218.41059479 6.2578125 222.0078125 C8.59593353 224.68144865 11.13480144 227.11640576 13.71484375 229.5546875 C15 231 15 231 15 233 C15.58265625 233.268125 16.1653125 233.53625 16.765625 233.8125 C19.02786601 235.01480991 20.80576318 236.33825913 22.75 238 C23.36359375 238.515625 23.9771875 239.03125 24.609375 239.5625 C26 241 26 241 26 243 C41.43170861 243.81355153 41.43170861 243.81355153 55 237.5 C58.07949471 234.93375441 59.52428462 234.44798879 63.3125 233.5625 C72.69873751 231.26977532 79.13643566 225.11755993 86.421875 219.04296875 C89.48394859 216.61650741 92.56920278 214.8526305 96 213 C97.66806866 211.66842105 99.3344946 210.33478362 101 209 C103.2770875 207.3868344 105.55788605 205.80304009 107.875 204.25 C108.52412354 203.81461914 109.17324707 203.37923828 109.84204102 202.93066406 C115.01783658 199.52040579 120.35985657 196.59411339 125.86474609 193.7565918 C129.83557191 191.68838785 133.29315125 189.427979 136.77734375 186.640625 C139.91611999 184.32377786 143.22249559 182.32453619 146.5625 180.3125 C147.18833984 179.9316626 147.81417969 179.5508252 148.45898438 179.15844727 C159.38559737 172.64240584 169.65744136 170.40519184 182.38671875 172.578125 C192.292103 175.15704161 199.62544982 180.51439561 204.875 189.375 C207.36136825 194.40902022 209.27326118 199.66342531 211 205 C211.36967896 206.0362854 211.36967896 206.0362854 211.74682617 207.09350586 C214.14394121 214.24554207 214.67077674 221.18703046 215.0625 228.6875 C215.61600166 238.99286137 215.61600166 238.99286137 218 249 C218.56259247 251.64606888 219.08584248 254.27679267 219.5625 256.9375 C219.68818359 257.58267578 219.81386719 258.22785156 219.94335938 258.89257812 C222.24846086 271.69735653 222.15063117 284.94641689 222.26036072 297.92120171 C222.28182889 300.43898609 222.30878886 302.95666352 222.33703613 305.47438049 C222.40596664 311.70608956 222.46661734 317.93787179 222.52606201 324.16967773 C222.57691664 329.4832159 222.63160053 334.79668465 222.69187927 340.11012459 C222.71844373 342.59247425 222.73923667 345.07483086 222.7598877 347.55723572 C222.77647291 349.06216766 222.79334314 350.56709649 222.81054688 352.07202148 C222.82933899 354.04814674 222.82933899 354.04814674 222.84851074 356.06419373 C222.66569781 358.88894069 222.66569781 358.88894069 224 360 C224.3055585 361.86965497 224.56796072 363.74638981 224.8125 365.625 C226.73039046 378.29975436 229.56077453 388.50033368 237 399 C238.15310019 400.84965619 239.29892506 402.70386739 240.4375 404.5625 C243.45935399 409.34252359 246.85292668 413.68326219 250.49609375 418.00390625 C252 420 252 420 252 422 C252.66 422.226875 253.32 422.45375 254 422.6875 C256.55472183 423.8051908 258.6665714 425.00183277 261 426.5 C265.64338984 429.45330048 269.35425979 431.47047835 275 431 C275.33 430.67 275.66 430.34 276 430 C278.63924227 429.54755847 280.34918506 429.60431674 282.6640625 431.01171875 C284.3125 432.3125 284.3125 432.3125 287 435 C287 435.99 287 436.98 287 438 C293.78652071 438.87793221 300.40794939 439.13355826 307.24609375 439.140625 C309.4043075 439.158945 311.56251093 439.17851455 313.72070312 439.19921875 C317.0822924 439.22817893 320.44320939 439.25000083 323.80493164 439.25048828 C327.07757511 439.25383968 330.34871384 439.28846985 333.62109375 439.328125 C334.61306259 439.3210553 335.60503143 439.3139856 336.62705994 439.30670166 C342.97922383 439.41632319 347.36762103 440.70597272 352.89172363 443.8669281 C355.60603183 445.32570571 358.00715708 445.62771836 361.0625 445.8125 C367.76056061 446.70269386 371.71007796 449.90211058 376 455 C378.06280012 458.48836581 378.33193635 460.93377969 378 465 C377.67 465.763125 377.34 466.52625 377 467.3125 C375.95972469 470.1082399 376.03107431 471.40675897 376.25 474.3125 C376.32784103 479.01409816 374.98829997 481.47570823 371.95703125 485.00390625 C361.70193348 495.46369659 361.70193348 495.46369659 354.6875 495.75 C349.01201513 495.31966996 339.16147655 494.16147655 335 490 C333.08963094 489.66959026 331.17095384 489.38694825 329.25 489.125 C324.53234106 488.43776162 319.94397285 487.56645593 315.3125 486.4375 C310.5060736 485.27672469 305.85634173 484.5498631 300.92578125 484.2109375 C299 484 299 484 297 483 C293.56283845 482.53046246 290.12536977 482.13141515 286.67773438 481.75 C281.10174717 481.10174717 281.10174717 481.10174717 280 480 C278.62176472 479.7517314 277.23377596 479.5570056 275.84375 479.38671875 C274.55597656 479.2155957 274.55597656 479.2155957 273.2421875 479.04101562 C271.44627175 478.80949087 269.64939812 478.58525213 267.8515625 478.36914062 C259.28627391 477.20634551 252.02845083 475.13515906 246.4375 468.1875 C239.57312235 460.0901426 231.64478295 454.10930191 223 448 C222.13890625 447.38898438 221.2778125 446.77796875 220.390625 446.1484375 C218.72880504 444.97690604 217.06090252 443.81395009 215.38671875 442.66015625 C213.84935677 441.59079644 212.32922103 440.49600931 210.83203125 439.37109375 C204.62187663 434.85770269 196.37566597 430.51434793 188.4921875 431.2265625 C185.46415001 432.16629827 182.72770175 433.4282037 179.875 434.8125 C175.73444625 436.77307787 171.64025151 438.56040702 167.3125 440.0625 C163.77377855 441.29646339 160.50597459 442.69719248 157.1875 444.4375 C153.33376067 446.4341618 149.47759539 447.95790873 145.375 449.375 C135.36745063 452.83789521 125.79065997 457.24159261 116.1875 461.6875 C112.61216537 463.33022132 109.02219642 464.75140181 105.3125 466.0625 C101.39562351 467.44949592 97.71506092 468.98799541 94.05078125 470.9453125 C92 472 92 472 89.35546875 473.1171875 C86.73609582 474.26386578 84.35511646 475.37609112 82 477 C80.74843159 480.42215347 80.74843159 480.42215347 80 484 C77.01127787 487.71099665 73.99072961 489.70451924 69.4375 491.0625 C63.85561329 490.96101115 60.40209227 488.61617157 56.59765625 484.70703125 C55.41015631 483.41718637 54.23205203 482.11864088 53.0625 480.8125 C52.13618774 479.79929687 52.13618774 479.79929687 51.19116211 478.765625 C47.56941241 474.79112923 44.00982168 470.76455454 40.50390625 466.6875 C38.34684627 464.26711062 36.0306389 462.02132944 33.71875 459.75 C32.05773479 458.05878452 30.52938597 456.31029359 29 454.5 C24.80082124 449.6136829 20.19093501 445.13855 15.59375 440.63085938 C12.47732152 437.55663253 9.47697296 434.4473332 6.625 431.125 C2.49498912 426.33530235 -1.9948337 421.93399464 -6.5 417.5 C-11.65501805 412.42641983 -16.66640655 407.32981706 -21.37792969 401.84033203 C-24.42541724 398.38278219 -27.77373461 395.22669731 -31.09448242 392.03466797 C-33.78855533 389.39521755 -36.21633416 386.85198332 -38.27734375 383.68359375 C-40.35483873 380.56137001 -41.98949794 378.24765991 -45 376 C-52.4064461 375.00708022 -59.10797926 376.09752439 -66 379 C-68.45034832 379.69544254 -70.90961575 380.35990023 -73.375 381 C-77.12283077 381.97703124 -80.86110072 382.95986008 -84.58203125 384.03515625 C-94.12889036 386.73009819 -103.90123143 388.40250972 -113.69458008 389.90991211 C-118.25795004 390.63114467 -122.56802949 391.65966751 -127 393 C-138.99177513 396.44622136 -150.9755463 399.87422021 -163.14306641 402.64746094 C-167.86913306 403.72523325 -172.56435139 404.88542564 -177.25 406.125 C-178.43078125 406.43695312 -179.6115625 406.74890625 -180.828125 407.0703125 C-183.91490659 407.91867033 -183.91490659 407.91867033 -186.46875 408.99609375 C-195.85189444 412.71749517 -206.2996567 414.38252344 -216.23925781 415.96069336 C-220.33309315 416.62665956 -224.10033401 417.59568815 -228 419 C-239.32006301 422.76185021 -239.32006301 422.76185021 -244 422 C-246.89282587 420.45715954 -248.5579181 419.29912412 -249.63671875 416.12890625 C-250.27177288 412.5166091 -250.23331248 410.51106544 -248.6875 407.125 C-247 405 -247 405 -245 403 C-243.26157025 398.69442668 -242.685596 394.80630858 -242.4375 390.1875 C-242.10047847 384.10047847 -242.10047847 384.10047847 -241 383 C-240.33910927 379.51427344 -239.75766005 376.02373145 -239.19335938 372.52148438 C-238.46466274 368.16818274 -237.45775496 364.17926708 -236 360 C-235.31174526 357.35720935 -234.64269462 354.71612583 -234 352.0625 C-233.66786412 350.69892652 -233.33453919 349.33564209 -233 347.97265625 C-232.83628906 347.30564697 -232.67257813 346.6386377 -232.50390625 345.95141602 C-232.0286896 344.11110271 -231.48513385 342.28882722 -230.9375 340.46875 C-229.61384084 335.57121111 -229.13923091 330.65204109 -228.5625 325.62109375 C-228.03034223 322.19532808 -227.16016445 319.25637067 -226 316 C-224.4301554 310.25436878 -223.05967853 304.47446603 -221.9375 298.625 C-221.04304671 293.99749786 -219.63563546 289.70734641 -217.9921875 285.29296875 C-216.90441803 281.68277323 -216.49515303 278.31313222 -216.125 274.5625 C-215.11823555 265.42696582 -212.96024741 256.75870347 -209.99609375 248.05078125 C-207.85455516 241.49179443 -206.46191633 234.7358841 -205 228 C-204.81131348 227.17016602 -204.62262695 226.34033203 -204.42822266 225.48535156 C-201.93317345 215.82551133 -201.93317345 215.82551133 -202.9765625 206.19921875 C-204.51154757 204.10927754 -206.00221734 202.6457144 -208 201 C-209.67399257 199.34069158 -211.33919151 197.67250432 -213 196 C-214.24665178 194.76357226 -215.49411187 193.52795921 -216.7421875 192.29296875 C-218.11984395 190.9245318 -219.49744694 189.55604103 -220.875 188.1875 C-221.55691406 187.51396484 -222.23882812 186.84042969 -222.94140625 186.14648438 C-227.50842213 181.60121619 -231.81732528 176.900185 -236 172 C-240.46794227 166.8022668 -244.954288 162.04248834 -250.1953125 157.6171875 C-252.75590854 155.32262741 -254.80709201 152.64273526 -257 150 C-258.15038448 149.00175453 -259.31812261 148.02325195 -260.5 147.0625 C-262.91712398 145.06642342 -264.70645951 143.17363179 -266.4375 140.5625 C-268.84789975 136.95883304 -271.79060904 134.39260321 -275.09375 131.61328125 C-277.54197644 129.54131912 -279.76071276 127.29526942 -282 125 C-282.94359375 124.14148438 -282.94359375 124.14148438 -283.90625 123.265625 C-289.39737463 118.14330725 -294.2931437 112.47336026 -295.2890625 104.76171875 C-295.1022799 100.94704337 -293.97941755 98.53091446 -291.25 96 C-286.77358491 93.24528302 -286.77358491 93.24528302 -283 94 C-279.80056343 95.38014911 -277.46674452 96.53325548 -275 99 C-272.10514098 99.44015322 -272.10514098 99.44015322 -268.5625 99.5625 C-267.88888428 99.59859375 -267.21526855 99.6346875 -266.52124023 99.671875 C-261.67247287 99.91708787 -256.82074045 100.07920917 -251.96875 100.24609375 C-250.74857178 100.28855225 -249.52839355 100.33101074 -248.27124023 100.37475586 C-245.807392 100.45796 -243.34335062 100.5356363 -240.87915039 100.60766602 C-239.74469482 100.64432373 -238.61023926 100.68098145 -237.44140625 100.71875 C-236.41732666 100.74904297 -235.39324707 100.77933594 -234.33813477 100.81054688 C-232 101 -232 101 -231 102 C-225.94447697 102.48147838 -222.35115712 101.62711373 -218 99 C-216.5562526 96.43275463 -215.78021681 93.82678552 -215 91 C-214.67 90.34 -214.34 89.68 -214 89 C-213.896875 87.845 -213.79375 86.69 -213.6875 85.5 C-213.460625 84.345 -213.23375 83.19 -213 82 C-210.95703125 80.78125 -210.95703125 80.78125 -209 80 C-209.3609375 79.21496094 -209.721875 78.42992187 -210.09375 77.62109375 C-215.09823498 66.29149581 -215.09823498 66.29149581 -214 61 C-212.34653307 57.70549821 -210.27680895 54.89088606 -208 52 C-207.35804688 51.16984375 -206.71609375 50.3396875 -206.0546875 49.484375 C-198.69415657 40.63000938 -189.05095367 34.29134902 -178 31 C-176.95585937 30.67386719 -175.91171875 30.34773438 -174.8359375 30.01171875 C-172.60947299 29.32066035 -170.38047133 28.63769656 -168.1484375 27.96484375 C-166.10322683 27.33808564 -164.07430221 26.65440616 -162.0703125 25.90625 C-155.94920015 24.09950946 -147.77298074 23.38109692 -141.796875 25.9453125 C-138.79025376 28.35972047 -136.6743955 31.55818703 -135 35 C-135 35.66 -135 36.32 -135 37 C-134.37351563 37.02578125 -133.74703125 37.0515625 -133.1015625 37.078125 C-131.87566406 37.16320312 -131.87566406 37.16320312 -130.625 37.25 C-129.81289062 37.29640625 -129.00078125 37.3428125 -128.1640625 37.390625 C-126 38 -126 38 -124.7109375 40.046875 C-124.47632813 40.69140625 -124.24171875 41.3359375 -124 42 C-121.83125748 41.49396008 -120.00032373 41.00016187 -118 40 C-115.94748184 40.23946045 -113.89552988 40.48533906 -111.84765625 40.76171875 C-107.27522712 41.14432256 -102.71270177 40.80864741 -98.13671875 40.546875 C-95 41 -95 41 -92.6171875 43.33984375 C-90.57783406 46.69443238 -90.31638819 48.12619972 -91 52 C-93.44497966 57.39842855 -96.88340342 60.94383015 -101.41015625 64.6484375 C-103.74744207 66.63541758 -104.98097825 68.07880431 -106 71 C-105.72600299 73.25486063 -105.20466469 75.35680778 -104.6171875 77.55078125 C-102.08635367 87.59402689 -102.38987624 98.15102304 -104.5 108.1875 C-105.30971455 113.01371756 -105.30971455 113.01371756 -103.6328125 117.421875 C-101.54446186 119.51835152 -99.38744509 121.25425551 -97 123 C-95.7188664 124.09219874 -94.44779184 125.19631638 -93.1875 126.3125 C-92.53910156 126.87066406 -91.89070312 127.42882812 -91.22265625 128.00390625 C-79.86277372 138.20583942 -79.86277372 138.20583942 -76 144 C-71.49384692 137.63837213 -68.94485504 130.98699612 -66.33203125 123.70703125 C-65.67267578 121.87205078 -65.67267578 121.87205078 -65 120 C-64.71511719 119.15824219 -64.43023437 118.31648438 -64.13671875 117.44921875 C-62.82724213 114.62776913 -61.12521569 112.36041138 -59.28417969 109.86523438 C-57.19912909 106.83675784 -55.693192 103.5665988 -54.125 100.25 C-49.29073735 90.38313428 -44.67318136 82.11985681 -36.125 75.015625 C-33.2028878 72.24391563 -31.47242036 69.15184254 -29.53125 65.65234375 C-26.74581137 60.82756613 -23.35054212 56.44190128 -20 52 C-19.52304687 51.33097656 -19.04609375 50.66195312 -18.5546875 49.97265625 C-16.68277012 47.47087988 -15.5002823 46.13422208 -12.4375 45.3125 C-8.91314369 46.30654921 -7.80799294 47.87078145 -6 51 C-6.4636739 55.20986462 -8.00762181 59.09533054 -9.4375 63.0625 C-10.08525391 64.87427734 -10.08525391 64.87427734 -10.74609375 66.72265625 C-11.71423611 69.25309687 -12.72256311 71.61743166 -14 74 C-13.44570313 74.27972656 -12.89140625 74.55945313 -12.3203125 74.84765625 C-6.26200022 78.20020984 -6.26200022 78.20020984 -4.8125 82.625 C-4.4103125 84.295625 -4.4103125 84.295625 -4 86 C-1.53884453 87.84434349 -1.53884453 87.84434349 1 89 C2.57563517 92.15127034 2.96052604 94.64733585 2 98 C-1.16227342 102.45010759 -4.72375512 106.65165112 -9.453125 109.453125 C-12.62095632 111.37714525 -15.02104397 113.84222213 -17.5625 116.5 C-25.81822806 125.06233694 -25.81822806 125.06233694 -31.625 126.0625 C-35.22356523 126.65323003 -35.22356523 126.65323003 -38 129 C-38.43045336 131.00596892 -38.77438903 133.03119661 -39.0625 135.0625 C-39.90277778 140.90277778 -39.90277778 140.90277778 -41 142 C-41.23678716 144.69235776 -41.42198025 147.36498156 -41.5625 150.0625 C-41.62727539 151.20041992 -41.62727539 151.20041992 -41.69335938 152.36132812 C-41.79973633 154.24065438 -41.90039934 156.12030244 -42 158 C-25.96723069 158.13183175 -10.01105858 157.85720604 6 157 C6.23074219 156.35675781 6.46148437 155.71351563 6.69921875 155.05078125 C7.78942043 152.03010387 8.89330248 149.01467278 10 146 C10.39703125 144.90816406 10.7940625 143.81632813 11.203125 142.69140625 C13.04987245 137.7297335 14.83136906 133.09400489 17.6875 128.625 C20.75827626 123.48457829 21.06171475 117.89791531 21.640625 112.0625 C22 109 22 109 23 108 C24.16691234 99.95653567 24.16691234 99.95653567 21.3203125 92.7109375 C19.89246184 91.43999351 18.43990964 90.19629635 16.96484375 88.98046875 C14.08332151 86.07603182 13.52119162 83.03782086 12.765625 79.1015625 C12.17726913 76.81354654 12.17726913 76.81354654 9.921875 75.7109375 C9.28765625 75.47632813 8.6534375 75.24171875 8 75 C8 72.66666667 8 70.33333333 8 68 C7.195625 67.566875 6.39125 67.13375 5.5625 66.6875 C3 65 3 65 2.0625 62.625 C2 60 2 60 3 57.5625 C4.28651993 54.26579268 3.95396254 52.37555974 3 49 C2.484375 48.525625 1.96875 48.05125 1.4375 47.5625 C-0.84444396 45.08212613 0 42.30569695 0 39 C-0.54298618 36.64705991 -1.2633666 34.39089734 -2.0078125 32.09375 C-2.79390936 29.64261332 -3.5319438 27.192171 -4.2421875 24.71875 C-4.45979736 23.96255371 -4.67740723 23.20635742 -4.90161133 22.42724609 C-5.3356893 20.91510893 -5.76787835 19.40242799 -6.19799805 17.88916016 C-7.20851534 14.40640612 -8.31609473 11.2085222 -10 8 C-10.34358416 5.1826099 -10.38088923 3.64975221 -8.9375 1.1875 C-5.94449731 -0.646921 -3.42183337 -0.31107576 0 0 Z M-21 225 C-20.65120368 228.25543229 -19.97866739 229.01873107 -17.4375 231.25 C-16.633125 231.8275 -15.82875 232.405 -15 233 C-14.34 232.67 -13.68 232.34 -13 232 C-13.95117134 230.8274869 -14.91117009 229.66212985 -15.875 228.5 C-16.40867187 227.8503125 -16.94234375 227.200625 -17.4921875 226.53125 C-17.98976563 226.0259375 -18.48734375 225.520625 -19 225 C-19.66 225 -20.32 225 -21 225 Z M-186 239 C-186.18175781 240.16015625 -186.36351562 241.3203125 -186.55078125 242.515625 C-188.31850339 253.58496093 -190.37873191 264.36252498 -194 275 C-196.21807173 282.12434995 -197.56738103 289.13695532 -198.47265625 296.54296875 C-198.95281202 299.69065659 -199.62954026 302.71784306 -200.43139648 305.79760742 C-201.06046228 308.23419074 -201.64254407 310.67929464 -202.21875 313.12890625 C-202.42886719 314.01900391 -202.63898438 314.90910156 -202.85546875 315.82617188 C-203.28602804 317.65409175 -203.71571211 319.48221799 -204.14453125 321.31054688 C-205.3117422 326.2479208 -206.58650517 331.12608214 -208 336 C-209.68523423 342.62805043 -211.25059279 349.16071242 -211.69140625 356 C-212.07999026 358.5184179 -213.05404544 360.63689842 -214 363 C-214.37861533 364.78264719 -214.71127211 366.57560656 -215 368.375 C-215.73501531 372.6924915 -216.78562663 376.79017232 -218 381 C-218.36950465 383.32787927 -218.71352467 385.66045145 -219 388 C-209.80649867 387.49441994 -209.80649867 387.49441994 -201 385 C-195.49347604 382.96961742 -190.14124947 382.26799125 -184.33984375 381.5625 C-181.25186716 381.04241973 -178.87580578 380.17981776 -176 379 C-174.02962384 378.6181236 -172.04900928 378.28634368 -170.0625 378 C-165.83069231 377.33669114 -162.04237 376.43167271 -158 375 C-150.76166071 372.96180705 -143.55830178 371.51916564 -136.10546875 370.52734375 C-132.63663299 369.93829617 -129.3749836 368.99199626 -126 368 C-123.39835384 367.35835048 -120.79720486 366.73144158 -118.1875 366.125 C-117.46626953 365.95572998 -116.74503906 365.78645996 -116.00195312 365.61206055 C-111.98275605 364.6742191 -107.95811142 363.76640158 -103.92578125 362.88671875 C-103.10247314 362.7067334 -102.27916504 362.52674805 -101.4309082 362.34130859 C-99.82994867 361.99304322 -98.22823431 361.64822699 -96.62573242 361.30712891 C-93.01352671 360.78218617 -93.01352671 360.78218617 -90 359 C-86.70876442 358.4605275 -83.40795985 358.0338661 -80.1015625 357.59765625 C-76.84795186 357.1783109 -76.84795186 357.1783109 -74 355 C-72.68787154 352.50695592 -71.87628723 350.85653028 -72.28417969 348.0324707 C-73.09213891 345.73838459 -74.01296292 344.59124445 -75.703125 342.85546875 C-76.26523682 342.26822021 -76.82734863 341.68097168 -77.40649414 341.07592773 C-78.01485107 340.45274658 -78.62320801 339.82956543 -79.25 339.1875 C-84.32191789 333.87952646 -89.27114131 328.5006446 -94.0625 322.9375 C-94.84705566 322.02810669 -94.84705566 322.02810669 -95.64746094 321.1003418 C-97.98176036 318.38364826 -100.28921967 315.65003372 -102.55859375 312.87890625 C-104.92016417 310.09414241 -107.40372025 307.56523305 -110 305 C-112.28960853 302.57992137 -114.54902388 300.13200511 -116.8125 297.6875 C-128.01348519 284.99042279 -128.01348519 284.99042279 -141.265625 274.65234375 C-144.68534529 272.58585563 -147.85418693 270.25224651 -151.0625 267.875 C-152.04561157 267.15074829 -152.04561157 267.15074829 -153.04858398 266.41186523 C-158.16586608 262.63578376 -163.25030549 258.81714406 -168.31640625 254.97265625 C-170.20757444 253.58249623 -172.15333335 252.26514546 -174.1328125 251.00390625 C-176.83331319 249.11649909 -178.43261661 247.54027941 -180.3125 244.875 C-180.80363281 244.19179688 -181.29476562 243.50859375 -181.80078125 242.8046875 C-183 241 -183 241 -184 239 C-184.66 239 -185.32 239 -186 239 Z M167.1875 318.375 C166.52105469 318.63023437 165.85460937 318.88546875 165.16796875 319.1484375 C162.77444008 320.08859831 160.38647152 321.04207949 158 322 C162.08219757 328.31267665 166.16754978 334.16754978 171.5 339.5 C173.39202781 341.39202781 175.06730902 343.24781883 176.75 345.3125 C177.4925 346.199375 178.235 347.08625 179 348 C179.33 348 179.66 348 180 348 C179.61283646 340.23002825 178.5444714 333.34671319 176 326 C175.43735995 324.29171279 174.87485338 322.5833816 174.3125 320.875 C173.87655299 319.58280836 173.43966502 318.29093133 173 317 C170.72346502 317 169.30665703 317.55651105 167.1875 318.375 Z M83.75 339.625 C82.52796875 339.92664063 81.3059375 340.22828125 80.046875 340.5390625 C76.72208399 341.7139338 76.72208399 341.7139338 75.765625 345.0234375 C75.38664062 346.49683594 75.38664062 346.49683594 75 348 C71.16052313 350.55965125 67.85122458 350.41445467 63.38671875 350.5625 C62.11596245 350.61772827 62.11596245 350.61772827 60.8195343 350.67407227 C58.10913759 350.79152731 55.39848625 350.89710897 52.6875 351 C49.12840799 351.13587471 45.57006153 351.28337323 42.01171875 351.4375 C41.19902023 351.46465088 40.38632172 351.49180176 39.54899597 351.51977539 C35.01314182 351.71655994 31.27922432 352.33753606 27 354 C24.89925736 354.61596679 22.79481902 355.21942219 20.6875 355.8125 C16.73553461 356.92619792 12.79427092 358.05452926 8.87109375 359.265625 C-0.67227552 362.19255211 -10.15205415 364.36972094 -20 366 C-17.01372607 369.56896152 -14.03656017 373.01831343 -10.6875 376.25 C-7.90882844 378.97176092 -5.50202085 381.83990957 -3.1015625 384.8984375 C2.56361234 391.87167178 8.90495685 398.09028229 15.3125 404.375 C17.067484 406.10217317 18.82086902 407.83090013 20.57133484 409.56265259 C21.64924192 410.62849248 22.72980861 411.69165227 23.81355286 412.7515564 C26.78079119 415.67934187 29.43340495 418.71888195 32 422 C33.28055951 423.20163834 34.59260953 424.37082464 35.9375 425.5 C42.36503943 430.91804517 47.95506842 437.13630475 53.65234375 443.296875 C57.19036752 447.10705445 60.79392589 450.82075519 64.52392578 454.44384766 C66 456 66 456 68 459 C71.0825349 458.04588205 73.94298754 457.02874247 76.828125 455.57421875 C79.88476818 454.05719018 82.92990028 452.81815754 86.125 451.625 C90.45004167 449.98717243 94.73872263 448.29719656 99 446.5 C104.25572864 444.28632886 109.55972214 442.22585906 114.89453125 440.2109375 C117.08674771 439.35611096 119.26144274 438.45567882 121.421875 437.5234375 C125.05407584 435.97697644 128.72970797 434.59968279 132.4375 433.25 C138.07685218 431.17386976 143.58421071 428.90585852 149.0625 426.4375 C156.54872761 423.07143384 164.16508527 420.44278232 172 418 C172 416.68 172 415.36 172 414 C171.071875 413.649375 170.14375 413.29875 169.1875 412.9375 C164.80569002 411.06335236 160.95304776 408.49519971 156.97265625 405.89453125 C153.95071009 403.96858659 150.87030347 402.19877267 147.75 400.4375 C143.0165568 397.7003084 138.93060223 394.79174944 135 391 C134.195625 390.236875 133.39125 389.47375 132.5625 388.6875 C124.54497666 380.27887796 116.86961904 371.66678456 112 361 C110.99451715 358.97261825 109.9758492 356.95232921 108.953125 354.93359375 C108.16522242 353.33518483 107.44777081 351.7022614 106.75 350.0625 C104.17283228 345.55245649 101.09966333 341.23090805 97 338 C92.38122049 337.40900179 88.22066545 338.45501734 83.75 339.625 Z " fill="#000000" transform="translate(314,129)"/>
</svg>
