<?xml version="1.0" encoding="UTF-8"?>
<svg version="1.1" xmlns="http://www.w3.org/2000/svg" width="1068" height="640">
<path d="M0 0 C1.02029297 -0.00128906 2.04058594 -0.00257812 3.09179688 -0.00390625 C4.15076172 -0.00003906 5.20972656 0.00382812 6.30078125 0.0078125 C7.37134766 0.00394531 8.44191406 0.00007813 9.54492188 -0.00390625 C11.06956055 -0.00197266 11.06956055 -0.00197266 12.625 0 C13.55787842 0.00112793 14.49075684 0.00225586 15.4519043 0.00341797 C17.61328125 0.1328125 17.61328125 0.1328125 18.61328125 1.1328125 C19.70640625 1.2153125 20.79953125 1.2978125 21.92578125 1.3828125 C27.81275161 2.04643461 33.4493163 4.2740415 38.61328125 7.1328125 C38.94328125 8.1228125 39.27328125 9.1128125 39.61328125 10.1328125 C40.17015625 10.2565625 40.72703125 10.3803125 41.30078125 10.5078125 C52.49879947 13.53430391 63.19983345 30.1288348 69.61328125 39.1328125 C69.94328125 38.8028125 70.27328125 38.4728125 70.61328125 38.1328125 C74.04233627 37.6429475 75.51117564 38.07415608 78.55078125 39.8203125 C80.06671875 40.965 80.06671875 40.965 81.61328125 42.1328125 C82.17917969 42.55304688 82.74507812 42.97328125 83.328125 43.40625 C84.98828125 44.6953125 84.98828125 44.6953125 87.61328125 47.1328125 C87.61328125 48.1228125 87.61328125 49.1128125 87.61328125 50.1328125 C88.60328125 50.4628125 89.59328125 50.7928125 90.61328125 51.1328125 C91.27994792 53.46614583 91.94661458 55.79947917 92.61328125 58.1328125 C93.60328125 58.4628125 94.59328125 58.7928125 95.61328125 59.1328125 C96.78125 61.63671875 96.78125 61.63671875 97.80078125 64.6953125 C98.14496094 65.70722656 98.48914063 66.71914062 98.84375 67.76171875 C99.09769531 68.54417969 99.35164062 69.32664062 99.61328125 70.1328125 C100.0721875 69.36195313 100.53109375 68.59109375 101.00390625 67.796875 C101.92429687 66.29253906 101.92429687 66.29253906 102.86328125 64.7578125 C103.4665625 63.76007813 104.06984375 62.76234375 104.69140625 61.734375 C106.61302131 59.13316437 107.72967627 58.37314041 110.61328125 57.1328125 C110.79890625 56.17375 110.79890625 56.17375 110.98828125 55.1953125 C111.61328125 53.1328125 111.61328125 53.1328125 114.11328125 51.4453125 C117.76784497 50.07485111 120.89392427 49.61558133 124.7578125 49.34375 C126.62739739 49.32626597 126.62739739 49.32626597 127.61328125 48.1328125 C131.22949604 47.55421813 134.85629647 47.1014557 138.48828125 46.6328125 C141.4730542 46.46854282 141.4730542 46.46854282 142.61328125 45.1328125 C144.0045286 44.94828917 145.40205389 44.81011592 146.80078125 44.6953125 C150.66376778 44.31084465 153.93942357 43.41067604 157.61328125 42.1328125 C159.945061 41.78877942 162.27815166 41.45332048 164.61328125 41.1328125 C164.94328125 40.8028125 165.27328125 40.4728125 165.61328125 40.1328125 C168.2886704 40.08966106 170.94022946 40.08600809 173.61328125 40.1328125 C176.79818132 40.4101626 176.79818132 40.4101626 179.61328125 38.1328125 C182.23828125 37.9453125 182.23828125 37.9453125 184.61328125 38.1328125 C184.94328125 38.4628125 185.27328125 38.7928125 185.61328125 39.1328125 C186.89203125 39.2153125 188.17078125 39.2978125 189.48828125 39.3828125 C193.34372042 39.80428524 193.34372042 39.80428524 195.61328125 42.5703125 C196.61328125 45.1328125 196.61328125 45.1328125 196.61328125 47.1328125 C197.14695312 46.9884375 197.680625 46.8440625 198.23046875 46.6953125 C208.55617093 44.12281922 215.30710519 44.38348577 224.8515625 49.4296875 C227.65004049 51.15548156 230.16424121 52.93804438 232.61328125 55.1328125 C232.61328125 55.7928125 232.61328125 56.4528125 232.61328125 57.1328125 C233.94359375 57.225625 233.94359375 57.225625 235.30078125 57.3203125 C239.45090474 58.33826732 240.84623349 59.92886247 243.61328125 63.1328125 C244.33515625 63.9578125 245.05703125 64.7828125 245.80078125 65.6328125 C247.59498872 68.10758143 248.5460951 70.28698278 249.61328125 73.1328125 C250.60663326 74.80344997 251.60759883 76.46956849 252.61328125 78.1328125 C255.83721614 83.6604569 257.176826 88.21307318 257.55078125 94.5703125 C258.10720474 101.1242797 259.19278211 107.25694214 261.05078125 113.5703125 C261.25630615 114.28566162 261.46183105 115.00101074 261.67358398 115.73803711 C262.78352605 119.32784974 263.81404663 121.64542896 266.61328125 124.1328125 C267.74609375 126.2890625 267.74609375 126.2890625 268.73828125 128.6328125 C269.23714844 129.79296875 269.23714844 129.79296875 269.74609375 130.9765625 C270.42816229 132.6725167 271.03522605 134.3986469 271.61328125 136.1328125 C272.60328125 136.4628125 273.59328125 136.7928125 274.61328125 137.1328125 C274.71640625 137.7721875 274.81953125 138.4115625 274.92578125 139.0703125 C275.15265625 139.7509375 275.37953125 140.4315625 275.61328125 141.1328125 C277.59884534 141.84131775 279.60227822 142.50011096 281.61328125 143.1328125 C283.67363794 144.05027413 285.71584891 145.00952748 287.73828125 146.0078125 C288.75148438 146.50023437 289.7646875 146.99265625 290.80859375 147.5 C293.58498483 149.11633909 295.44156853 150.79002394 297.61328125 153.1328125 C298.81984375 154.091875 298.81984375 154.091875 300.05078125 155.0703125 C302.61328125 157.1328125 302.61328125 157.1328125 304.80078125 159.6328125 C307.5044697 162.03609112 309.11598503 162.85064753 312.42578125 164.0703125 C321.62479168 167.51481566 326.6850791 172.73246792 331.61328125 181.1328125 C333.56234375 180.91625 333.56234375 180.91625 335.55078125 180.6953125 C336.28167969 180.61410156 337.01257813 180.53289062 337.765625 180.44921875 C339.62468354 180.31394636 339.62468354 180.31394636 340.61328125 179.1328125 C347.79069916 178.52455675 347.79069916 178.52455675 351.296875 181.1171875 C355.64717727 183.76118746 359.00059673 183.69139136 363.98828125 183.6953125 C371.57642809 183.73746887 377.64553026 184.58211543 384.12890625 188.75 C387.42384158 190.58397344 390.67579718 190.89545857 394.36328125 191.2578125 C401.50489517 192.02442642 401.50489517 192.02442642 402.61328125 193.1328125 C404.27691213 193.29323405 405.94477003 193.41048268 407.61328125 193.5078125 C413.0230303 193.96211959 417.59051844 195.12370738 422.61328125 197.1328125 C423.37640625 197.4215625 424.13953125 197.7103125 424.92578125 198.0078125 C434.56046887 201.91376694 440.69052705 208.2873041 445.30078125 217.5078125 C447.99506391 224.94916462 449.0423966 232.59474325 450.1484375 240.41015625 C450.47013036 243.08843223 450.47013036 243.08843223 451.61328125 245.1328125 C451.81723831 246.52368632 451.97841246 247.92104881 452.11328125 249.3203125 C452.3873911 252.06141098 452.71403737 254.72615411 453.17578125 257.4453125 C453.99189986 264.32402647 454.23657603 271.12824286 452.55078125 277.8828125 C450.90987584 285.21932439 450.70861624 294.64962988 453.6953125 301.6796875 C455.70252375 304.61470335 457.22290331 306.00268652 460.61328125 307.1328125 C462.67395079 307.28503706 464.73699703 307.40619593 466.80078125 307.5078125 C472.337472 307.90065974 476.58585642 308.91291063 481.61328125 311.1328125 C482.83015625 311.5040625 484.04703125 311.8753125 485.30078125 312.2578125 C489.40221429 313.78050021 492.90405159 316.16720896 496.48828125 318.6328125 C497.34619263 319.2208667 497.34619263 319.2208667 498.22143555 319.82080078 C500.97864121 321.77098928 502.71679565 323.28808411 504.61328125 326.1328125 C505.43828125 326.5659375 506.26328125 326.9990625 507.11328125 327.4453125 C509.61328125 329.1328125 509.61328125 329.1328125 511.17578125 331.9453125 C511.61328125 335.1328125 511.61328125 335.1328125 510.05078125 338.3828125 C507.47266141 341.29146053 506.24765602 342.01939133 502.61328125 343.1328125 C499.7890625 343.2578125 499.7890625 343.2578125 496.92578125 343.1328125 C494.11554077 342.96551656 494.11554077 342.96551656 491.61328125 343.1328125 C490.95328125 343.7928125 490.29328125 344.4528125 489.61328125 345.1328125 C487.265625 345.80078125 487.265625 345.80078125 484.55078125 346.3203125 C483.65230469 346.49949219 482.75382813 346.67867188 481.828125 346.86328125 C481.09722656 346.95222656 480.36632812 347.04117187 479.61328125 347.1328125 C479.28328125 346.8028125 478.95328125 346.4728125 478.61328125 346.1328125 C476.13908366 346.01947448 473.69386467 345.96863765 471.21875 345.96484375 C470.47498611 345.96151535 469.73122223 345.95818695 468.96492004 345.95475769 C467.38702006 345.94968432 465.8091093 345.94734949 464.23120117 345.94750977 C461.82127018 345.94533102 459.41180255 345.92720163 457.00195312 345.90820312 C455.47005365 345.9052677 453.938152 345.9032839 452.40625 345.90234375 C451.32636055 345.89156548 451.32636055 345.89156548 450.22465515 345.88056946 C446.42448146 345.89783488 443.91200532 346.29146598 440.61328125 348.1328125 C438.43432617 348.39160156 438.43432617 348.39160156 436.09375 348.3984375 C435.23587891 348.40101563 434.37800781 348.40359375 433.49414062 348.40625 C432.60533203 348.39851563 431.71652344 348.39078125 430.80078125 348.3828125 C429.92357422 348.39054687 429.04636719 348.39828125 428.14257812 348.40625 C421.97758381 348.38780574 416.56771522 347.99194412 411.2109375 344.62109375 C408.71187761 340.7289149 409.0540677 336.85233394 409.05078125 332.3203125 C409.01700284 325.75282537 408.6149634 321.02236895 405.61328125 315.1328125 C404.92298828 313.66521484 404.92298828 313.66521484 404.21875 312.16796875 C403.75082031 311.18699219 403.28289062 310.20601563 402.80078125 309.1953125 C399.82961418 302.80100532 397.32822835 296.28435856 394.91015625 289.6640625 C393.72220918 286.27171993 393.72220918 286.27171993 392.44921875 283.65234375 C391.30642164 280.2079319 391.39915091 276.90266654 391.48828125 273.3203125 C391.49730469 272.62744141 391.50632812 271.93457031 391.515625 271.22070312 C391.53901968 269.52458855 391.57488484 267.82865379 391.61328125 266.1328125 C389.63328125 265.8028125 387.65328125 265.4728125 385.61328125 265.1328125 C382.21444903 270.00447201 379.9288482 273.84495211 379.11328125 279.7578125 C378.61328125 283.1328125 378.61328125 283.1328125 376.61328125 286.1328125 C376.36578125 286.9784375 376.11828125 287.8240625 375.86328125 288.6953125 C374.40723733 292.69943329 372.36391381 296.00378531 370.1171875 299.609375 C368.79274309 301.83168952 367.72062168 304.02174451 366.67578125 306.3828125 C363.16092442 313.55717047 356.62275624 316.95325684 349.61328125 320.1328125 C348.27762508 320.79481312 346.94365171 321.46025271 345.61328125 322.1328125 C345.79890625 323.1021875 345.98453125 324.0715625 346.17578125 325.0703125 C346.20009094 328.0543271 345.64565308 329.0909643 343.78515625 331.49609375 C339.97625866 335.3491342 336.28983225 338.39847731 331.61328125 341.1328125 C330.5248382 341.99693942 329.4602325 342.89223156 328.42578125 343.8203125 C325.4291771 346.44069102 322.38799654 348.99444559 319.30078125 351.5078125 C318.45902344 352.19617188 317.61726563 352.88453125 316.75 353.59375 C314.61328125 355.1328125 314.61328125 355.1328125 312.61328125 355.1328125 C312.46890625 355.7721875 312.32453125 356.4115625 312.17578125 357.0703125 C311.61328125 359.1328125 311.61328125 359.1328125 310.61328125 360.1328125 C309.58203125 360.2771875 308.55078125 360.4215625 307.48828125 360.5703125 C301.83757853 361.3905758 296.91201596 363.01331862 291.61328125 365.1328125 C291.61328125 369.0928125 291.61328125 373.0528125 291.61328125 377.1328125 C292.37511719 377.49632812 293.13695312 377.85984375 293.921875 378.234375 C302.57862834 382.44927363 311.23948496 386.73098455 317.61328125 394.1328125 C317.61328125 394.7928125 317.61328125 395.4528125 317.61328125 396.1328125 C318.41765625 396.5040625 318.41765625 396.5040625 319.23828125 396.8828125 C323.33809711 399.04061032 326.86907097 401.36999696 330.11328125 404.6953125 C335.39399399 409.84400742 341.71670582 411.04138314 348.69140625 412.41796875 C353.87825584 413.5761012 356.95017508 415.21284218 360.61328125 419.1328125 C361.44921875 421.95703125 361.44921875 421.95703125 361.61328125 425.1328125 C361.78730469 427.02966797 361.78730469 427.02966797 361.96484375 428.96484375 C362.05507813 430.27839844 362.1453125 431.59195312 362.23828125 432.9453125 C362.315625 433.9652832 362.315625 433.9652832 362.39453125 435.00585938 C362.51023441 436.71248095 362.56689651 438.4229023 362.61328125 440.1328125 C362.28328125 440.4628125 361.95328125 440.7928125 361.61328125 441.1328125 C361.45435293 442.50430504 361.33631815 443.88062741 361.23828125 445.2578125 C360.71694992 450.5299858 358.97257198 454.41423105 356.61328125 459.1328125 C356.34157028 463.95168654 356.40594159 468.73326982 357.11328125 473.5078125 C358.24383284 481.70431152 357.85766111 489.97521122 356.61328125 498.1328125 C356.56429688 498.82117188 356.5153125 499.50953125 356.46484375 500.21875 C356.08867476 505.03729568 355.30672985 507.92534398 351.61328125 511.1328125 C347.11079708 512.57700554 345.29326131 512.47876727 341.05078125 510.3203125 C340.47457031 509.94003906 339.89835937 509.55976562 339.3046875 509.16796875 C337.47021985 507.93959093 337.47021985 507.93959093 334.48828125 507.2578125 C330.48220273 505.69021656 329.08726549 503.62549614 326.61328125 500.1328125 C326.61328125 499.4728125 326.61328125 498.8128125 326.61328125 498.1328125 C325.95328125 498.1328125 325.29328125 498.1328125 324.61328125 498.1328125 C323.04303745 494.45531512 321.97337202 490.83371864 321.05078125 486.9453125 C320.13801079 482.9272823 320.13801079 482.9272823 318.61328125 479.1328125 C318.50801255 477.54798405 318.45802228 475.95928189 318.4375 474.37109375 C318.41365234 473.41654297 318.38980469 472.46199219 318.36523438 471.47851562 C318.32268507 469.47611967 318.29120943 467.47345397 318.27148438 465.47070312 C318.0906717 459.20112869 317.48168612 455.16240237 313.61328125 450.1328125 C306.84792598 445.48578978 298.04222533 444.22434901 290.12426758 442.57910156 C284.29972356 441.35210214 279.0206035 439.64633622 273.61328125 437.1328125 C272.74832031 436.75253906 271.88335938 436.37226562 270.9921875 435.98046875 C261.41204031 431.72715518 252.00273212 427.46770397 243.61328125 421.1328125 C241.03305534 419.55950402 238.4427061 418.03804853 235.80078125 416.5703125 C227.01825861 410.65462367 222.11688807 400.93935757 220.015625 390.8671875 C219.31853417 386.129677 219.10025325 381.36417546 218.859375 376.5859375 C218.6514586 373.66850741 218.26993667 370.97651036 217.61328125 368.1328125 C216.62328125 367.8028125 215.63328125 367.4728125 214.61328125 367.1328125 C214.59346191 366.48320557 214.57364258 365.83359863 214.55322266 365.16430664 C214.45700192 362.17428728 214.34772226 359.18487602 214.23828125 356.1953125 C214.191875 354.66293945 214.191875 354.66293945 214.14453125 353.09960938 C213.9315824 347.54519353 213.43339093 342.36510521 212.04101562 336.9765625 C211.50540718 334.66782105 211.46106138 332.49222047 211.61328125 330.1328125 C210.80890625 329.7925 210.80890625 329.7925 209.98828125 329.4453125 C207.61328125 328.1328125 207.61328125 328.1328125 205.05078125 325.7578125 C201.53839645 322.71910809 197.60396699 321.50809721 193.25 320.046875 C190.19084142 318.98636669 187.45617423 317.66951141 184.61328125 316.1328125 C184.61328125 315.4728125 184.61328125 314.8128125 184.61328125 314.1328125 C183.62328125 313.8028125 182.63328125 313.4728125 181.61328125 313.1328125 C180.0703125 311.6015625 180.0703125 311.6015625 178.42578125 309.6328125 C176.53125472 307.38331152 174.64261068 305.1639282 172.625 303.0234375 C167.84831877 297.94067766 164.34166184 292.63822806 160.9609375 286.5390625 C159.82313216 284.25219254 159.82313216 284.25219254 158.61328125 283.1328125 C157.60265625 283.0709375 156.59203125 283.0090625 155.55078125 282.9453125 C150.08408591 282.25774876 145.86112083 278.51466962 142.171875 274.60546875 C140.25776406 272.79689776 138.24351027 271.6881527 135.92578125 270.4453125 C135.11753906 270.00832031 134.30929687 269.57132812 133.4765625 269.12109375 C132.86167969 268.79496094 132.24679687 268.46882813 131.61328125 268.1328125 C131.61328125 267.4728125 131.61328125 266.8128125 131.61328125 266.1328125 C130.97390625 265.8646875 130.33453125 265.5965625 129.67578125 265.3203125 C127.61328125 264.1328125 127.61328125 264.1328125 126.61328125 261.1328125 C125.78828125 260.8853125 124.96328125 260.6378125 124.11328125 260.3828125 C119.95499456 258.89771011 117.25774343 256.69497436 113.8515625 253.94140625 C108.07776125 249.27601362 102.1345365 245.18990236 95.30078125 242.2578125 C91.49697816 240.60865534 88.08273984 238.67134163 84.6328125 236.37890625 C79.25006301 233.05763529 75.02142736 231.60577957 68.67578125 231.6953125 C67.96284912 231.69853516 67.24991699 231.70175781 66.51538086 231.70507812 C62.75696004 231.80545267 59.83848748 232.0367737 56.67578125 234.1328125 C53.09411406 236.47186046 50.98398233 236.60399371 46.82421875 236.6640625 C44.61328125 236.1328125 44.61328125 236.1328125 42.60327148 234.11962891 C38.28093066 231.24747984 34.63443286 231.66622818 29.5625 231.8125 C28.5897261 231.82290314 27.61695221 231.83330627 26.61470032 231.84402466 C23.5094468 231.87958082 20.40552609 231.94185142 17.30078125 232.0078125 C14.20687541 232.06327181 11.11317515 232.112739 8.01899719 232.150177 C6.0966111 232.17444532 4.17431996 232.20940489 2.25236511 232.25680542 C-14.24938827 232.50057972 -26.32503949 224.20952662 -38.26171875 213.5703125 C-40.36260123 211.16047671 -41.78892115 208.69872459 -43.2890625 205.88671875 C-44.47144897 203.99742507 -45.76548188 202.65653136 -47.38671875 201.1328125 C-55.17772215 193.71374143 -58.5238922 181.92462865 -62.38671875 172.1328125 C-63.09416168 170.36162327 -63.80247971 168.59078328 -64.51171875 166.8203125 C-65.13671875 165.2578125 -65.76171875 163.6953125 -66.38671875 162.1328125 C-66.72832031 161.35679687 -67.06992187 160.58078125 -67.421875 159.78125 C-68.99578822 155.46095378 -69.55445866 150.93426287 -70.3125 146.41015625 C-71.59398278 142.50046878 -73.06150198 141.43488565 -76.38671875 139.1328125 C-80.38671875 133.8355152 -80.38671875 133.8355152 -80.38671875 130.1328125 C-81.37671875 129.8028125 -82.36671875 129.4728125 -83.38671875 129.1328125 C-84.1953125 127.27734375 -84.1953125 127.27734375 -84.82421875 124.9453125 C-85.78621218 121.70114318 -86.55975935 119.89055566 -88.57421875 117.0703125 C-90.90942789 113.2856632 -91.25664123 110.47372569 -90.38671875 106.1328125 C-88.63671875 102.9453125 -88.63671875 102.9453125 -86.38671875 100.1328125 C-85.82984375 99.2665625 -85.27296875 98.4003125 -84.69921875 97.5078125 C-78.58019163 91.22340627 -70.7681585 90.52782466 -62.38671875 90.1328125 C-62.39457397 89.14885498 -62.39457397 89.14885498 -62.40258789 88.14501953 C-62.42333147 85.18262687 -62.43637051 82.22024947 -62.44921875 79.2578125 C-62.45759766 78.22527344 -62.46597656 77.19273437 -62.47460938 76.12890625 C-62.47944336 74.64970703 -62.47944336 74.64970703 -62.484375 73.140625 C-62.49223022 71.77381592 -62.49223022 71.77381592 -62.50024414 70.37939453 C-62.38671875 68.1328125 -62.38671875 68.1328125 -61.38671875 66.1328125 C-61.07626349 63.54137345 -60.87697963 60.94909518 -60.66796875 58.34765625 C-60.38671875 56.1328125 -60.38671875 56.1328125 -59.38671875 55.1328125 C-59.13643064 53.55268033 -58.91230929 51.96838944 -58.69921875 50.3828125 C-57.32255684 42.35403616 -53.89470021 34.89478468 -49.38671875 28.1328125 C-48.72671875 28.1328125 -48.06671875 28.1328125 -47.38671875 28.1328125 C-47.28488281 27.55402344 -47.18304688 26.97523437 -47.078125 26.37890625 C-45.11505946 20.00171593 -39.05139567 15.51791584 -33.46875 12.34765625 C-31.25707088 11.0571643 -29.26357752 9.58367241 -27.19921875 8.0703125 C-21.73331466 4.37558988 -15.7153732 2.78487089 -9.38671875 1.1328125 C-8.77763672 0.95484131 -8.16855469 0.77687012 -7.54101562 0.59350586 C-4.98114488 0.0460811 -2.61782336 0.00315373 0 0 Z M-31.38671875 131.1328125 C-29.35539626 136.48962559 -26.55607232 141.21975405 -23.63671875 146.1328125 C-23.12367188 147.02226562 -22.610625 147.91171875 -22.08203125 148.828125 C-19.00146812 154.01399761 -16.15002665 157.46924849 -11.38671875 161.1328125 C-9.98828125 163.16015625 -9.98828125 163.16015625 -9.01171875 165.0703125 C-6.70008119 169.05355768 -3.92813393 171.32434857 -0.15625 173.90625 C1.61328125 175.1328125 1.61328125 175.1328125 3.61328125 177.1328125 C8.4315123 176.79665685 12.28560872 175.12354186 16.61328125 173.1328125 C14.23396932 170.56688787 11.63820482 168.70578548 8.73828125 166.7578125 C4.95903546 164.15786692 1.81528514 161.42630222 -1.38671875 158.1328125 C-2.15371094 157.69453125 -2.92070312 157.25625 -3.7109375 156.8046875 C-7.71522304 154.30273975 -10.6463189 150.91023234 -13.88671875 147.5078125 C-16.26115081 145.07893608 -16.26115081 145.07893608 -18.99609375 143.5703125 C-21.57493964 142.01963393 -22.88969467 140.56025649 -24.63671875 138.1328125 C-25.136875 137.4521875 -25.63703125 136.7715625 -26.15234375 136.0703125 C-27.38671875 134.1328125 -27.38671875 134.1328125 -28.38671875 131.1328125 C-29.37671875 131.1328125 -30.36671875 131.1328125 -31.38671875 131.1328125 Z " fill="#000000" transform="translate(338.38671875,83.8671875)"/>
</svg>
