<?xml version="1.0" encoding="UTF-8"?>
<svg version="1.1" xmlns="http://www.w3.org/2000/svg" width="360" height="360">
<path d="M0 0 C1.05051607 -0.00782324 2.10103214 -0.01564648 3.18338203 -0.02370679 C4.33628668 -0.01701463 5.48919132 -0.01032246 6.67703247 -0.00342751 C7.90269361 -0.00810748 9.12835476 -0.01278745 10.39115715 -0.01760924 C13.79504447 -0.02751832 17.19843655 -0.02393406 20.60229397 -0.01465058 C24.27242695 -0.00787399 27.94251606 -0.0183344 31.61264038 -0.02659035 C38.80309391 -0.03994476 45.99345361 -0.03704236 53.18391085 -0.02835242 C59.02665764 -0.02158299 64.8693781 -0.02065594 70.71212769 -0.02392387 C71.54303921 -0.02438357 72.37395073 -0.02484327 73.23004138 -0.0253169 C74.91791233 -0.02627606 76.60578327 -0.0272487 78.2936542 -0.02823468 C94.12856858 -0.03679357 109.9634309 -0.02694661 125.79833674 -0.01083358 C139.39155437 0.00257006 152.98469514 0.00024211 166.57791138 -0.01358986 C182.35535765 -0.02963686 198.13275827 -0.03596955 213.91021156 -0.02675307 C215.59194564 -0.0257974 217.27367973 -0.02485429 218.95541382 -0.02392387 C219.7829041 -0.02346105 220.61039438 -0.02299822 221.46296012 -0.02252137 C227.30009612 -0.01992884 233.1372032 -0.02430814 238.97433472 -0.03136253 C246.0858452 -0.03976796 253.19725633 -0.03751762 260.3087554 -0.0215203 C263.938612 -0.01362462 267.56830281 -0.0105679 271.19815826 -0.02046776 C275.12903604 -0.03102663 279.05964108 -0.01843683 282.99050903 -0.00342751 C284.14341368 -0.01011967 285.29631832 -0.01681184 286.48415947 -0.02370679 C287.53467554 -0.01588355 288.58519161 -0.00806031 289.6675415 0 C291.02900393 0.00073059 291.02900393 0.00073059 292.41797066 0.00147593 C295.37444995 0.46168645 296.73703241 1.2539211 298.83377075 3.37752342 C299.33401674 5.26631784 299.33401674 5.26631784 299.334342 7.43960381 C299.34415629 8.26929161 299.35397058 9.09897941 299.36408228 9.95380926 C299.35447727 10.86517912 299.34487226 11.77654899 299.3349762 12.71553612 C299.34051059 13.6837846 299.34604499 14.65203309 299.3517471 15.64962244 C299.36540962 18.9087897 299.35035376 22.16719858 299.33547974 25.42635155 C299.33926087 27.7568755 299.3447592 30.08739721 299.35185242 32.41791344 C299.36585107 38.75873907 299.3546062 45.09929471 299.3381412 51.44010544 C299.3257238 57.39423487 299.32989797 63.34833636 299.33327091 69.30247432 C299.33915258 81.10048482 299.32496598 92.89838868 299.30032349 104.69637108 C299.27640178 116.15051331 299.26931881 127.60451304 299.27981567 139.05867577 C299.29121926 151.52462562 299.2931619 163.99050952 299.27871758 176.45645857 C299.2711641 183.05785553 299.26729401 189.65919538 299.27322197 196.26059532 C299.27798225 202.46578829 299.26792939 208.67078316 299.24626732 214.87593842 C299.24068633 217.15805518 299.24024609 219.44019094 299.24522018 221.72230911 C299.25114261 224.8282654 299.23872628 227.93360973 299.22145081 231.03951073 C299.23046587 232.40656552 299.23046587 232.40656552 299.23966306 233.80123758 C299.22700315 235.04576928 299.22700315 235.04576928 299.21408749 236.31544304 C299.21305836 237.03262741 299.21202923 237.74981177 299.21096891 238.488729 C298.71913108 240.95157386 297.79137015 241.84952146 295.83377075 243.37752342 C293.47366333 243.71809959 293.47366333 243.71809959 290.728302 243.67049217 C289.74539185 243.6608242 288.76248169 243.65115623 287.74978638 243.6411953 C286.72562622 243.61605858 285.70146606 243.59092186 284.64627075 243.56502342 C283.61050903 243.55148827 282.57474731 243.53795311 281.50759888 243.5240078 C278.94913376 243.48863731 276.39171295 243.43927887 273.83377075 243.37752342 C273.86519165 244.75472557 273.86519165 244.75472557 273.89724731 246.15974998 C273.96551659 249.57407771 274.0156146 252.98767785 274.05349731 256.40242577 C274.07358376 257.87877933 274.10085876 259.35505361 274.13552856 260.8311367 C274.1841826 262.95617305 274.20676748 265.08015576 274.22439575 267.20564842 C274.24534302 268.48343163 274.26629028 269.76121483 274.28787231 271.07771873 C273.83377075 274.37752342 273.83377075 274.37752342 272.42695618 276.5520153 C268.43394333 279.36295096 264.66135896 278.92989432 259.88870239 278.88545799 C258.86721887 278.89169796 257.84573534 278.89793792 256.79329777 278.90436697 C253.35994151 278.92036093 249.92728891 278.90766726 246.493927 278.89510155 C244.03679997 278.9005198 241.57967619 278.90764077 239.12255859 278.91634178 C233.13521238 278.93271441 227.14814379 278.93028133 221.16080832 278.91869122 C216.29536019 278.90966227 211.42996827 278.90843055 206.56451416 278.91278648 C205.8723707 278.91339942 205.18022724 278.91401235 204.46710974 278.91464385 C203.06108878 278.91592274 201.65506784 278.91721959 200.24904692 278.91853422 C187.06086578 278.92994385 173.87279581 278.91682036 160.6846329 278.89533275 C149.36547473 278.87746139 138.04648064 278.88056539 126.72732544 278.8990078 C113.5867502 278.9204078 100.44627242 278.92884518 87.30568218 278.91655874 C85.90479725 278.91528453 84.5039123 278.91402705 83.10302734 278.91278648 C82.41374258 278.91216938 81.72445781 278.91155228 81.01428562 278.91091648 C76.15397019 278.90746095 71.29371651 278.91329625 66.43341064 278.9227047 C59.8933114 278.93508639 53.3534746 278.92628705 46.81338882 278.90312767 C44.40913535 278.89782601 42.00485586 278.89937907 39.60061264 278.90817833 C36.32633178 278.91905948 33.05305543 278.90545928 29.77883911 278.88545799 C28.34130327 278.89884232 28.34130327 278.89884232 26.8747263 278.91249704 C20.48568809 278.83644949 20.48568809 278.83644949 17.24058533 276.5520153 C15.19371959 273.38820608 15.38181766 270.94666192 15.44314575 267.20564842 C15.44880554 266.52323082 15.45446533 265.84081322 15.46029663 265.13771629 C15.48261439 262.96692581 15.53279568 260.79781136 15.58377075 258.62752342 C15.603842 257.15228692 15.62209169 255.67702443 15.63845825 254.20174217 C15.68246195 250.59312841 15.75145492 246.98548961 15.83377075 243.37752342 C14.85766846 243.4010891 14.85766846 243.4010891 13.86184692 243.42513084 C10.91507651 243.48746991 7.96844477 243.52651026 5.02127075 243.56502342 C3.9971106 243.59016014 2.97295044 243.61529686 1.91775513 243.6411953 C0.44338989 243.65569725 0.44338989 243.65569725 -1.0607605 243.67049217 C-2.41971436 243.69405785 -2.41971436 243.69405785 -3.80612183 243.71809959 C-6.69280698 243.30153543 -7.3764898 242.63064777 -9.16622925 240.37752342 C-9.54342741 238.488729 -9.54342741 238.488729 -9.54654598 236.31544304 C-9.55498592 235.48575524 -9.56342586 234.65606744 -9.57212156 233.80123758 C-9.56310649 232.43418279 -9.56310649 232.43418279 -9.5539093 231.03951073 C-9.55929484 230.07126224 -9.56468038 229.10301375 -9.57022911 228.1054244 C-9.58458807 224.8463871 -9.5773854 221.58775143 -9.57028198 218.3286953 C-9.57598136 215.99817133 -9.58294392 213.66765015 -9.59107971 211.33713341 C-9.60907301 204.99636274 -9.60783126 198.65572998 -9.60213733 192.31494141 C-9.59866517 186.36080978 -9.60659892 180.40669954 -9.61349798 174.45257252 C-9.62723243 161.9411591 -9.62177852 149.42980818 -9.61031277 136.91839617 C-9.60037745 125.46509985 -9.61332446 114.011965 -9.63724696 102.55869359 C-9.66161185 90.80530831 -9.6712524 79.05199832 -9.66459423 67.29858828 C-9.66121504 60.69715869 -9.66370357 54.09586257 -9.68084526 47.49445152 C-9.69625398 41.28922979 -9.69242645 35.08431766 -9.67354012 28.87910843 C-9.66983751 26.59698549 -9.67301092 24.31483991 -9.6834259 22.03273773 C-9.69652312 18.92664114 -9.68518852 15.82158672 -9.66743469 12.71553612 C-9.6770397 11.80416625 -9.68664471 10.89279639 -9.69654077 9.95380926 C-9.68672648 9.12412146 -9.67691219 8.29443366 -9.6668005 7.43960381 C-9.66669316 6.72241944 -9.66658583 6.00523507 -9.66647524 5.26631784 C-9.16622925 3.37752342 -9.16622925 3.37752342 -7.45783287 1.64723861 C-4.74456296 0.14388961 -3.09097592 0.00165867 0 0 Z M2.83377075 13.37752342 C2.83377075 24.59752342 2.83377075 35.81752342 2.83377075 47.37752342 C96.55377075 47.37752342 190.27377075 47.37752342 286.83377075 47.37752342 C286.83377075 36.15752342 286.83377075 24.93752342 286.83377075 13.37752342 C193.11377075 13.37752342 99.39377075 13.37752342 2.83377075 13.37752342 Z M2.83377075 59.37752342 C2.83377075 116.13752342 2.83377075 172.89752342 2.83377075 231.37752342 C7.12377075 231.37752342 11.41377075 231.37752342 15.83377075 231.37752342 C15.84407822 229.44011284 15.85438568 227.50270226 15.86500549 225.50658226 C15.96257007 207.28858259 16.0652285 189.07061799 16.17311001 170.85267639 C16.22844726 161.48564603 16.28193008 152.11861187 16.33108521 142.75154686 C16.3739209 134.58961023 16.42019732 126.4277017 16.4706493 118.26580846 C16.4972552 113.94199846 16.52210839 109.61819405 16.54284477 105.29435158 C16.56239964 101.22818815 16.58653994 97.16207823 16.61426163 93.09596252 C16.62363817 91.60035929 16.63131127 90.1047443 16.63718987 88.60912323 C16.6454407 86.573536 16.66030641 84.53797873 16.67555237 82.50243187 C16.68200492 81.36125216 16.68845747 80.22007244 16.69510555 79.04431152 C16.83377075 76.37752342 16.83377075 76.37752342 17.83377075 74.37752342 C20.59734206 73.45633299 22.22023912 73.25229817 25.06764221 73.25168228 C25.93564736 73.24907453 26.80365252 73.24646679 27.69796085 73.24378002 C29.12921629 73.2471261 29.12921629 73.2471261 30.58938599 73.25053978 C31.60255355 73.24897979 32.61572111 73.2474198 33.65959072 73.24581254 C37.0705299 73.24180891 40.48142495 73.24498975 43.8923645 73.24812889 C46.3312584 73.24677457 48.7701521 73.24499446 51.20904541 73.24281883 C57.15532884 73.23872335 63.1015948 73.23933523 69.04787755 73.24223147 C73.87949429 73.2444876 78.71110749 73.24479712 83.54272461 73.24370766 C84.57325003 73.24347781 84.57325003 73.24347781 85.62459415 73.24324331 C87.02014836 73.2429236 88.41570256 73.24259938 89.81125677 73.24227072 C102.90493795 73.2394175 115.99861215 73.24270049 129.09229219 73.24807109 C140.33327032 73.25253899 151.57423812 73.25176301 162.81521606 73.24715233 C175.86126024 73.24180379 188.90729828 73.23969217 201.95334339 73.24276459 C203.34383456 73.24308315 204.73432573 73.24339752 206.12481689 73.24370766 C206.80900914 73.24386193 207.49320139 73.24401621 208.19812673 73.24417516 C213.02531515 73.24503947 217.85249968 73.24357927 222.6796875 73.2412281 C229.17372075 73.23813468 235.66773747 73.24032932 242.16176987 73.24612236 C244.55032188 73.24744873 246.93887554 73.24705792 249.32742691 73.2448597 C252.57769229 73.2421434 255.82789422 73.2455353 259.07815552 73.25053978 C260.03232581 73.24830906 260.98649611 73.24607834 261.96958065 73.24378002 C263.27158838 73.24769164 263.27158838 73.24769164 264.59989929 73.25168228 C265.35049905 73.25184463 266.1010988 73.25200699 266.87444401 73.25217426 C268.83377075 73.37752342 268.83377075 73.37752342 271.83377075 74.37752342 C273.21849282 77.14696756 272.97445846 79.40200631 272.99198914 82.50243187 C273.00667236 84.46284668 273.00667236 84.46284668 273.02165222 86.46286583 C273.02755682 87.9196068 273.03336724 89.37634815 273.03909302 90.83308983 C273.04866873 92.36046173 273.05867862 93.88783095 273.0690918 95.41519737 C273.09618024 99.56988809 273.11716844 103.72459021 273.13709378 107.87932062 C273.15892908 112.21821018 273.18632976 116.55706443 273.21315002 120.89592552 C273.26311019 129.11588563 273.30803667 137.3358653 273.35117239 145.55586374 C273.40051639 154.91246638 273.45544502 164.26903361 273.51085198 173.62560201 C273.62472305 192.87620981 273.7313528 212.12685152 273.83377075 231.37752342 C278.12377075 231.37752342 282.41377075 231.37752342 286.83377075 231.37752342 C286.83377075 174.61752342 286.83377075 117.85752342 286.83377075 59.37752342 C193.11377075 59.37752342 99.39377075 59.37752342 2.83377075 59.37752342 Z M27.83377075 85.37752342 C27.83377075 144.77752342 27.83377075 204.17752342 27.83377075 265.37752342 C105.05377075 265.37752342 182.27377075 265.37752342 261.83377075 265.37752342 C261.83377075 205.97752342 261.83377075 146.57752342 261.83377075 85.37752342 C184.61377075 85.37752342 107.39377075 85.37752342 27.83377075 85.37752342 Z " fill="#111111" transform="translate(35.166229248046875,40.62247657775879)"/>
<path d="M0 0 C1.22818451 -0.00983414 2.45636902 -0.01966827 3.72177124 -0.02980042 C5.07989779 -0.02042872 6.43802159 -0.01064942 7.79614258 -0.00050354 C9.22865327 -0.0042872 10.6611603 -0.00978763 12.09365845 -0.01687622 C15.98215138 -0.03084228 19.8702024 -0.01965329 23.75867081 -0.00316501 C27.82739869 0.01068187 31.89610082 0.00422583 35.96484375 0.0007019 C42.7976799 -0.00200051 49.63034041 0.011478 56.46313477 0.03465271 C64.36348853 0.06126272 72.26354863 0.06300971 80.16393185 0.05126435 C87.76294145 0.04048613 95.36184478 0.04667396 102.96084595 0.06081963 C106.19522614 0.06657907 109.42952857 0.06649709 112.66390991 0.06175423 C116.47250286 0.0569828 120.28077413 0.06709266 124.08930588 0.08870888 C125.48731781 0.09427471 126.88536067 0.09474388 128.28337479 0.08975601 C130.19103958 0.08380323 132.09873561 0.09814155 134.00634766 0.11352539 C135.60800529 0.11717023 135.60800529 0.11717023 137.24201965 0.12088871 C140.39069579 0.55458207 141.77657384 1.25527523 144.00317383 3.50120544 C144.52075195 6.63987732 144.52075195 6.63987732 144.53442383 10.46995544 C144.53825073 11.14667297 144.54207764 11.8233905 144.54602051 12.52061462 C144.54873914 13.94954417 144.541381 15.37852351 144.5246582 16.80735779 C144.50324247 18.9941963 144.52445569 21.17775031 144.55004883 23.36448669 C144.54740554 24.75381686 144.54228052 26.14314498 144.53442383 27.53245544 C144.52991211 28.79638123 144.52540039 30.06030701 144.52075195 31.36253357 C144.00317383 34.50120544 144.00317383 34.50120544 142.34562683 36.17314243 C139.38171266 37.85354532 137.40773436 37.88114507 134.00634766 37.8888855 C132.77816315 37.89879013 131.54997864 37.90869476 130.28457642 37.91889954 C128.92645164 37.91466157 127.56832783 37.91010372 126.21020508 37.90525818 C124.77769437 37.91096136 123.3451882 37.91792543 121.91268921 37.92605591 C118.02428628 37.94400706 114.13610878 37.94281548 110.24767685 37.93711352 C107.00199792 37.93402489 103.75636248 37.9401104 100.51068974 37.94615227 C92.85482736 37.96020192 85.19907657 37.9586322 77.54321289 37.94725037 C69.6428192 37.93576461 61.74276479 37.94985132 53.84241581 37.97664684 C47.06013884 37.99878963 40.27796848 38.00544457 33.49565792 37.99957043 C29.44450188 37.9961967 25.39356342 37.99864345 21.34243774 38.01582146 C17.53379788 38.03126638 13.72566157 38.02736293 9.91704178 38.00851631 C8.5190198 38.00482375 7.12096071 38.00795839 5.72297287 38.0184021 C3.81535322 38.03156555 1.90760392 38.01768517 0 38.00241089 C-1.06777176 38.0022016 -2.13554352 38.00199232 -3.235672 38.0017767 C-6.69639154 37.37438083 -7.8781463 36.26144502 -9.99682617 33.50120544 C-10.5144043 30.44847107 -10.5144043 30.44847107 -10.52807617 26.90745544 C-10.53323242 25.62999451 -10.53838867 24.35253357 -10.54370117 23.03636169 C-10.53532227 22.3739447 -10.52694336 21.71152771 -10.51831055 21.02903748 C-10.49688567 19.00682097 -10.51812356 16.98815583 -10.54370117 14.96604919 C-10.53854492 13.68858826 -10.53338867 12.41112732 -10.52807617 11.09495544 C-10.52356445 9.92642029 -10.51905273 8.75788513 -10.5144043 7.55393982 C-9.46687841 1.37551353 -5.84218529 0.00114507 0 0 Z M2.00317383 13.50120544 C2.00317383 17.13120544 2.00317383 20.76120544 2.00317383 24.50120544 C44.90317383 24.50120544 87.80317383 24.50120544 132.00317383 24.50120544 C132.00317383 20.87120544 132.00317383 17.24120544 132.00317383 13.50120544 C89.10317383 13.50120544 46.20317383 13.50120544 2.00317383 13.50120544 Z " fill="#161616" transform="translate(117.996826171875,138.49879455566406)"/>
<path d="M0 0 C1.10794922 -0.01260864 2.21589844 -0.02521729 3.35742188 -0.03820801 C4.54916016 -0.03011108 5.74089844 -0.02201416 6.96875 -0.01367188 C8.19658203 -0.01749878 9.42441406 -0.02132568 10.68945312 -0.02526855 C13.28516459 -0.02799029 15.88090336 -0.02061099 18.4765625 -0.00390625 C22.45374599 0.01749738 26.42912282 -0.0037015 30.40625 -0.02929688 C32.92708733 -0.02665365 35.44792353 -0.02152878 37.96875 -0.01367188 C39.16048828 -0.0217688 40.35222656 -0.02986572 41.58007812 -0.03820801 C43.24200195 -0.01929504 43.24200195 -0.01929504 44.9375 0 C45.91138672 0.00318237 46.88527344 0.00636475 47.88867188 0.00964355 C51.26614488 0.67455958 52.43820284 1.76707363 54.46875 4.51757812 C54.97668457 6.90783691 54.97668457 6.90783691 54.98632812 9.58984375 C54.99893677 10.59768921 55.01154541 11.60553467 55.02453613 12.6439209 C55.01643921 13.72629028 55.00834229 14.80865967 55 15.92382812 C55.00574036 17.59910583 55.00574036 17.59910583 55.01159668 19.30822754 C55.01431756 21.66854758 55.0069442 24.02889769 54.99023438 26.38916016 C54.96882884 30.00426387 54.99003178 33.61738005 55.015625 37.23242188 C55.01298176 39.52539502 55.00785686 41.81836692 55 44.11132812 C55.00809692 45.19369751 55.01619385 46.27606689 55.02453613 47.39123535 C55.01192749 48.39908081 54.99931885 49.40692627 54.98632812 50.4453125 C54.98314575 51.33037476 54.97996338 52.21543701 54.97668457 53.12731934 C54.2851783 56.38143714 53.12318913 57.54933483 50.46875 59.51757812 C47.88867187 60.0255127 47.88867187 60.0255127 44.9375 60.03515625 C43.82955078 60.04776489 42.72160156 60.06037354 41.58007812 60.07336426 C40.38833984 60.06526733 39.19660156 60.05717041 37.96875 60.04882812 C36.12700195 60.05456848 36.12700195 60.05456848 34.24804688 60.0604248 C31.65233541 60.06314654 29.05659664 60.05576724 26.4609375 60.0390625 C22.48375401 60.01765887 18.50837718 60.03885775 14.53125 60.06445312 C12.01041267 60.0618099 9.48957647 60.05668503 6.96875 60.04882812 C5.77701172 60.05692505 4.58527344 60.06502197 3.35742188 60.07336426 C1.69549805 60.05445129 1.69549805 60.05445129 0 60.03515625 C-0.97388672 60.03197388 -1.94777344 60.0287915 -2.95117188 60.0255127 C-6.32864488 59.36059667 -7.50070284 58.26808262 -9.53125 55.51757812 C-10.03918457 53.12731934 -10.03918457 53.12731934 -10.04882812 50.4453125 C-10.06143677 49.43746704 -10.07404541 48.42962158 -10.08703613 47.39123535 C-10.07893921 46.30886597 -10.07084229 45.22649658 -10.0625 44.11132812 C-10.0663269 42.99447632 -10.07015381 41.87762451 -10.07409668 40.72692871 C-10.07681756 38.36660867 -10.0694442 36.00625856 -10.05273438 33.64599609 C-10.03132884 30.03089238 -10.05253178 26.4177762 -10.078125 22.80273438 C-10.07548176 20.50976123 -10.07035686 18.21678933 -10.0625 15.92382812 C-10.07059692 14.84145874 -10.07869385 13.75908936 -10.08703613 12.6439209 C-10.07442749 11.63607544 -10.06181885 10.62822998 -10.04882812 9.58984375 C-10.04564575 8.70478149 -10.04246338 7.81971924 -10.03918457 6.90783691 C-8.85553332 1.33776359 -5.25947966 0.01718642 0 0 Z M2.46875 13.51757812 C2.46875 24.40757812 2.46875 35.29757813 2.46875 46.51757812 C15.66875 46.51757812 28.86875 46.51757812 42.46875 46.51757812 C42.46875 35.62757813 42.46875 24.73757812 42.46875 13.51757812 C29.26875 13.51757812 16.06875 13.51757812 2.46875 13.51757812 Z " fill="#161616" transform="translate(96.53125,187.482421875)"/>
<path d="M0 0 C1.07917427 -0.00935994 1.07917427 -0.00935994 2.18015003 -0.01890898 C4.5855235 -0.03483547 6.98988309 -0.02223688 9.39526367 -0.00964355 C11.12186269 -0.01506485 12.84845709 -0.02218756 14.57504272 -0.03088379 C19.2609987 -0.04911919 23.94660241 -0.04204874 28.63256454 -0.02936745 C33.53630269 -0.01924091 38.44001067 -0.02863216 43.34375 -0.03491211 C51.57874975 -0.04218952 59.81360602 -0.03259834 68.04858398 -0.0135498 C77.56957784 0.00821911 87.09022908 0.00116781 96.61121464 -0.02085543 C104.78545343 -0.03900674 112.95958908 -0.04156906 121.13384151 -0.03110075 C126.01609348 -0.02486435 130.8981844 -0.02403424 135.78042603 -0.0372467 C140.37044947 -0.04880067 144.96003115 -0.04078784 149.55000687 -0.01766968 C151.23463838 -0.01238015 152.91930707 -0.01390056 154.6039238 -0.02272034 C156.90360619 -0.03365033 159.20187271 -0.01994493 161.50146484 0 C163.43163704 0.00226215 163.43163704 0.00226215 165.40080261 0.00457001 C169.34194742 0.59677126 171.04660381 1.60842502 173.75073242 4.50793457 C173.75073242 8.13293457 173.75073242 8.13293457 172.75073242 11.50793457 C169.0233138 13.99288032 167.11490121 13.76391376 162.65931702 13.77536011 C161.93270369 13.77989122 161.20609035 13.78442233 160.45745844 13.78909075 C158.01617116 13.80177821 155.57510572 13.80011162 153.13378906 13.79846191 C151.38616142 13.80444441 149.63853642 13.81124931 147.89091492 13.81881714 C143.13889534 13.83651159 138.38694775 13.84117393 133.63489842 13.84244871 C129.6710186 13.84434582 125.70715561 13.85170109 121.74328226 13.8587929 C112.39362483 13.87508715 103.04400593 13.87996087 93.69433594 13.87854004 C84.04160295 13.87733796 74.38909332 13.89845057 64.73641688 13.93002737 C56.45524766 13.95615467 48.17415155 13.96690885 39.89294142 13.96562922 C34.94415818 13.96511859 29.99557341 13.9708575 25.04683113 13.99198532 C20.39367555 14.01130838 15.74090901 14.01153305 11.08773994 13.99695206 C9.3784885 13.99485554 7.66921309 13.9996148 5.9600029 14.01167297 C3.62925112 14.02705304 1.29985298 14.01786691 -1.03086853 14.00241089 C-2.9884429 14.00404519 -2.9884429 14.00404519 -4.98556423 14.00571251 C-8.79287802 13.42502345 -9.97540216 12.55890034 -12.24926758 9.50793457 C-12.81176758 7.00793457 -12.81176758 7.00793457 -12.24926758 4.50793457 C-8.31516689 0.49366762 -5.52645898 0.00647699 0 0 Z " fill="#272727" transform="translate(99.249267578125,256.4920654296875)"/>
<path d="M0 0 C1.103229 -0.00701996 1.103229 -0.00701996 2.22874546 -0.01418173 C4.70012355 -0.02617451 7.1709515 -0.01665808 9.64233398 -0.00723267 C11.4112887 -0.01129648 13.18024088 -0.01663728 14.94918823 -0.02316284 C19.75903902 -0.03686496 24.56869723 -0.03152587 29.37855148 -0.02202559 C34.40601887 -0.01444396 39.43346948 -0.02147042 44.4609375 -0.02618408 C52.90457121 -0.03164601 61.34812627 -0.02443856 69.79174805 -0.01016235 C79.56148742 0.00616499 89.33103899 0.00087679 99.10077381 -0.01564157 C107.48044603 -0.02924399 115.86006163 -0.03118219 124.23974133 -0.02332556 C129.24824796 -0.0186422 134.25666624 -0.01804238 139.26516724 -0.02793503 C143.97327617 -0.03658434 148.68114237 -0.03062015 153.38922501 -0.01325226 C155.11984987 -0.0092765 156.85049507 -0.01043999 158.58111191 -0.01704025 C160.9383047 -0.0252031 163.29471305 -0.01499874 165.65185547 0 C166.34144128 -0.00669217 167.03102709 -0.01338433 167.74150944 -0.02027929 C170.53866482 0.01439293 172.42108688 0.11167268 174.78211975 1.68210411 C175.82592773 3.38095093 175.82592773 3.38095093 175.70092773 6.94345093 C174.82592773 10.38095093 174.82592773 10.38095093 171.82592773 12.38095093 C168.68806553 12.63821983 168.68806553 12.63821983 164.73451233 12.64837646 C164.007899 12.65290758 163.28128567 12.65743869 162.53265375 12.66210711 C160.09136647 12.67479456 157.65030103 12.67312797 155.20898438 12.67147827 C153.46135673 12.67746077 151.71373173 12.68426567 149.96611023 12.6918335 C145.21409066 12.70952794 140.46214307 12.71419029 135.71009374 12.71546507 C131.74621391 12.71736218 127.78235093 12.72471745 123.81847757 12.73180926 C114.46882014 12.74810351 105.11920124 12.75297722 95.76953125 12.7515564 C86.11679826 12.75035432 76.46428863 12.77146693 66.81161219 12.80304372 C58.53044297 12.82917103 50.24934687 12.8399252 41.96813673 12.83864558 C37.01935349 12.83813495 32.07076872 12.84387386 27.12202644 12.86500168 C22.46887087 12.88432474 17.81610432 12.8845494 13.16293526 12.86996841 C11.45368382 12.86787189 9.7444084 12.87263116 8.03519821 12.88468933 C5.70444643 12.9000694 3.37504829 12.89088326 1.04432678 12.87542725 C-0.91324759 12.87706155 -0.91324759 12.87706155 -2.91036892 12.87872887 C-6.71633172 12.29824586 -7.90964852 11.43991968 -10.17407227 8.38095093 C-10.65353922 5.5726445 -10.679462 4.14376075 -9.09510803 1.75241661 C-6.23199202 -0.29161892 -3.38890485 -0.03288802 0 0 Z " fill="#0E0E0E" transform="translate(97.174072265625,280.6190490722656)"/>
<path d="M0 0 C1.31012306 -0.00845947 1.31012306 -0.00845947 2.64671326 -0.01708984 C4.07982346 -0.01101715 4.07982346 -0.01101715 5.54188538 -0.00482178 C6.55026962 -0.00832642 7.55865387 -0.01183105 8.59759521 -0.01544189 C11.93855121 -0.02426076 15.27929628 -0.01840899 18.62025452 -0.01165771 C20.93809042 -0.01300442 23.25592605 -0.014945 25.57376099 -0.01745605 C30.43523341 -0.02040762 35.29663241 -0.01610898 40.15809631 -0.0067749 C46.39381482 0.00461324 52.62936104 -0.00193568 58.8650732 -0.01391983 C63.65282492 -0.02114293 68.44053571 -0.0188483 73.22828865 -0.01366425 C75.52762942 -0.01232867 77.82697389 -0.01397225 80.12631035 -0.01862335 C83.33915434 -0.02369519 86.55171851 -0.01596857 89.76454163 -0.00482178 C91.19461548 -0.01089447 91.19461548 -0.01089447 92.65357971 -0.01708984 C93.52981491 -0.0114502 94.40605011 -0.00581055 95.30883789 0 C96.06818603 0.00075405 96.82753416 0.0015081 97.60989285 0.002285 C100.08177951 0.29741061 101.64783991 0.86954584 103.71791077 2.25396729 C104.71791077 5.62896729 104.71791077 5.62896729 104.71791077 9.25396729 C103.34474182 11.44818115 103.34474182 11.44818115 100.71791077 13.25396729 C97.37836407 13.85495899 94.07412562 13.80006529 90.68861389 13.77154541 C89.67033005 13.77855469 88.6520462 13.78556396 87.60290527 13.79278564 C84.23471358 13.81040033 80.8673611 13.79873005 77.49916077 13.78521729 C75.16033263 13.78791119 72.82150558 13.79179275 70.48268127 13.79681396 C65.58002565 13.80271375 60.67766144 13.79413027 55.77503967 13.77545166 C49.48648635 13.75266225 43.19861585 13.76578271 36.91008759 13.78974152 C32.08026471 13.80418628 27.25060409 13.79959948 22.42077637 13.78923035 C20.10189737 13.78655942 17.78300372 13.7898456 15.46414185 13.79914856 C12.22476608 13.809292 8.98650058 13.79384283 5.74720764 13.77154541 C4.78604538 13.77964233 3.82488312 13.78773926 2.83459473 13.79608154 C-3.61226117 13.7137495 -3.61226117 13.7137495 -6.91282654 11.44818115 C-8.28208923 9.25396729 -8.28208923 9.25396729 -8.21958923 5.62896729 C-6.87063467 0.77273085 -4.69840446 0.00466795 0 0 Z " fill="#090909" transform="translate(168.28208923339844,233.74603271484375)"/>
<path d="M0 0 C0.88182953 -0.00852997 1.76365906 -0.01705994 2.67221069 -0.02584839 C3.63696823 -0.02494202 4.60172577 -0.02403564 5.59571838 -0.02310181 C6.6138562 -0.02981903 7.63199402 -0.03653625 8.6809845 -0.04345703 C12.05438587 -0.06249115 15.42758889 -0.06636385 18.80104065 -0.06851196 C21.14129723 -0.07493567 23.48155299 -0.0816637 25.82180786 -0.08868408 C30.73035037 -0.10067009 35.63882242 -0.1043635 40.54737854 -0.10317993 C46.84375744 -0.10297657 53.13968586 -0.1302914 59.43595791 -0.16472435 C64.27004073 -0.18693677 69.10401413 -0.19101922 73.93814278 -0.18996048 C76.25982785 -0.19232449 78.58151558 -0.2011927 80.90315056 -0.21662521 C84.14735052 -0.23617214 87.39056582 -0.23049138 90.63478088 -0.21841431 C91.59751419 -0.22965332 92.5602475 -0.24089233 93.55215454 -0.25247192 C100.01178636 -0.19121635 100.01178636 -0.19121635 103.30776978 2.07122803 C104.6799469 4.26742554 104.6799469 4.26742554 104.6799469 7.89242554 C103.6799469 11.26742554 103.6799469 11.26742554 101.89259338 12.46164894 C99.53078013 13.32174741 97.78440671 13.52376733 95.27760315 13.53485107 C94.40281311 13.54338104 93.52802307 13.55191101 92.62672424 13.56069946 C91.67491272 13.55979309 90.7231012 13.55888672 89.7424469 13.55795288 C88.73391663 13.5646701 87.72538635 13.57138733 86.68629456 13.57830811 C83.35079532 13.59731452 80.01549692 13.60121335 76.6799469 13.60336304 C74.3635398 13.609788 72.04713352 13.61651613 69.73072815 13.62353516 C64.87524025 13.63551375 60.01982354 13.63921526 55.1643219 13.63803101 C48.9363511 13.63782753 42.70883516 13.66515704 36.48097229 13.69957542 C31.6975036 13.72178647 26.91414549 13.72587036 22.13063049 13.72481155 C19.83406503 13.72717521 17.53749687 13.73604143 15.24098206 13.75147629 C12.03281019 13.77102309 8.82563403 13.76534285 5.6174469 13.75326538 C4.18972961 13.7701239 4.18972961 13.7701239 2.73316956 13.787323 C-3.65258399 13.72608552 -3.65258399 13.72608552 -6.9450531 11.46362305 C-8.3200531 9.26742554 -8.3200531 9.26742554 -8.2575531 5.64242554 C-6.90318547 0.76670207 -4.71104637 0.02060423 0 0 Z " fill="#1A1A1A" transform="translate(168.32005310058594,210.73257446289063)"/>
<path d="M0 0 C1.01828384 -0.00700928 2.03656769 -0.01401855 3.08570862 -0.02124023 C6.45390031 -0.03885492 9.82125279 -0.02718464 13.18945312 -0.01367188 C15.52828127 -0.01636578 17.86710832 -0.02024734 20.20593262 -0.02526855 C25.10858824 -0.03116834 30.01095245 -0.02258486 34.91357422 -0.00390625 C41.20212754 0.01888316 47.48999804 0.0057627 53.77852631 -0.01819611 C58.60834918 -0.03264087 63.4380098 -0.02805407 68.26783752 -0.01768494 C70.58671652 -0.01501401 72.90561018 -0.01830019 75.22447205 -0.02760315 C78.46384781 -0.03774659 81.70211331 -0.02229742 84.94140625 0 C86.38314964 -0.01214539 86.38314964 -0.01214539 87.85401917 -0.02453613 C94.33617484 0.05824671 94.33617484 0.05824671 97.56237793 2.39367676 C98.97070312 4.51757813 98.97070312 4.51757813 99.53320312 7.01757812 C98.97070312 9.51757812 98.97070312 9.51757812 97.05799866 11.64346313 C92.68410596 14.29859536 89.03659938 14.06357296 84.01147461 14.00341797 C82.51309052 14.00911301 82.51309052 14.00911301 80.98443604 14.0149231 C77.68656903 14.02232518 74.38958542 14.00095161 71.09179688 13.97851562 C68.79924117 13.97613108 66.50668348 13.9752259 64.21412659 13.97573853 C59.41158805 13.97261117 54.60934818 13.95604938 49.80688477 13.92919922 C43.6474298 13.89520057 37.48830273 13.88757124 31.32876492 13.88908958 C26.5959001 13.88854607 21.86310713 13.87758213 17.13026619 13.8630867 C14.85884202 13.85671782 12.58740971 13.8527796 10.3159771 13.85129929 C7.14402233 13.8469684 3.97241694 13.82947216 0.80053711 13.80810547 C-0.14035263 13.80901184 -1.08124237 13.80991821 -2.05064392 13.81085205 C-3.34804001 13.7980571 -3.34804001 13.7980571 -4.67164612 13.78500366 C-5.42102227 13.78165197 -6.17039843 13.77830029 -6.94248295 13.77484703 C-9.39983001 13.47189765 -10.96873943 12.89219494 -13.02929688 11.51757812 C-14.02929688 8.14257812 -14.02929688 8.14257812 -14.02929688 4.51757812 C-10.67044578 -0.84959659 -5.68873016 -0.04792241 0 0 Z " fill="#262626" transform="translate(174.029296875,187.482421875)"/>
<path d="M0 0 C1.05960938 -0.00386719 2.11921875 -0.00773437 3.2109375 -0.01171875 C4.86996094 0.00568359 4.86996094 0.00568359 6.5625 0.0234375 C8.22152344 0.00603516 8.22152344 0.00603516 9.9140625 -0.01171875 C10.97367188 -0.00785156 12.03328125 -0.00398438 13.125 0 C14.58099609 0.00507568 14.58099609 0.00507568 16.06640625 0.01025391 C18.5625 0.3984375 18.5625 0.3984375 20.41015625 1.70068359 C21.5625 3.3984375 21.5625 3.3984375 21.4375 6.9609375 C20.5625 10.3984375 20.5625 10.3984375 17.5625 12.3984375 C13.74343141 12.83471412 9.90378768 12.72263448 6.0625 12.7109375 C4.47501953 12.73510742 4.47501953 12.73510742 2.85546875 12.75976562 C1.84097656 12.76041016 0.82648438 12.76105469 -0.21875 12.76171875 C-1.6119043 12.76619019 -1.6119043 12.76619019 -3.03320312 12.77075195 C-5.4375 12.3984375 -5.4375 12.3984375 -7.24023438 11.06323242 C-9.10009839 8.47709606 -8.82344447 6.48599323 -8.4375 3.3984375 C-6.06365285 0.06388735 -3.95039446 0.0137713 0 0 Z " fill="#121212" transform="translate(154.4375,64.6015625)"/>
<path d="M0 0 C1.01892334 0.00821777 2.03784668 0.01643555 3.08764648 0.02490234 C4.19688477 0.02876953 5.30612305 0.03263672 6.44897461 0.03662109 C8.18630859 0.07335937 8.18630859 0.07335937 9.95874023 0.11083984 C11.701875 0.11277344 11.701875 0.11277344 13.48022461 0.11474609 C22.11556894 0.20516855 22.11556894 0.20516855 24.39624023 2.48583984 C24.95972629 8.68418641 24.95972629 8.68418641 23.20288086 11.18359375 C20.7721508 12.93569025 19.15818951 12.87341775 16.17749023 12.88427734 C15.16299805 12.88814453 14.14850586 12.89201172 13.10327148 12.89599609 C12.04495117 12.88439453 10.98663086 12.87279297 9.89624023 12.86083984 C8.83791992 12.87244141 7.77959961 12.88404297 6.68920898 12.89599609 C5.1674707 12.89019531 5.1674707 12.89019531 3.61499023 12.88427734 C2.6862207 12.88089355 1.75745117 12.87750977 0.80053711 12.87402344 C-2.03508602 12.41620045 -2.89427265 11.75043466 -4.60375977 9.48583984 C-5.47875977 7.04833984 -5.47875977 7.04833984 -5.60375977 4.48583984 C-4.04922786 1.57046637 -3.2997504 0.61570589 0 0 Z " fill="#131313" transform="translate(104.603759765625,64.51416015625)"/>
<path d="M0 0 C1.10601562 -0.01998047 2.21203125 -0.03996094 3.3515625 -0.06054688 C4.94097656 -0.05958008 4.94097656 -0.05958008 6.5625 -0.05859375 C7.53316406 -0.06044678 8.50382812 -0.0622998 9.50390625 -0.06420898 C12 0.4375 12 0.4375 13.84765625 2.27319336 C15.48524907 5.34888412 14.99592235 7.1651837 14 10.4375 C9.42734569 13.48593621 4.87785396 12.76637593 -0.5 12.75 C-2.08748047 12.77416992 -2.08748047 12.77416992 -3.70703125 12.79882812 C-4.72152344 12.79947266 -5.73601563 12.80011719 -6.78125 12.80078125 C-8.1744043 12.80525269 -8.1744043 12.80525269 -9.59570312 12.80981445 C-12 12.4375 -12 12.4375 -13.80273438 11.10229492 C-15.66259839 8.51615856 -15.38594447 6.52505573 -15 3.4375 C-11.52152792 -1.44226251 -5.39586187 -0.03458886 0 0 Z " fill="#0A0A0A" transform="translate(68,64.5625)"/>
<path d="M0 0 C1.22688034 -0.00571014 2.45376068 -0.01142029 3.71781921 -0.01730347 C5.08479299 -0.01854887 6.45176688 -0.01967396 7.81874084 -0.02069092 C9.25257495 -0.02531814 10.68640783 -0.03034267 12.12023926 -0.03573608 C16.02102383 -0.04886984 19.92179118 -0.05530673 23.8225944 -0.05974674 C26.25788719 -0.0626754 28.69317524 -0.06677977 31.12846565 -0.07125092 C38.74292573 -0.08492731 46.35737501 -0.09459374 53.97184652 -0.09845281 C62.77125292 -0.10293656 71.57050422 -0.1204985 80.36986345 -0.1494534 C87.16565139 -0.17104187 93.96139559 -0.18115554 100.75721747 -0.18249393 C104.81896869 -0.18354383 108.88057413 -0.18949102 112.94228935 -0.20731354 C116.76147295 -0.22374579 120.58040044 -0.22597355 124.3996067 -0.21717453 C125.80289265 -0.21640159 127.20619209 -0.22078062 128.60944366 -0.23063278 C130.52189564 -0.2432748 132.43444968 -0.23571213 134.34692383 -0.22705078 C135.41821502 -0.22851734 136.48950621 -0.2299839 137.59326077 -0.2314949 C140.55753526 0.18554398 141.44589413 0.80320837 143.23695374 3.14044189 C142.471813 3.1395201 141.70667227 3.13859831 140.91834545 3.13764858 C122.31584201 3.11558109 103.71334118 3.09902434 85.11082745 3.08862972 C76.11486021 3.08346959 67.1189017 3.07643224 58.12294006 3.06500244 C50.28366983 3.05504701 42.44440592 3.04858641 34.60512954 3.0463534 C30.45285721 3.04504776 26.30060296 3.04197112 22.14833641 3.03471184 C18.24224814 3.02793809 14.33618545 3.02582771 10.43009186 3.02733421 C8.99456201 3.0270585 7.55903133 3.02506139 6.12350655 3.02123642 C4.16712178 3.01627814 2.21072338 3.01804927 0.2543335 3.02018738 C-0.84167836 3.01926558 -1.93769022 3.01834379 -3.06691456 3.01739407 C-5.86280492 3.02222404 -5.86280492 3.02222404 -8.76304626 4.14044189 C-8.43304626 3.15044189 -8.10304626 2.16044189 -7.76304626 1.14044189 C-5.07774193 -0.20221027 -3.00803031 0.00835536 0 0 Z " fill="#6F6F6F" transform="translate(117.76304626464844,138.85955810546875)"/>
<path d="M0 0 C1.51279541 -0.00569504 1.51279541 -0.00569504 3.05615234 -0.01150513 C6.39191729 -0.01891822 9.72681237 0.00248322 13.0625 0.02490234 C15.37890521 0.02728641 17.69531237 0.02819217 20.01171875 0.02767944 C24.86731057 0.03080877 29.72260739 0.04738466 34.578125 0.07421875 C40.80598902 0.10819854 47.03352875 0.11584738 53.26147461 0.11432838 C58.04495344 0.11487193 62.8283612 0.12583674 67.61181641 0.14033127 C69.90836041 0.14670114 72.20491248 0.1506386 74.50146484 0.15211868 C77.70944975 0.1564496 80.91708919 0.1739465 84.125 0.1953125 C85.07681152 0.19440613 86.02862305 0.19349976 87.00927734 0.19256592 C88.3214624 0.20536087 88.3214624 0.20536087 89.66015625 0.21841431 C90.79723022 0.22344184 90.79723022 0.22344184 91.95727539 0.22857094 C94.42828985 0.53054118 95.99791501 1.09126379 98.0625 2.48583984 C98.9375 5.98583984 98.9375 5.98583984 99.0625 9.48583984 C98.4025 10.14583984 97.7425 10.80583984 97.0625 11.48583984 C97.0625 8.84583984 97.0625 6.20583984 97.0625 3.48583984 C83.12870728 3.46250936 69.19491757 3.44492635 55.26110935 3.43402767 C48.7918232 3.42879816 42.32255011 3.42169928 35.85327148 3.41040039 C29.615797 3.39957392 23.37833513 3.39356352 17.14085197 3.3909626 C14.75529723 3.38910792 12.36974321 3.38548648 9.9841938 3.38010979 C6.65554409 3.37290255 3.32694721 3.37184877 -0.00170898 3.37231445 C-0.99864273 3.36871918 -1.99557648 3.3651239 -3.02272034 3.36141968 C-3.92440948 3.36279434 -4.82609863 3.36416901 -5.75511169 3.36558533 C-6.9373112 3.36420264 -6.9373112 3.36420264 -8.14339352 3.36279202 C-9.96071568 3.29003329 -9.96071568 3.29003329 -10.9375 4.48583984 C-11.18483137 8.62860859 -11.18483137 8.62860859 -9.9375 12.48583984 C-10.9275 12.15583984 -11.9175 11.82583984 -12.9375 11.48583984 C-14.38567714 5.21040559 -14.38567714 5.21040559 -12.57421875 2.28182983 C-8.53968812 -0.46627389 -4.77579642 -0.05639272 0 0 Z " fill="#6C6C6C" transform="translate(173.9375,233.51416015625)"/>
<path d="M0 0 C3.93725326 -0.11594584 7.87406923 -0.18716464 11.8125 -0.25 C12.93205078 -0.28351563 14.05160156 -0.31703125 15.20507812 -0.3515625 C16.27822266 -0.36445312 17.35136719 -0.37734375 18.45703125 -0.390625 C19.9416687 -0.4220459 19.9416687 -0.4220459 21.45629883 -0.45410156 C24 0 24 0 25.8659668 1.82128906 C27.43414747 4.83408655 26.80438392 6.78246432 26 10 C24.5393715 7.35261084 24 6.10551666 24 3 C21.44276771 1.72138385 19.63262898 1.88663391 16.7734375 1.90234375 C15.2265625 1.90717773 15.2265625 1.90717773 13.6484375 1.91210938 C12.56820312 1.92048828 11.48796875 1.92886719 10.375 1.9375 C9.28703125 1.94201172 8.1990625 1.94652344 7.078125 1.95117188 C4.38536211 1.96298224 1.69270812 1.97945222 -1 2 C-0.67 1.34 -0.34 0.68 0 0 Z " fill="#3C3C3C" transform="translate(56,65)"/>
<path d="M0 0 C1.32 0.33 2.64 0.66 4 1 C3.01 1.66 2.02 2.32 1 3 C0.74339906 6.07921132 0.60568496 8.21136993 2 11 C1.01 10.67 0.02 10.34 -1 10 C-2.25 3.375 -2.25 3.375 0 0 Z " fill="#4C4C4C" transform="translate(162,235)"/>
<path d="M0 0 C5.28 0 10.56 0 16 0 C16 0.33 16 0.66 16 1 C15.02417969 1.06058594 14.04835938 1.12117187 13.04296875 1.18359375 C11.13451172 1.30927734 11.13451172 1.30927734 9.1875 1.4375 C7.92292969 1.51871094 6.65835938 1.59992188 5.35546875 1.68359375 C2.00818107 1.87184547 2.00818107 1.87184547 -1 3 C-0.67 2.01 -0.34 1.02 0 0 Z " fill="#373737" transform="translate(110,140)"/>
</svg>
