<?xml version="1.0" encoding="UTF-8"?>
<svg version="1.1" xmlns="http://www.w3.org/2000/svg" width="512" height="512">
<path d="M0 0 C23.37847519 20.07798458 38.92291968 45.5540893 41.375 76.75 C43.02123257 103.48800316 35.15391356 127.58162966 20.375 149.75 C21.07496094 149.98847656 21.77492188 150.22695313 22.49609375 150.47265625 C33.00055434 155.13338707 42.12459382 164.87461228 50.375 172.75 C51.22835938 173.55050781 52.08171875 174.35101563 52.9609375 175.17578125 C92.09756533 212.89262605 114.28991688 271.97627444 115.65625 325.64453125 C115.70521205 328.36716941 115.73100237 331.0895068 115.75 333.8125 C115.76401855 335.10381836 115.77803711 336.39513672 115.79248047 337.72558594 C115.78619629 338.94149414 115.77991211 340.15740234 115.7734375 341.41015625 C115.77005371 342.48918213 115.76666992 343.56820801 115.76318359 344.67993164 C114.99350749 350.76714988 111.97990017 354.86141764 107.375 358.75 C100.26599942 363.26385182 94.19051397 363.31667968 85.90075684 363.25793457 C84.53423827 363.26254823 83.16772467 363.26890426 81.80122137 363.27684355 C78.060684 363.2934965 74.32055638 363.28530914 70.58001781 363.27289867 C66.54040336 363.26383386 62.50085848 363.27782499 58.46125793 363.28881836 C50.55343516 363.30659293 42.64576436 363.30276835 34.73793566 363.2911678 C28.31035976 363.28212956 21.88282641 363.28091116 15.45524597 363.28526306 C14.08236967 363.28618246 14.08236967 363.28618246 12.68175849 363.28712043 C10.8223696 363.28839935 8.96298072 363.2896962 7.10359186 363.2910108 C-10.32668096 363.30241348 -27.75686959 363.28930778 -45.1871286 363.26780933 C-60.13895471 363.24993863 -75.0906566 363.25304283 -90.04248047 363.27148438 C-107.4109233 363.29289658 -124.77929237 363.30131488 -142.14774656 363.28903532 C-144.00024635 363.28776114 -145.85274616 363.28650366 -147.70524597 363.28526306 C-148.61668087 363.28464596 -149.52811577 363.28402886 -150.46716991 363.28339306 C-156.88607503 363.27994121 -163.30493331 363.28576494 -169.72383118 363.29518127 C-177.54771222 363.30640652 -185.37143277 363.30335016 -193.19529545 363.2820583 C-197.1862071 363.27155493 -201.17685126 363.26741375 -205.16776085 363.28065491 C-208.82324938 363.29259966 -212.47822323 363.28598255 -216.13366526 363.2647447 C-218.07789256 363.25818058 -220.02215575 363.27119618 -221.96634531 363.28497362 C-229.89921704 363.21388445 -235.46729505 362.33782648 -241.6484375 357.00390625 C-242.09445313 356.44574219 -242.54046875 355.88757813 -243 355.3125 C-243.46148437 354.75691406 -243.92296875 354.20132812 -244.3984375 353.62890625 C-248.10085868 347.95736298 -247.97406184 342.65369924 -247.9375 336.0625 C-247.93258545 335.00812744 -247.9276709 333.95375488 -247.92260742 332.86743164 C-247.13723925 278.21788962 -227.52282023 220.87274119 -189.625 180.75 C-188.53743658 179.46189298 -187.45398087 178.17030466 -186.375 176.875 C-178.96938302 168.43327606 -170.45972188 161.14789562 -161.4375 154.5 C-160.78974609 154.02199951 -160.14199219 153.54399902 -159.47460938 153.05151367 C-154.88737184 149.75 -154.88737184 149.75 -152.625 149.75 C-153.20507812 148.82960938 -153.78515625 147.90921875 -154.3828125 146.9609375 C-170.38579812 121.19685167 -177.93089385 91.11395618 -171 60.875 C-166.45456368 42.88273373 -158.07234567 26.53173448 -145.625 12.75 C-144.86574219 11.90824219 -144.10648437 11.06648438 -143.32421875 10.19921875 C-106.20172693 -28.86749523 -42.25178138 -33.34399841 0 0 Z M-113.625 42.75 C-125.10440374 56.89689339 -131.21550228 73.42902438 -129.625 91.75 C-126.73317487 109.17021606 -118.8740479 124.585167 -104.75 135.5625 C-91.06580486 145.25404968 -74.64709653 151.19962814 -57.70263672 148.43652344 C-40.12512053 145.11231119 -24.17401288 136.56935477 -13.625 121.75 C-3.80037807 105.54273076 0.02297443 88.66762304 -3.75 69.9375 C-6.5123143 59.59818341 -11.58324609 50.75063104 -18.625 42.75 C-19.23085937 42.06164062 -19.83671875 41.37328125 -20.4609375 40.6640625 C-30.83451402 29.61302792 -45.32360966 22.44076634 -60.5234375 21.51171875 C-81.16217611 20.99366883 -99.43004674 27.18830292 -113.625 42.75 Z M-124.625 183.6875 C-125.6298645 184.29658203 -125.6298645 184.29658203 -126.6550293 184.91796875 C-132.75667106 188.69569607 -138.23902714 193.00836132 -143.625 197.75 C-144.46546875 198.46929687 -145.3059375 199.18859375 -146.171875 199.9296875 C-174.31199355 224.48674748 -190.99518654 259.09697461 -199.4375 295 C-199.64455566 295.86189941 -199.85161133 296.72379883 -200.06494141 297.61181641 C-201.74854599 305.13910327 -202.05869367 311.82171139 -202.625 319.75 C-112.205 319.75 -21.785 319.75 71.375 319.75 C69.2088941 303.29940309 69.2088941 303.29940309 65.6875 287.25 C65.43258789 286.30479492 65.17767578 285.35958984 64.91503906 284.38574219 C57.33615021 257.19410152 44.82197495 231.46773419 25.3125 210.80859375 C23.60475114 208.99411058 22.0529548 207.1331053 20.5 205.1875 C12.46938567 195.76314269 1.03584836 188.11601992 -9.4375 181.625 C-10.10394531 181.20992187 -10.77039063 180.79484375 -11.45703125 180.3671875 C-14.68633211 179.447855 -16.54746294 180.50021971 -19.625 181.75 C-20.79933594 182.21277344 -21.97367188 182.67554688 -23.18359375 183.15234375 C-25.09776803 183.90829684 -27.00981351 184.66574666 -28.91210938 185.45117188 C-40.90356858 190.12580851 -53.24010538 191.28744904 -66 191.1875 C-66.67343445 191.18479095 -67.3468689 191.18208191 -68.04071045 191.17929077 C-78.74363907 191.11419705 -88.45813924 190.23226178 -98.625 186.75 C-99.25083984 186.53617676 -99.87667969 186.32235352 -100.52148438 186.10205078 C-105.49965452 184.37145875 -110.22955723 182.68029518 -114.625 179.75 C-118.68105216 179.75 -121.26123609 181.63784373 -124.625 183.6875 Z " fill="#2E3BF4" transform="translate(268.625,128.25)"/>
<path d="M0 0 C10.4337006 8.05622976 20.47902824 17.574883 27.1875 29 C27.54150879 29.60150879 27.89551758 30.20301758 28.26025391 30.82275391 C34.07068283 40.83947574 38.36593795 50.74774654 41.1875 62 C41.46352051 63.0820874 41.46352051 63.0820874 41.74511719 64.18603516 C43.45132585 71.59937493 43.57303189 78.91656209 43.5625 86.5 C43.56195618 87.16129913 43.56141235 87.82259827 43.56085205 88.50393677 C43.5195824 99.43990002 42.62824225 109.59076596 39.1875 120 C38.87401611 120.96583008 38.87401611 120.96583008 38.55419922 121.95117188 C35.14078681 132.10703262 29.92573178 141.01010354 24.1875 150 C27.32928606 153.2708237 30.44357821 156.01138256 34.1875 158.5625 C40.51507697 163.08219783 46.10799991 168.21636891 51.7109375 173.58642578 C53.00630814 174.82653755 54.31464 176.05308112 55.625 177.27734375 C70.87019717 191.89639889 82.38347205 210.43348055 92.1875 229 C92.51959473 229.61939453 92.85168945 230.23878906 93.19384766 230.87695312 C110.23395116 263.10994852 118.00040977 300.99309173 118.5625 337.1875 C118.58876465 338.23969727 118.6150293 339.29189453 118.64208984 340.37597656 C118.65903422 348.49624317 117.16845819 353.95129276 111.4375 359.8125 C102.99993062 365.49163323 95.22513665 365.46116756 85.3203125 365.43359375 C83.87596392 365.43816412 82.4316175 365.44347222 80.98727417 365.44947815 C77.96977875 365.45837715 74.95254843 365.4560238 71.93505859 365.44604492 C68.09312863 365.4345695 64.25211982 365.45476013 60.41031075 365.48396206 C57.42974154 365.50242657 54.44938883 365.50201123 51.4687767 365.49632454 C50.05357447 365.49617252 48.63835643 365.502117 47.22320938 365.51461601 C38.31665095 365.58220384 29.2129452 365.54954205 22.25442505 359.24998474 C16.83223809 353.41061306 15.72104223 347.84041397 15.875 340.0078125 C16.49581452 334.03247273 18.79508481 330.42406099 22.9375 326.1875 C29.70660727 321.63137011 35.54257203 320.55525295 43.5 320.70703125 C44.78148926 320.71339851 44.78148926 320.71339851 46.08886719 320.71989441 C48.78874682 320.73654297 51.48785011 320.77416777 54.1875 320.8125 C56.02993705 320.82756477 57.87238593 320.84125002 59.71484375 320.85351562 C64.20602339 320.88640094 68.69663056 320.93808544 73.1875 321 C67.19774681 278.75196962 53.15333012 240.04841069 23.1875 209 C22.39859375 208.14792969 21.6096875 207.29585937 20.796875 206.41796875 C8.58679716 193.58121473 -7.04496376 183.21036593 -23.640625 176.9296875 C-26.12653533 175.8655748 -27.55968562 174.62104859 -29.4375 172.6875 C-30.00726563 172.11386719 -30.57703125 171.54023438 -31.1640625 170.94921875 C-36.06687027 165.15182283 -36.5793684 160.16143267 -36.27734375 152.7265625 C-35.14863321 143.67790827 -28.81463317 138.87658187 -22.26171875 133.15625 C-9.16556918 121.6266255 -3.31461862 106.46325643 -1.5390625 89.3671875 C-0.8336042 72.92458241 -7.19172 56.53382169 -18.1875 44.4375 C-30.19962142 31.92289183 -45.32627401 25.2287105 -62.53515625 24.03515625 C-77.90724162 23.87025903 -94.59131167 28.89209683 -105.8046875 39.79296875 C-107.67048374 41.67086042 -109.45531578 43.59060565 -111.2421875 45.546875 C-115.82942332 49.92496633 -119.88901205 51.42987471 -126.1875 51.4375 C-133.94794704 51.22561066 -138.82945235 49.36502835 -144.1875 43.75 C-148.14970199 38.67579037 -149.1146876 33.71964804 -148.625 27.375 C-146.91562619 16.24507721 -138.12745315 8.5421216 -129.55859375 1.96875 C-114.83212657 -8.58905862 -99.52767629 -15.34698138 -81.8125 -19 C-80.44351563 -19.28810547 -80.44351563 -19.28810547 -79.046875 -19.58203125 C-50.86360923 -23.22407163 -23.11127565 -16.49498697 0 0 Z " fill="#2E3BF4" transform="translate(372.8125,41)"/>
</svg>
