<?xml version="1.0" standalone="no"?>
<!DOCTYPE svg PUBLIC "-//W3C//DTD SVG 20010904//EN"
 "http://www.w3.org/TR/2001/REC-SVG-20010904/DTD/svg10.dtd">
<svg version="1.0" xmlns="http://www.w3.org/2000/svg"
 width="560.000000pt" height="560.000000pt" viewBox="0 0 560.000000 560.000000"
 preserveAspectRatio="xMidYMid meet">

<g transform="translate(0.000000,560.000000) scale(0.100000,-0.100000)"
fill="#000000" stroke="none">
<path d="M2520 4014 c-195 -416 -281 -589 -295 -595 -11 -4 -292 -49 -625 -99
-333 -51 -606 -92 -606 -93 -1 -1 200 -209 447 -462 288 -296 449 -467 449
-480 0 -11 -47 -306 -105 -655 -57 -349 -103 -636 -102 -637 1 -1 253 137 560
307 l557 308 557 -308 c307 -170 559 -308 560 -307 1 1 -45 288 -102 637 -58
349 -104 644 -104 655 0 13 159 184 448 480 247 253 448 461 447 462 0 1 -273
42 -606 93 -333 50 -614 95 -625 99 -14 6 -100 178 -295 595 -151 322 -277
586 -280 586 -3 0 -129 -264 -280 -586z"/>
</g>
</svg>
