<?xml version="1.0" encoding="UTF-8"?>
<svg version="1.1" xmlns="http://www.w3.org/2000/svg" width="512" height="512">
<path d="M0 0 C2.31713263 -0.00350511 4.63426284 -0.00916807 6.9513855 -0.01681519 C13.21550208 -0.03101174 19.47917703 -0.01405448 25.74325132 0.00946999 C32.30674768 0.02962995 38.87022663 0.023697 45.43374634 0.0213623 C56.44743878 0.02052057 67.46096802 0.04100549 78.47460938 0.07324219 C89.79822093 0.10637362 101.12165346 0.12049178 112.4453125 0.11425781 C126.11421501 0.10676967 139.7830039 0.11414108 153.45189285 0.13591003 C158.66627729 0.14408447 163.88062236 0.14679353 169.09501266 0.1452179 C175.22975906 0.14433958 181.36429152 0.15854123 187.49898148 0.18444443 C189.75081597 0.19161061 192.00267321 0.19368769 194.2545166 0.19032669 C197.32610956 0.18661628 200.39707659 0.20134438 203.46859741 0.2208252 C204.36119872 0.21549727 205.25380004 0.21016934 206.17344987 0.20467997 C213.04934768 0.28001323 217.76641627 1.94644659 222.73136902 6.89007568 C223.39158554 7.54038757 224.05180206 8.19069946 224.73202515 8.86071777 C225.43509796 9.56829224 226.13817078 10.2758667 226.86254883 11.00488281 C227.61938461 11.75485535 228.3762204 12.50482788 229.1559906 13.27752686 C231.64898775 15.75226238 234.13078088 18.23788595 236.61181641 20.72460938 C238.34446746 22.4526985 240.0774899 24.18041534 241.81086731 25.90777588 C245.43959563 29.52757441 249.06259359 33.15299311 252.68188477 36.78222656 C257.31710123 41.42893471 261.96798262 46.05959763 266.62351513 50.68593979 C270.20535788 54.24942433 273.77783193 57.82218636 277.34765053 61.39771271 C279.05856689 63.10878231 280.77258639 64.81675495 282.48976707 66.52153778 C284.89067704 68.90754732 287.27845348 71.30598671 289.66333008 73.70800781 C290.37247559 74.40748535 291.08162109 75.10696289 291.81225586 75.82763672 C292.46401291 76.48922791 293.11576996 77.15081909 293.78727722 77.8324585 C294.63423802 78.67973322 294.63423802 78.67973322 295.49830914 79.5441246 C299.39679929 84.68516441 300.44358687 89.60854371 300.42961121 95.94883728 C300.43217448 96.65310571 300.43473776 97.35737414 300.4373787 98.08298403 C300.4422897 100.42462064 300.42586899 102.7656013 300.40942383 105.10717773 C300.40857697 106.79291773 300.40905384 108.47865884 300.41075134 110.16439819 C300.41161043 114.72798528 300.39399861 119.29133477 300.37302947 123.85486674 C300.35424833 128.62878251 300.35251109 133.40270399 300.34895325 138.176651 C300.33963701 147.21108355 300.31502891 156.2454069 300.28490478 165.27979141 C300.25134767 175.56752979 300.23487146 185.85527344 300.21981847 196.14305294 C300.188479 217.30050764 300.13572667 238.45786412 300.06884766 259.61523438 C300.74599319 259.61079315 301.42313873 259.60635193 302.12080383 259.60177612 C309.21064123 259.55730199 316.30043857 259.5272685 323.39038086 259.50537109 C326.03134777 259.49535458 328.67230371 259.48173755 331.31323242 259.46435547 C335.12372559 259.43991541 338.93407126 259.4287074 342.74462891 259.41992188 C344.49686516 259.40443802 344.49686516 259.40443802 346.28450012 259.38864136 C359.64954539 259.38683926 370.39088935 261.0455512 380.38134766 270.42773438 C391.0618379 281.78769915 390.36439728 296.04819386 390.32763672 310.74194336 C390.33035048 312.5679132 390.33391357 314.39388194 390.33825684 316.21984863 C390.34733791 321.15581558 390.34385413 326.09169848 390.33749866 331.02766681 C390.33241568 336.20749806 390.33713656 341.38732238 390.340271 346.56715393 C390.34390428 355.26491582 390.33912863 363.96264368 390.32958984 372.66040039 C390.31870996 382.69649975 390.32223008 392.7325178 390.33324265 402.76861519 C390.34233781 411.40501773 390.34358982 420.04139588 390.33836532 428.67780167 C390.33525742 433.82728758 390.33480364 438.97673537 390.34143829 444.1262188 C390.34724347 448.96982221 390.34315712 453.81332151 390.33164978 458.65691376 C390.32901995 460.42772563 390.32973938 462.19854636 390.33417511 463.96935463 C390.3685893 479.11172244 390.08706218 492.09666416 379.50634766 503.86523438 C369.15452499 513.29400046 357.51889841 513.3392466 344.33203125 513.24633789 C342.46473004 513.25148502 340.59743371 513.25877226 338.73014832 513.26802063 C333.69090674 513.28643914 328.65219838 513.27365766 323.61297941 513.25393033 C318.32324896 513.23746818 313.03355028 513.24636699 307.74380493 513.25144958 C298.86541284 513.25596131 289.98723207 513.24015588 281.10888672 513.2121582 C270.86132581 513.18009082 260.61414547 513.18013278 250.36655748 513.19737297 C240.48336375 513.21326383 230.60030882 513.20648929 220.71712112 513.18943596 C216.52197168 513.18258439 212.32693414 513.18357835 208.13178635 513.19098091 C203.18871612 513.19867032 198.24607653 513.18643113 193.30307961 513.159132 C191.49476842 513.15227565 189.68641681 513.15212051 187.87810707 513.15934753 C174.25567899 513.20749711 164.43870145 511.87108292 154.26806641 502.09960938 C146.42808363 493.24307465 144.95168382 482.72237302 145.02587891 471.25585938 C145.03208252 470.00836914 145.03828613 468.76087891 145.04467773 467.47558594 C145.05265381 466.53166992 145.06062988 465.58775391 145.06884766 464.61523438 C144.21408215 464.61984334 143.35931664 464.6244523 142.47864914 464.62920094 C121.64487779 464.73980014 100.81115729 464.82244924 79.97715378 464.87429523 C69.90181663 464.90003639 59.82667589 464.9351085 49.75146484 464.99243164 C40.96612386 465.04239205 32.18092517 465.07455509 23.39544606 465.08567685 C18.7469592 465.09217427 14.09887932 465.10735909 9.45052338 465.14388466 C5.06739278 465.17804425 0.68483341 465.18824745 -3.69841766 465.18077278 C-5.29951593 465.18213847 -6.90063504 465.19195159 -8.50161743 465.21126175 C-21.43742841 465.35951766 -32.31485693 463.23680508 -41.95849609 453.90820312 C-52.17361999 442.03438584 -52.23146735 428.33690224 -52.18511963 413.40869141 C-52.18742735 411.78186466 -52.19060596 410.15503895 -52.19457412 408.52821541 C-52.20288796 404.08205626 -52.19881241 399.63598348 -52.19260168 395.1898241 C-52.18806419 390.38539369 -52.19506738 385.5809778 -52.20056152 380.77655029 C-52.20944333 371.37423015 -52.20753891 361.97194199 -52.20173624 352.56962061 C-52.19721499 344.92647699 -52.19660886 337.28334232 -52.19878387 329.64019775 C-52.19909034 328.55137177 -52.19939681 327.46254578 -52.19971256 326.34072506 C-52.20035203 324.12862698 -52.20100045 321.9165289 -52.20165774 319.70443082 C-52.20735748 298.97350316 -52.20080872 278.2425932 -52.19005701 257.51166844 C-52.18112183 239.73303052 -52.18267397 221.95441871 -52.19189453 204.17578125 C-52.20260344 183.51778928 -52.20680819 162.85981282 -52.20067 142.20181847 C-52.20003292 139.99796931 -52.19940418 137.79412016 -52.19878387 135.590271 C-52.19847532 134.50600425 -52.19816677 133.4217375 -52.19784887 132.30461419 C-52.1961238 124.67281924 -52.199033 117.04103414 -52.20374298 109.40924072 C-52.2093587 100.10555016 -52.20782081 90.80189333 -52.19718149 81.49820662 C-52.19193411 76.75357424 -52.18985214 72.00899808 -52.1964798 67.26436615 C-52.20246067 62.91692996 -52.19912897 58.56960182 -52.18852469 54.22217536 C-52.18629972 52.65367926 -52.18740657 51.08517394 -52.19227627 49.51668382 C-52.23305388 35.28540163 -51.62668116 22.56033421 -41.95849609 11.32226562 C-29.63811924 -0.59563068 -16.09144862 -0.10257042 0 0 Z M-10.93115234 41.61523438 C-10.93115234 167.67523438 -10.93115234 293.73523438 -10.93115234 423.61523438 C40.54884766 423.61523438 92.02884766 423.61523438 145.06884766 423.61523438 C145.06884766 389.29523438 145.06884766 354.97523438 145.06884766 319.61523438 C137.36541016 319.58945312 129.66197266 319.56367188 121.72509766 319.53710938 C116.83964787 319.51193765 111.95425978 319.48560212 107.06884766 319.45507812 C99.31754332 319.40675881 91.56638183 319.36270807 83.81494141 319.34423828 C77.56428813 319.32907465 71.31400898 319.29463329 65.06352234 319.24692535 C62.68099726 319.23210872 60.29841878 319.2241932 57.91584778 319.22335052 C54.57386569 319.2209801 51.23291685 319.19389215 47.89111328 319.16113281 C46.90999573 319.16616318 45.92887817 319.17119354 44.91802979 319.17637634 C38.18312252 319.07449655 32.52518102 317.9018438 27.50980377 313.13274765 C23.33122501 308.34317921 22.71603473 304.37952888 22.78759766 298.25195312 C23.36045148 292.88144854 25.66269763 289.05938845 29.38134766 285.24023438 C35.95388952 281.2661393 42.39847124 281.34921318 49.8659668 281.43920898 C51.46238258 281.4458255 51.46238258 281.4458255 53.09104919 281.45257568 C55.39309194 281.46239345 57.69512032 281.47623317 59.997118 281.4936657 C64.89252783 281.5261206 69.78772734 281.52363488 74.68322659 281.52337742 C83.79030713 281.52352105 92.89684642 281.5388863 102.00366211 281.61157227 C108.34685995 281.66086411 114.68880277 281.66655135 121.0321331 281.64343452 C123.44709798 281.64286546 125.8621237 281.65857069 128.27687263 281.69087029 C131.65306183 281.7342159 135.02484507 281.72198224 138.40112305 281.69702148 C139.39713531 281.72317032 140.39314758 281.74931915 141.41934204 281.77626038 C144.24089797 281.72159474 146.4138 281.57964591 149.06884766 280.61523438 C151.09223051 278.50227724 152.43155473 276.44245037 153.81400204 273.86943913 C157.64167274 266.99341124 164.77598378 263.7314672 172.06884766 261.61523438 C177.12952412 260.75755772 182.08523567 260.45071868 187.20727539 260.40991211 C188.39800329 260.39486303 188.39800329 260.39486303 189.61278629 260.37950993 C192.15930922 260.34835454 194.70584784 260.32344944 197.25244141 260.29882812 C198.83386719 260.28040345 200.41528822 260.26156567 201.9967041 260.24230957 C207.8331957 260.17411999 213.66977824 260.11390236 219.50634766 260.05273438 C239.08978516 259.83617187 239.08978516 259.83617187 259.06884766 259.61523438 C259.06884766 213.74523437 259.06884766 167.87523437 259.06884766 120.61523438 C240.91884766 120.28523438 222.76884766 119.95523438 204.06884766 119.61523438 C193.00634766 117.15690104 193.00634766 117.15690104 187.06884766 111.61523438 C176.59560132 90.6687417 181.4591083 65.03087319 181.06884766 41.61523438 C117.70884766 41.61523438 54.34884766 41.61523438 -10.93115234 41.61523438 Z M178.06884766 295.61523438 C175.5956199 299.325076 175.81294972 301.1919721 175.80142212 305.62399292 C175.79689101 306.34173358 175.79235989 307.05947424 175.78769147 307.79896462 C175.77500479 310.21027966 175.77667057 312.62137007 175.77832031 315.03271484 C175.77233771 316.75901583 175.76553279 318.48531413 175.75796509 320.21160889 C175.74027036 324.90584638 175.73560824 329.600011 175.73433352 334.29427862 C175.73243617 338.21084304 175.72508051 342.12739042 175.71798933 346.04394829 C175.70169451 355.28337663 175.69682136 364.52276598 175.69824219 373.76220703 C175.69944386 383.29790566 175.67833936 392.83337803 175.64675486 402.36901939 C175.62061607 410.55169138 175.60987389 418.73428937 175.61115301 426.9170028 C175.61166335 431.80601519 175.60594011 436.69482659 175.58479691 441.58379745 C175.56545489 446.18196558 175.56526228 450.77974018 175.57983017 455.37792206 C175.58192441 457.06579029 175.57718083 458.75368289 175.56510925 460.44150925 C175.54969688 462.74564021 175.55893685 465.04840744 175.57437134 467.35250854 C175.5732818 468.64188765 175.57219227 469.93126675 175.57106972 471.25971794 C176.1561396 475.20366856 177.24127825 476.85061949 180.06884766 479.61523438 C183.47184331 480.74956626 186.07062025 480.74683392 189.66000366 480.75567627 C190.33282525 480.75864739 191.00564683 480.76161851 191.69885695 480.76467967 C193.95810467 480.77336584 196.2172994 480.77487484 198.4765625 480.77636719 C200.09448866 480.78099538 201.71241373 480.78602004 203.33033752 480.79141235 C207.72911522 480.80453727 212.12787766 480.81098135 216.52667189 480.81542301 C219.27405599 480.81835326 222.0214359 480.82245796 224.7688179 480.82692719 C233.36251728 480.84060164 241.95620712 480.85026885 250.54991663 480.85412908 C260.47446547 480.85861147 270.3988767 480.87616797 280.32338369 480.90512967 C287.99225154 480.92673328 295.66108063 480.93683263 303.32997859 480.93817019 C307.91156148 480.93921907 312.493015 480.9451444 317.07456589 480.96298981 C321.38376324 480.97944794 325.69273366 480.98163704 330.00195122 480.9728508 C331.58339101 480.97207924 333.16484289 480.97643878 334.74625206 480.98630905 C336.90568064 480.99899649 339.06430153 480.99316998 341.22372437 480.98272705 C342.43198568 480.98419361 343.640247 480.98566017 344.8851223 480.98717117 C349.36184759 480.46418044 351.92625078 478.75783125 355.06884766 475.61523438 C355.38088745 472.44770816 355.38088745 472.44770816 355.33627319 468.64407349 C355.34306986 467.55543513 355.34306986 467.55543513 355.35000384 466.44480407 C355.36271603 464.00041106 355.36102312 461.55623892 355.359375 459.11181641 C355.36535603 457.36433626 355.37216058 455.61685876 355.37973022 453.86938477 C355.39744135 449.11317391 355.40208776 444.35703495 355.4033618 439.60079432 C355.40525769 435.63447933 355.41261169 431.66818122 355.41970599 427.70187271 C355.43600717 418.34599894 355.44087338 408.99016368 355.43945312 399.63427734 C355.43825141 389.97418075 355.45935519 380.31430749 355.49094045 370.65426743 C355.5170685 362.36887213 355.52782187 354.08354991 355.52654231 345.7981137 C355.52603162 340.84596217 355.53177313 335.89400896 355.55289841 330.94189835 C355.5722223 326.28465225 355.57244554 321.62779485 355.55786514 316.97053528 C355.55576861 315.25967213 355.56052797 313.54878504 355.57258606 311.8379631 C355.58796617 309.50496872 355.57877989 307.17332668 355.56332397 304.84036255 C355.56441351 303.53401415 355.56550304 302.22766575 355.5666256 300.88173103 C354.98591519 297.0710186 354.07955177 295.9312857 351.06884766 293.61523438 C348.2054335 292.1835273 345.76190688 292.48262652 342.5599823 292.47479248 C341.88393159 292.47182136 341.20788087 292.46885024 340.51134378 292.46578908 C338.23517058 292.4570844 335.95904987 292.45559234 333.68286133 292.45410156 C332.05523058 292.44947462 330.42760092 292.44445012 328.79997253 292.4390564 C324.37014487 292.42591798 319.94033238 292.41948457 315.51048827 292.41504574 C312.74418098 292.41211717 309.97787785 292.40801277 307.21157265 292.40354156 C298.56020476 292.38986248 289.90884636 292.38019799 281.2574684 292.37633967 C271.26385929 292.37185856 261.27038693 292.35430996 251.27681941 292.32533908 C243.55701675 292.3037351 235.83725259 292.29363607 228.11742002 292.29229856 C223.50452347 292.29124955 218.89175539 292.28532159 214.27889061 292.26747894 C209.93933828 292.25102056 205.6000113 292.24883184 201.26043892 292.25761795 C199.66771212 292.25838954 198.07497332 292.25402954 196.48227692 292.2441597 C194.30746999 292.2314731 192.13346515 292.23729839 189.95866394 292.2477417 C188.13326222 292.24554186 188.13326222 292.24554186 186.2709837 292.24329758 C182.73317683 292.65422345 180.88971748 293.47548949 178.06884766 295.61523438 Z " fill="#020202" transform="translate(86.93115234375,-0.615234375)"/>
<path d="M0 0 C1.08908494 -0.00573832 1.08908494 -0.00573832 2.20017159 -0.01159257 C4.63369425 -0.02191343 7.06698057 -0.01793218 9.5005188 -0.01396179 C11.2450482 -0.01830881 12.98957569 -0.02349192 14.73410034 -0.02944946 C19.47380608 -0.04285265 24.21343214 -0.04341661 28.95315313 -0.04088616 C32.90943741 -0.03981723 36.86570551 -0.04469789 40.82198632 -0.04949158 C50.15592348 -0.06059159 59.48982041 -0.06102157 68.82376099 -0.05497742 C78.45314924 -0.04893781 88.08239136 -0.0612472 97.71175468 -0.08254749 C105.97853683 -0.10016141 114.24527246 -0.10616513 122.51207268 -0.10290974 C127.44968711 -0.10109623 132.38719733 -0.10373981 137.32479477 -0.11762428 C141.96889322 -0.13019439 146.6127639 -0.12826625 151.25685883 -0.11521339 C152.96042838 -0.11284619 154.66401393 -0.11558747 156.36756516 -0.12383652 C158.69517759 -0.13429382 161.02202436 -0.12621199 163.34960938 -0.11352539 C164.65151655 -0.11369313 165.95342373 -0.11386087 167.29478264 -0.1140337 C172.48404916 0.44044912 176.56592246 2.4255387 180.05178833 6.32319641 C183.43445861 10.56269082 184.68624117 14.86299327 184.80178833 20.26069641 C183.83326612 26.40784759 181.26656928 30.99886005 176.80178833 35.26069641 C171.75577596 37.84379897 168.06859412 38.63658086 162.31874084 38.64164734 C161.59828805 38.64632731 160.87783526 38.65100728 160.13555056 38.65582907 C157.73886754 38.66772608 155.34276196 38.65834304 152.94607544 38.64888 C151.22080656 38.65294804 149.49554029 38.65829121 147.77027893 38.66481018 C143.09682066 38.67846103 138.42356155 38.67319462 133.7500999 38.66367292 C128.8548535 38.656066 123.95962391 38.6631247 119.06437683 38.66783142 C110.84554998 38.67328544 102.62680406 38.66610609 94.4079895 38.65180969 C84.90974633 38.63547844 75.41169631 38.64077657 65.91345781 38.65728891 C57.75276409 38.67090736 49.59212847 38.67282184 41.43142706 38.6649729 C36.55981725 38.66029907 31.68829821 38.65966371 26.81669426 38.66958237 C22.23738254 38.67825514 17.65831967 38.67222442 13.07903481 38.6548996 C11.39965605 38.65093666 9.7202563 38.65206551 8.04088593 38.65868759 C5.74625966 38.66690083 3.45242798 38.65658496 1.15785217 38.64164734 C-0.12540986 38.64051626 -1.40867189 38.63938519 -2.73082066 38.63821983 C-9.08256703 37.94665288 -13.09836681 35.02538098 -17.19821167 30.26069641 C-20.65236694 25.1390179 -21.03093659 20.25631586 -20.19821167 14.26069641 C-18.21873747 8.04557312 -14.95972164 4.65306721 -9.4918499 1.17542744 C-6.26978053 -0.1095733 -3.46586069 0.0054682 0 0 Z " fill="#020202" transform="translate(129.19821166992188,167.7393035888672)"/>
<path d="M0 0 C39.27 0 78.54 0 119 0 C119 61.45454545 119 61.45454545 115.625 65.75 C112.65398175 68.03539865 109.37297528 68.12564433 105.7250061 68.14044189 C104.87834885 68.14615204 104.03169159 68.15186218 103.15937805 68.15774536 C102.23876083 68.15886322 101.31814362 68.15998108 100.36962891 68.16113281 C99.39357193 68.16609772 98.41751495 68.17106262 97.41188049 68.17617798 C94.18343399 68.19078139 90.9550366 68.19759814 87.7265625 68.203125 C85.48220824 68.20887738 83.23785399 68.21463511 80.99349976 68.22039795 C76.28765636 68.23090236 71.58183003 68.23674888 66.87597656 68.24023438 C60.84783022 68.24572181 54.81990944 68.26975769 48.79183388 68.29820633 C44.15584657 68.31683347 39.51991363 68.32203833 34.88389206 68.32357025 C32.66155131 68.32659648 30.43921151 68.33462396 28.2169075 68.34775543 C25.10748379 68.36481924 21.99861176 68.36293483 18.88916016 68.35644531 C17.51430702 68.37026749 17.51430702 68.37026749 16.11167908 68.3843689 C11.06241954 68.35137558 7.19288821 68.12533141 3 65 C-5.54400375 45.06399126 0 21.68973131 0 0 Z M79 13 C79 26.53 79 40.06 79 54 C85.6 54 92.2 54 99 54 C99 40.47 99 26.94 99 13 C92.4 13 85.8 13 79 13 Z " fill="#020202" transform="translate(293,305)"/>
<path d="M0 0 C8.40895977 4.93203105 13.52058761 11.87172335 16.14453125 21.2578125 C17.25587917 32.1645293 15.88234881 40.98345202 8.89453125 49.5703125 C2.19395687 56.65745847 -5.31601774 60.20235437 -15.10546875 60.6328125 C-24.11027788 60.42282381 -31.62628184 57.41386842 -38.13671875 51.18359375 C-45.01946671 43.47178752 -47.29982825 35.77098076 -47.1015625 25.5078125 C-46.49309784 17.47221572 -43.48094345 11.04157977 -37.85546875 5.2578125 C-27.01268121 -3.50580252 -12.94643297 -6.14043089 0 0 Z " fill="#020202" transform="translate(367.85546875,402.7421875)"/>
</svg>
