<?xml version="1.0" encoding="UTF-8"?>
<svg version="1.1" xmlns="http://www.w3.org/2000/svg" width="512" height="512">
<path d="M0 0 C1.00546875 0.71542969 2.0109375 1.43085937 3.046875 2.16796875 C19.43357954 14.16082894 34.71850093 27.75672703 47 44 C47.45197754 44.59731934 47.90395508 45.19463867 48.36962891 45.81005859 C77.17083986 84.24693345 89.22141308 128.12323361 89.25 175.6875 C89.25067474 176.69344208 89.25134949 177.69938416 89.25204468 178.73580933 C89.21423718 214.19747815 83.02033408 247.56262794 66 279 C65.65211426 279.6595166 65.30422852 280.3190332 64.94580078 280.99853516 C51.05703646 307.30773219 30.95412822 330.39351055 7 348 C5.94039063 348.78117187 4.88078125 349.56234375 3.7890625 350.3671875 C-4.44824323 356.24516616 -13.04698981 361.29860886 -22 366 C-22.65419922 366.34417969 -23.30839844 366.68835938 -23.98242188 367.04296875 C-75.45925744 393.67419587 -142.05101261 396.20393242 -197.01757812 379.40112305 C-216.05779262 373.24921353 -234.69658755 364.67273116 -251 353 C-252.00546875 352.28457031 -253.0109375 351.56914062 -254.046875 350.83203125 C-270.43357954 338.83917106 -285.71850093 325.24327297 -298 309 C-298.45197754 308.40268066 -298.90395508 307.80536133 -299.36962891 307.18994141 C-328.17083986 268.75306655 -340.22141308 224.87676639 -340.25 177.3125 C-340.25067474 176.30655792 -340.25134949 175.30061584 -340.25204468 174.26419067 C-340.21423718 138.80252185 -334.02033408 105.43737206 -317 74 C-316.47817139 73.0107251 -316.47817139 73.0107251 -315.94580078 72.00146484 C-302.05703646 45.69226781 -281.95412822 22.60648945 -258 5 C-256.94039063 4.21882813 -255.88078125 3.43765625 -254.7890625 2.6328125 C-246.55175677 -3.24516616 -237.95301019 -8.29860886 -229 -13 C-228.34580078 -13.34417969 -227.69160156 -13.68835938 -227.01757812 -14.04296875 C-159.14261618 -49.1576666 -62.52662197 -44.76709715 0 0 Z " fill="#040204" transform="translate(382,80)"/>
<path d="M0 0 C3.39812492 1.35924997 6.07266087 2.51976417 9.125 4.36328125 C10.29156128 5.06493408 10.29156128 5.06493408 11.48168945 5.78076172 C12.72825317 6.53897217 12.72825317 6.53897217 14 7.3125 C14.87938232 7.84375488 15.75876465 8.37500977 16.66479492 8.92236328 C23.7830385 13.23358113 30.86115761 17.60910525 37.9296875 22.0012207 C44.43049851 26.0384972 50.95867983 30.0287392 57.5 34 C64.85477482 38.46599333 72.18973027 42.96152076 79.5 47.5 C87.65998756 52.56537537 95.85356254 57.57300265 104.0625 62.55859375 C112.49066464 67.6809321 120.88963195 72.84992918 129.28540039 78.02514648 C136.55011595 82.50028939 143.83225141 86.94571786 151.125 91.375 C153.88515849 93.05540553 156.64472025 94.73678332 159.40380859 96.41894531 C161.11647197 97.46194024 162.83031576 98.50299965 164.54541016 99.54199219 C166.84705576 100.93779326 169.14298846 102.34251241 171.4375 103.75 C172.11248535 104.15653809 172.7874707 104.56307617 173.48291016 104.98193359 C175.02365405 105.93341197 176.51820785 106.95908941 178 108 C178 108.66 178 109.32 178 110 C175.97827148 111.47363281 175.97827148 111.47363281 173.12109375 113.203125 C172.06664062 113.84636719 171.0121875 114.48960937 169.92578125 115.15234375 C168.76308874 115.85167541 167.60032648 116.55089112 166.4375 117.25 C165.24437929 117.97458182 164.05167533 118.69985029 162.859375 119.42578125 C160.41758642 120.91087734 157.97338369 122.39186572 155.52685547 123.86914062 C151.43350597 126.34081666 147.34949678 128.82773115 143.26586914 131.31542969 C141.40756304 132.44724292 139.54866692 133.57808792 137.68920898 134.70800781 C129.33971677 139.78289437 121.02017494 144.90582984 112.70239258 150.0324707 C105.54504793 154.44121582 98.37240863 158.82383946 91.1875 163.1875 C83.0694314 168.11831047 74.98234082 173.09636498 66.9128418 178.10620117 C60.46303367 182.10591788 53.98694239 186.06083877 47.5 190 C39.93789471 194.59241815 32.39496826 199.21388514 24.875 203.875 C24.00963623 204.41084717 23.14427246 204.94669434 22.25268555 205.4987793 C18.45290601 207.85315394 14.65683964 210.21296333 10.87109375 212.58984375 C10.26088379 212.97092285 9.65067383 213.35200195 9.02197266 213.74462891 C7.44626571 214.72893941 5.87338926 215.71777719 4.30078125 216.70703125 C2 218 2 218 0 218 C0 146.06 0 74.12 0 0 Z " fill="#FDFDFD" transform="translate(198,150)"/>
<path d="M0 0 C1.00546875 0.71542969 2.0109375 1.43085937 3.046875 2.16796875 C19.43357954 14.16082894 34.71850093 27.75672703 47 44 C47.45197754 44.59731934 47.90395508 45.19463867 48.36962891 45.81005859 C77.17083986 84.24693345 89.22141308 128.12323361 89.25 175.6875 C89.25067474 176.69344208 89.25134949 177.69938416 89.25204468 178.73580933 C89.21423718 214.19747815 83.02033408 247.56262794 66 279 C65.65211426 279.6595166 65.30422852 280.3190332 64.94580078 280.99853516 C51.05703646 307.30773219 30.95412822 330.39351055 7 348 C5.94039063 348.78117187 4.88078125 349.56234375 3.7890625 350.3671875 C-4.44824323 356.24516616 -13.04698981 361.29860886 -22 366 C-22.65419922 366.34417969 -23.30839844 366.68835938 -23.98242188 367.04296875 C-75.45925744 393.67419587 -142.05101261 396.20393242 -197.01757812 379.40112305 C-216.05779262 373.24921353 -234.69658755 364.67273116 -251 353 C-252.00546875 352.28457031 -253.0109375 351.56914062 -254.046875 350.83203125 C-270.43357954 338.83917106 -285.71850093 325.24327297 -298 309 C-298.45197754 308.40268066 -298.90395508 307.80536133 -299.36962891 307.18994141 C-328.17083986 268.75306655 -340.22141308 224.87676639 -340.25 177.3125 C-340.25067474 176.30655792 -340.25134949 175.30061584 -340.25204468 174.26419067 C-340.21423718 138.80252185 -334.02033408 105.43737206 -317 74 C-316.47817139 73.0107251 -316.47817139 73.0107251 -315.94580078 72.00146484 C-302.05703646 45.69226781 -281.95412822 22.60648945 -258 5 C-256.94039063 4.21882813 -255.88078125 3.43765625 -254.7890625 2.6328125 C-246.55175677 -3.24516616 -237.95301019 -8.29860886 -229 -13 C-228.34580078 -13.34417969 -227.69160156 -13.68835938 -227.01757812 -14.04296875 C-159.14261618 -49.1576666 -62.52662197 -44.76709715 0 0 Z M-268.48925781 29.55664062 C-269.51252583 30.53426838 -270.54069027 31.50679224 -271.57324219 32.47460938 C-305.24981534 64.12444651 -328.88040993 111.96586157 -331.11473083 158.3835144 C-331.1788102 160.76897516 -331.2159578 163.15284821 -331.23828125 165.5390625 C-331.2483017 166.4141748 -331.25832214 167.28928711 -331.26864624 168.19091797 C-331.6013118 204.79466447 -326.56705074 239.74791807 -308 272 C-307.35789403 273.18469372 -306.71861678 274.37092454 -306.08203125 275.55859375 C-284.04984905 316.09648242 -245.9771721 349.33063097 -203 366 C-202.3601416 366.2484668 -201.7202832 366.49693359 -201.06103516 366.75292969 C-165.03584552 380.56098148 -123.95455886 384.95417323 -86 377 C-85.15695312 376.83371094 -84.31390625 376.66742188 -83.4453125 376.49609375 C-45.55087383 368.90596138 -10.40348259 350.12052281 17.47314453 323.45947266 C18.50315775 322.47491573 19.53812459 321.4955186 20.57763672 320.52099609 C35.02839857 306.94017977 46.26627446 291.2275546 56 274 C56.54648193 273.03707031 56.54648193 273.03707031 57.10400391 272.0546875 C72.68961332 244.08689284 80.62813354 212.0111876 80.33618164 180.12890625 C80.31245266 177.36949545 80.31567216 174.61105084 80.32226562 171.8515625 C80.30024389 156.8747821 79.34273313 142.26129405 75.375 127.75 C75.11702637 126.78892334 74.85905273 125.82784668 74.59326172 124.83764648 C70.15835855 108.85760455 63.99218992 93.52918736 56 79 C55.48832275 78.06945801 55.48832275 78.06945801 54.96630859 77.12011719 C46.51777491 61.98594832 36.04219423 48.4340758 24 36 C23.49887695 35.4730957 22.99775391 34.94619141 22.48144531 34.40332031 C0.2376882 11.05084011 -26.84882933 -4.91519858 -57 -16 C-57.69641602 -16.25652344 -58.39283203 -16.51304688 -59.11035156 -16.77734375 C-67.94020032 -19.98189896 -76.76090465 -22.3363989 -86 -24 C-86.68046387 -24.13680176 -87.36092773 -24.27360352 -88.06201172 -24.41455078 C-152.67586657 -37.22753742 -221.25378762 -15.59262225 -268.48925781 29.55664062 Z " fill="#FBFBFB" transform="translate(382,80)"/>
<path d="M0 0 C0.33 0.99 0.66 1.98 1 3 C0.01 2.67 -0.98 2.34 -2 2 C-1.34 1.34 -0.68 0.68 0 0 Z " fill="#FFFFFF" transform="translate(511,509)"/>
<path d="M0 0 C0.99 0.99 1.98 1.98 3 3 C2.01 3 1.02 3 0 3 C0 2.01 0 1.02 0 0 Z " fill="#FFFFFF" transform="translate(0,509)"/>
<path d="M0 0 C0.99 0 1.98 0 3 0 C2.67 0.99 2.34 1.98 2 3 C1.34 2.01 0.68 1.02 0 0 Z " fill="#FFFFFF" transform="translate(509,0)"/>
<path d="M0 0 C0.99 0.33 1.98 0.66 3 1 C2.01 1.66 1.02 2.32 0 3 C0 2.01 0 1.02 0 0 Z " fill="#FFFFFF" transform="translate(0,0)"/>
</svg>
