<?xml version="1.0" standalone="no"?>
<!DOCTYPE svg PUBLIC "-//W3C//DTD SVG 20010904//EN"
 "http://www.w3.org/TR/2001/REC-SVG-20010904/DTD/svg10.dtd">
<svg version="1.0" xmlns="http://www.w3.org/2000/svg"
 width="512.000000pt" height="512.000000pt" viewBox="0 0 512.000000 512.000000"
 preserveAspectRatio="xMidYMid meet">

<g transform="translate(0.000000,512.000000) scale(0.100000,-0.100000)"
fill="#000000" stroke="none">
<path d="M4175 4444 c-472 -130 -2598 -699 -3250 -870 -455 -119 -475 -127
-475 -197 0 -32 64 -291 106 -429 5 -17 -11 -18 -241 -18 -257 0 -293 -5 -309
-45 -8 -22 -8 -2218 0 -2240 18 -47 -65 -45 1962 -45 1361 0 1908 3 1931 11
17 6 37 21 44 33 8 15 13 188 17 665 l5 644 130 34 c604 158 965 257 992 274
30 19 33 25 33 73 0 34 -29 158 -85 362 -46 171 -170 631 -275 1023 -104 391
-197 725 -205 741 -19 37 -52 60 -85 59 -14 0 -146 -34 -295 -75z m253 -129
c6 -5 512 -1905 512 -1920 0 -8 -16 -18 -37 -24 -167 -43 -508 -134 -701 -187
-128 -35 -239 -64 -247 -64 -13 0 -15 49 -15 365 0 372 -3 405 -39 421 -9 5
-724 11 -1590 14 l-1574 5 -14 40 c-32 91 -93 334 -87 348 7 19 -1 17 569 167
536 141 1971 525 2655 710 261 70 484 130 495 133 18 5 66 0 73 -8z m-858
-1605 c-30 -27 -363 -290 -740 -583 -377 -293 -720 -561 -763 -595 -43 -34
-82 -62 -87 -62 -13 0 -84 53 -347 259 -136 107 -473 370 -748 584 -275 214
-516 402 -535 417 l-35 29 1655 0 1655 0 -55 -49z m220 -895 c0 -558 -3 -865
-10 -865 -5 0 -45 53 -88 118 -44 64 -209 304 -367 532 -158 228 -294 429
-301 447 l-14 32 338 264 c381 298 432 337 438 337 2 0 4 -389 4 -865z m-3572
823 c26 -18 81 -60 122 -93 68 -56 308 -243 518 -404 l82 -64 -24 -42 c-24
-44 -719 -1048 -743 -1075 -11 -12 -13 128 -13 848 0 474 3 862 6 862 3 0 26
-14 52 -32z m997 -778 c118 -96 672 -527 699 -545 46 -30 91 -22 154 27 31 25
194 152 362 284 378 298 439 344 450 344 5 0 33 -35 62 -77 28 -43 197 -288
374 -544 177 -256 338 -491 358 -522 l37 -57 -1735 0 -1736 0 12 28 c7 15 44
72 83 127 39 55 218 312 399 572 l328 472 41 -26 c23 -14 74 -52 112 -83z"/>
<path d="M3781 3874 c-167 -46 -317 -92 -335 -102 -29 -17 -31 -22 -31 -78 1
-79 91 -418 121 -453 17 -20 30 -25 62 -24 22 1 181 38 354 83 350 91 368 99
368 172 0 34 -84 365 -108 429 -17 44 -40 59 -85 58 -23 -1 -179 -39 -346 -85z"/>
</g>
</svg>
