<?xml version="1.0" encoding="UTF-8"?>
<svg version="1.1" xmlns="http://www.w3.org/2000/svg" width="512" height="512">
<path d="M0 0 C1.13451747 -0.00445784 2.26903493 -0.00891569 3.43793172 -0.01350862 C5.30808335 -0.01323207 5.30808335 -0.01323207 7.21601582 -0.01294994 C8.55361501 -0.0162499 9.8912132 -0.01997575 11.22881013 -0.02409142 C14.90791022 -0.03410444 18.58699399 -0.03782709 22.26610577 -0.04048073 C26.2328502 -0.04438582 30.19958174 -0.05396397 34.16631794 -0.0626936 C43.74727268 -0.08245148 53.32822847 -0.09252303 62.90919849 -0.10142139 C67.42130554 -0.1058051 71.93341142 -0.11117167 76.44551754 -0.11641026 C91.44492029 -0.13342131 106.4443223 -0.14791571 121.44373322 -0.155159 C125.33570767 -0.15706888 129.22768213 -0.15898921 133.11965656 -0.16094494 C134.08698356 -0.16142868 135.05431056 -0.16191242 136.0509505 -0.16241082 C151.72274605 -0.17071202 167.39446529 -0.196051 183.06622752 -0.22852562 C199.15664572 -0.26159592 215.24702514 -0.2796077 231.33747751 -0.28280324 C240.3714727 -0.28496828 249.40535659 -0.2937162 258.43931866 -0.31926441 C266.13259136 -0.34097095 273.82572573 -0.34902204 281.51902559 -0.33929763 C285.44321788 -0.33475287 289.36712474 -0.33664915 293.29127789 -0.35605907 C296.88712376 -0.37369127 300.48247598 -0.37269303 304.0783271 -0.35716178 C305.98822614 -0.35366428 307.89813036 -0.36981164 309.80795735 -0.38676625 C320.04056026 -0.3102516 327.16107694 2.22468404 334.66824055 9.20843983 C340.43726439 15.41832794 343.68803173 22.43465537 343.73577595 30.98087025 C343.75252117 32.69710842 343.75252117 32.69710842 343.76960468 34.44801807 C343.77176487 35.68879612 343.77392506 36.92957417 343.7761507 38.20795155 C343.78619633 39.52555973 343.79624195 40.84316792 343.80659199 42.20070362 C343.83382392 45.80146089 343.8490211 49.40217918 343.86202002 53.00301218 C343.87768045 56.77068092 343.90446135 60.53827042 343.93005085 64.30588245 C343.97678716 71.43488698 344.01355613 78.5639065 344.04672372 85.69298565 C344.08498154 93.81151996 344.13438209 101.92997458 344.18470788 110.04844165 C344.28795115 126.74364418 344.3772362 143.43889097 344.45730305 160.13422108 C345.17273273 159.40308094 345.88816242 158.6719408 346.6252718 157.91864491 C349.30864933 155.18053071 352.00230137 152.45271491 354.69900227 149.72772694 C355.8596609 148.55208062 357.01760102 147.37374343 358.17263508 146.19257069 C368.73273642 135.39972727 378.08420133 127.18822383 393.95730305 126.75922108 C404.86262852 127.06605321 414.88952771 130.57604535 422.72292805 138.39593983 C430.86611066 148.00187931 434.17602521 158.10269478 433.2737093 170.69672108 C432.87246124 173.27794571 432.21526162 175.63389655 431.45730305 178.13422108 C431.18980747 179.01993793 430.9223119 179.90565479 430.6467104 180.81821156 C426.91590473 190.21677273 420.74613142 193.80293222 412.45449543 198.99211597 C384.55758072 216.46819768 350.99788887 242.2678699 343.17306232 276.27042866 C333.06393213 326.62058411 338.49098525 382.23571279 341.99526691 433.10323048 C342.11711643 434.93983978 342.23885035 436.77645675 342.36046028 438.61308193 C342.5849772 441.98911002 342.84087622 445.3605312 343.11804199 448.73260021 C343.82466364 458.29646203 343.16592606 465.48916087 337.7815218 473.68500233 C331.74792223 480.17940187 325.86520367 485.5586026 316.6408599 486.38722074 C315.1723123 486.38933402 315.1723123 486.38933402 313.67409706 486.39148998 C311.96819781 486.40116332 311.96819781 486.40116332 310.22783595 486.41103208 C308.98825812 486.40793488 307.74868029 486.40483767 306.4715395 486.40164661 C305.13363806 486.40538499 303.79573881 486.40998726 302.45784301 486.41537726 C298.78709923 486.42759983 295.11644665 486.42734767 291.44568717 486.42498851 C287.48438578 486.42458015 283.52311354 486.43562143 279.56182575 486.44510365 C271.80249435 486.46171119 264.04319333 486.46721311 256.28384564 486.4683284 C249.97496307 486.46927911 243.66609052 486.47339058 237.35721111 486.47972965 C219.46368048 486.4973424 201.57017383 486.50656862 183.67663447 486.5050687 C182.71214328 486.50498879 181.7476521 486.50490888 180.75393391 486.50482655 C179.78826253 486.50474478 178.82259115 486.50466302 177.82765701 486.50457878 C162.18320099 486.50376616 146.53884131 486.52289773 130.89441315 486.55110328 C114.82425687 486.5798473 98.75414755 486.5936427 82.68396491 486.59191573 C73.66447423 486.59125229 64.64508452 486.59672421 55.62561703 486.61827183 C47.9448855 486.63650374 40.26430069 486.64081459 32.58355687 486.62725298 C28.66720938 486.62073307 24.7511432 486.62057042 20.83482265 486.63795948 C17.24387748 486.65373929 13.6534355 486.65077724 10.06250223 486.63339122 C8.16014872 486.62889173 6.2577793 486.64394024 4.35548717 486.65987051 C-8.7032164 486.55545591 -17.91644346 482.49989643 -27.2575407 473.47797108 C-33.32824375 466.9284085 -37.68155652 458.56822558 -37.65622234 449.54926014 C-37.65614681 448.64862843 -37.65607128 447.74799671 -37.65599346 446.82007313 C-37.65083218 445.8563982 -37.64567089 444.89272327 -37.6403532 443.89984608 C-37.63893826 442.90668385 -37.63752331 441.91352161 -37.63606548 440.89026356 C-37.63047283 437.72155195 -37.61792165 434.55291129 -37.60519695 431.38422108 C-37.600181 429.23448251 -37.59561826 427.08474284 -37.59152508 424.93500233 C-37.58050581 419.66805109 -37.56377496 414.40114115 -37.54269695 409.13422108 C-39.54337851 409.14757252 -41.54406007 409.16092396 -43.54474163 409.1742754 C-48.3700657 409.07753896 -52.77641058 407.69727367 -56.40988445 404.48187733 C-62.23806479 397.88683115 -61.79083565 391.4800809 -61.83786297 383.0477953 C-61.84936239 381.6124735 -61.86978231 380.17719378 -61.89938641 378.74213123 C-62.20632576 363.8547154 -62.20632576 363.8547154 -57.54269695 358.13422108 C-50.3786307 352.57841459 -47.42881718 353.13422108 -37.54269695 353.13422108 C-37.54269695 341.25422108 -37.54269695 329.37422108 -37.54269695 317.13422108 C-40.51269695 317.13422108 -43.48269695 317.13422108 -46.54269695 317.13422108 C-53.25204045 315.43185034 -56.60358132 312.7907366 -60.54269695 307.13422108 C-62.77664829 302.6663184 -61.81127796 296.60865621 -61.83786297 291.64105701 C-61.85502679 289.40637639 -61.89890538 287.17319486 -61.94308758 284.93890858 C-61.95321938 283.50923193 -61.96173396 282.07954272 -61.9684782 280.64984608 C-61.98306072 279.35337147 -61.99764324 278.05689686 -62.01266766 276.72113514 C-61.3217763 271.44810876 -58.63780593 267.64899712 -54.54269695 264.32172108 C-48.7907465 260.12759053 -45.12784518 261.13422108 -37.54269695 261.13422108 C-37.54269695 249.25422108 -37.54269695 237.37422108 -37.54269695 225.13422108 C-40.84269695 225.13422108 -44.14269695 225.13422108 -47.54269695 225.13422108 C-54.10914771 222.6599063 -58.33545253 219.54870992 -61.54269695 213.13422108 C-61.8018713 208.63995919 -61.81377617 204.14184698 -61.83786297 199.64105701 C-61.85502679 197.40637639 -61.89890538 195.17319486 -61.94308758 192.93890858 C-61.95321938 191.50923193 -61.96173396 190.07954272 -61.9684782 188.64984608 C-61.99035198 186.70513416 -61.99035198 186.70513416 -62.01266766 184.72113514 C-61.32529722 179.47498116 -58.94164863 176.45954372 -55.16769695 172.88422108 C-49.04331708 168.80130116 -45.24833546 169.13422108 -37.54269695 169.13422108 C-37.54269695 157.25422108 -37.54269695 145.37422108 -37.54269695 133.13422108 C-41.17269695 133.13422108 -44.80269695 133.13422108 -48.54269695 133.13422108 C-54.06820112 131.36188955 -57.17677934 127.68424 -60.54269695 123.13422108 C-62.77664829 118.6663184 -61.81127796 112.60865621 -61.83786297 107.64105701 C-61.85502679 105.40637639 -61.89890538 103.17319486 -61.94308758 100.93890858 C-61.95321938 99.50923193 -61.96173396 98.07954272 -61.9684782 96.64984608 C-61.99035198 94.70513416 -61.99035198 94.70513416 -62.01266766 92.72113514 C-61.32529722 87.47498116 -58.94164863 84.45954372 -55.16769695 80.88422108 C-50.7652348 77.94924631 -47.07082363 77.03027788 -41.83957195 77.08734608 C-41.03358562 77.09411366 -40.2275993 77.10088123 -39.39718914 77.10785389 C-38.47921551 77.12090565 -38.47921551 77.12090565 -37.54269695 77.13422108 C-37.57411785 75.17585316 -37.57411785 75.17585316 -37.60617352 73.17792225 C-37.67910026 68.28952667 -37.72468686 63.40117824 -37.76242352 58.51239491 C-37.78241973 56.40489051 -37.80962589 54.29744074 -37.84445477 52.19012928 C-38.11893285 35.14423293 -37.19977389 23.16831724 -24.88644695 10.41937733 C-17.92252614 3.9646111 -9.49368816 0.0173112 0 0 Z M57.45730305 46.13422108 C57.45730305 176.15422108 57.45730305 306.17422108 57.45730305 440.13422108 C136.32730305 440.13422108 215.19730305 440.13422108 296.45730305 440.13422108 C296.45730305 400.20422108 296.45730305 360.27422108 296.45730305 319.13422108 C290.60008073 324.13760056 290.60008073 324.13760056 285.18459797 329.46796131 C284.42237431 330.26576511 283.66015064 331.06356892 282.87482929 331.88554859 C282.07060032 332.72944645 281.26637135 333.57334431 280.4377718 334.44281483 C278.67569153 336.26141561 276.9119653 338.07842276 275.14675617 339.8939867 C272.39858103 342.72181909 269.65970174 345.5559943 266.94778156 348.41864491 C256.51305321 359.41123758 247.72085357 368.23795508 232.95257282 372.39389515 C229.0930587 373.5389811 225.3394807 374.95622395 221.56208515 376.34483814 C217.36015205 377.88683063 213.14064217 379.37736594 208.92117023 380.8705492 C205.66815191 382.02309231 202.41818418 383.18397776 199.16824055 384.34515858 C197.08248201 385.08524646 194.99655087 385.82484814 192.91042805 386.56390858 C191.94792133 386.90864216 190.98541462 387.25337574 189.99374104 387.60855579 C178.31092938 391.72120275 178.31092938 391.72120275 172.70730305 389.94672108 C169.45730305 388.13422108 169.45730305 388.13422108 167.95730305 386.44672108 C166.36690169 379.09111479 169.83471508 371.85556593 172.5002718 365.16156483 C172.90635166 364.12085331 173.31243153 363.08014179 173.73081684 362.00789356 C175.02690757 358.69240171 176.33567351 355.3820831 177.64480305 352.07172108 C178.50565897 349.87478046 179.36569267 347.67751746 180.22488117 345.4799242 C184.76384272 333.88961187 184.76384272 333.88961187 186.28060627 330.25082874 C187.53704375 327.12361042 187.53704375 327.12361042 188.27315998 323.69705677 C191.8503214 311.01136878 201.24059163 305.24070584 211.488747 297.6760217 C246.72891038 271.57911589 293.23012159 236.80295051 300.9042505 191.04787815 C302.1386211 182.74857689 302.81225243 174.43422823 303.2737093 166.06000233 C303.34836639 164.78551751 303.34836639 164.78551751 303.4245317 163.48528552 C305.57581193 124.51149286 299.75177258 84.54837555 296.45730305 46.13422108 C217.58730305 46.13422108 138.71730305 46.13422108 57.45730305 46.13422108 Z M349.48255813 176.85080338 C348.93586916 177.40331803 348.38918018 177.95583269 347.82592487 178.52509022 C346.95356495 179.39488687 346.95356495 179.39488687 346.06358159 180.28225517 C344.10262677 182.23989768 342.14893731 184.20463689 340.19509602 186.16937733 C338.79623341 187.56880367 337.39693107 188.96779056 335.99722004 190.36636829 C332.18718257 194.17582979 328.38336121 197.99144496 324.58058405 201.8081522 C320.60962937 205.79157358 316.63304467 209.76936622 312.6570406 213.74774647 C305.1236625 221.28735131 297.59539892 228.83204182 290.06893647 236.37854958 C281.50224668 244.96756128 272.92990585 253.55092328 264.35707355 262.13380337 C246.71749869 279.79430727 229.08507169 297.46193338 211.45730305 315.13422108 C212.84337435 318.01433611 214.16299667 320.08608535 216.43826008 322.34222889 C217.03873158 322.94254932 217.63920307 323.54286976 218.25787067 324.16138172 C218.90376148 324.79694996 219.54965229 325.4325182 220.21511555 326.08734608 C220.878167 326.74756763 221.54121845 327.40778919 222.22436237 328.08801746 C224.33902137 330.19149931 226.46053517 332.28791249 228.58230305 334.38422108 C230.01895862 335.81084369 231.45516202 337.23792179 232.8908968 338.66547108 C236.40781109 342.16035769 239.93088852 345.64892169 243.45730305 349.13422108 C247.99651809 345.33337266 252.32635958 341.40913323 256.50013447 337.21164417 C257.06556212 336.64707095 257.63098976 336.08249773 258.21355158 335.50081623 C260.08746324 333.62853772 261.95780344 331.7527336 263.82815266 329.87689686 C265.17870676 328.52606039 266.52948168 327.17544466 267.88045979 325.82503223 C271.53299736 322.17278071 275.18245085 318.51746164 278.83134627 314.86157179 C282.65055331 311.03609911 286.47260626 307.21347193 290.29435444 303.39053822 C297.52452838 296.15726041 304.75215015 288.92143801 311.97885185 281.68469131 C320.20904217 273.44331048 328.44208369 265.20478049 336.67536247 256.96648526 C353.60584387 240.02556088 370.53275284 223.08107079 387.45730305 206.13422108 C386.52170865 205.03285314 385.58467613 203.93270681 384.64706135 202.83305836 C384.12541023 202.22028003 383.60375912 201.6075017 383.06630039 200.97615433 C380.57552179 198.1247836 377.92764544 195.44219252 375.25417805 192.76312733 C374.69031391 192.19593479 374.12644978 191.62874226 373.54549885 191.04436207 C372.3670119 189.86085868 371.18721003 188.67866327 370.00613117 187.49774647 C368.19268769 185.68208787 366.38742618 183.8585382 364.58230305 182.0346117 C363.43174997 180.88112936 362.2807255 179.72811697 361.12917805 178.57562733 C360.58960468 178.02886845 360.05003132 177.48210957 359.49410725 176.91878223 C354.94360492 172.39622319 354.0430205 172.32676162 349.48255813 176.85080338 Z " fill="#1F4571" transform="translate(70.54269695281982,12.865778923034668)"/>
<path d="M0 0 C1.64428734 -0.01073296 1.64428734 -0.01073296 3.3217926 -0.02168274 C4.51978989 -0.02437164 5.71778717 -0.02706055 6.9520874 -0.02983093 C8.85026466 -0.03968773 8.85026466 -0.03968773 10.78678894 -0.04974365 C14.97957094 -0.07073909 19.17235312 -0.08114181 23.36517334 -0.09111023 C24.81124643 -0.09515948 26.25731933 -0.09927645 27.70339203 -0.10346031 C34.49826049 -0.12250208 41.29311816 -0.13673522 48.08800817 -0.14507228 C55.9195658 -0.15484121 63.75084053 -0.18115571 71.58229852 -0.22157317 C77.64360292 -0.25177671 83.70482642 -0.26654516 89.7662046 -0.26985329 C93.38269861 -0.27219895 96.99889006 -0.28109566 100.61530304 -0.30631447 C104.65352562 -0.33402085 108.69111944 -0.32975119 112.72943115 -0.32279968 C113.91933151 -0.33560974 115.10923187 -0.3484198 116.33518982 -0.36161804 C123.23481758 -0.31835753 127.74039754 0.41816169 133.59954834 4.14717102 C137.72403687 8.48317179 138.71795775 11.74534968 138.77655029 17.62495422 C138.79580315 19.3073394 138.79580315 19.3073394 138.81544495 21.02371216 C138.82283188 22.2362114 138.83021881 23.44871063 138.83782959 24.69795227 C138.84590134 25.94465195 138.85397308 27.19135162 138.86228943 28.47583008 C138.87612942 31.11623348 138.88714611 33.75651206 138.89471436 36.39692688 C138.90357595 39.10028104 138.92445393 41.80312145 138.95623779 44.50630188 C138.99883596 48.40367685 139.01507351 52.30037362 139.02532959 56.19795227 C139.04283768 57.40437881 139.06034576 58.61080536 139.0783844 59.85379028 C139.06188489 66.23262462 139.02760305 70.37054495 134.59954834 75.14717102 C129.75827492 78.80282646 126.29683961 80.26757118 120.28138733 80.29434204 C118.62654076 80.305075 118.62654076 80.305075 116.93826294 80.31602478 C115.72731964 80.31871368 114.51637634 80.32140259 113.26873779 80.32417297 C111.99367874 80.33074417 110.71861969 80.33731537 109.40492249 80.34408569 C105.17423762 80.36511064 100.94355247 80.37548811 96.71282959 80.38545227 C95.25468616 80.38950072 93.79654293 80.39361767 92.33839989 80.39780235 C85.48586288 80.41685232 78.63333662 80.43108252 71.78077823 80.43941432 C63.88016095 80.4491798 55.97982436 80.47548183 48.07930595 80.51591522 C41.96706672 80.54611884 35.85490775 80.56088729 29.74259537 80.56419533 C26.09478845 80.56654143 22.44728145 80.57544354 18.79955482 80.60065651 C14.7253021 80.62836239 10.65167261 80.62409319 6.57733154 80.61714172 C5.3765094 80.62995178 4.17568726 80.64276184 2.93847656 80.65596008 C-3.98710466 80.61292001 -8.52178877 79.89613377 -14.40045166 76.14717102 C-18.4804566 71.85793506 -19.51569472 68.61207753 -19.59332275 62.79292297 C-19.60938568 61.69780899 -19.62544861 60.60269501 -19.64199829 59.47439575 C-19.68654566 54.4611121 -19.72752193 49.44795999 -19.75054932 44.43452454 C-19.76709536 41.79348429 -19.79436705 39.15248858 -19.83258057 36.51167297 C-19.88745966 32.69853033 -19.90924284 28.88643714 -19.92388916 25.07295227 C-19.94655853 23.89872208 -19.96922791 22.72449188 -19.99258423 21.51467896 C-19.97453634 14.48005173 -19.18634148 9.50781494 -14.40045166 4.14717102 C-9.79790929 0.66719996 -5.66316085 0.02542268 0 0 Z " fill="#A2D2FD" transform="translate(197.40045166015625,102.85282897949219)"/>
<path d="M0 0 C0.09350987 22.27053732 0.16401185 44.54104218 0.20724869 66.81173611 C0.22785939 77.1527965 0.2559515 87.49373479 0.30175781 97.8347168 C0.34167121 106.84965713 0.36744366 115.86450902 0.37635398 124.87953526 C0.38156109 129.6513785 0.39376863 134.42296874 0.42292023 139.19473076 C0.45016048 143.69024185 0.45842765 148.1853968 0.45243073 152.68098259 C0.45352712 154.32686806 0.46142967 155.972766 0.4768219 157.61857986 C0.62773494 174.59400659 0.62773494 174.59400659 -4 181 C-8.64446051 185.36842673 -13.00012632 187.12169276 -19.30753422 187.13701439 C-20.41506017 187.14208893 -21.52258612 187.14716347 -22.66367346 187.15239179 C-24.49631622 187.15313843 -24.49631622 187.15313843 -26.36598206 187.15390015 C-27.66005932 187.1582824 -28.95413659 187.16266465 -30.28742832 187.1671797 C-33.88704372 187.17914985 -37.48664572 187.18479469 -41.08627713 187.18936086 C-44.96580646 187.19531538 -48.84531974 187.20692569 -52.72483826 187.21765137 C-62.09857234 187.24218025 -71.47231174 187.25680397 -80.84606805 187.26971143 C-83.49374045 187.27342325 -86.14141232 187.2773965 -88.7890842 187.2814641 C-105.23085969 187.30670235 -121.67263602 187.32875545 -138.11442661 187.34119225 C-141.92337103 187.34412195 -145.73231542 187.34708361 -149.54125977 187.35009766 C-150.48795565 187.35084371 -151.43465154 187.35158976 -152.41003519 187.35235842 C-167.74174633 187.3650087 -183.07334141 187.3982269 -198.40499831 187.43989949 C-214.14621509 187.48233443 -229.88737249 187.50588915 -245.62864631 187.51111281 C-254.46654067 187.51452534 -263.30425372 187.52626171 -272.14209175 187.55921555 C-279.66995776 187.58723877 -287.19760531 187.59820549 -294.72551943 187.58702008 C-298.56483395 187.58183904 -302.40369113 187.58468346 -306.242939 187.60948563 C-310.41065286 187.63618429 -314.57736356 187.62389895 -318.74513245 187.60800171 C-319.95127923 187.6218838 -321.15742602 187.63576588 -322.4001227 187.65006864 C-331.87846705 187.5610597 -338.76913549 185.07676128 -345.875 178.75 C-352.10869261 171.9433753 -353.59829142 164.70867359 -353.390625 155.71484375 C-353.38496521 154.77314835 -353.37930542 153.83145294 -353.37347412 152.86122131 C-353.35128111 149.88610592 -353.30111825 146.91224452 -353.25 143.9375 C-353.22991288 141.90691857 -353.21166601 139.87631806 -353.1953125 137.84570312 C-353.15147253 132.8966604 -353.08256568 127.94854198 -353 123 C-347.06 123 -341.12 123 -335 123 C-334.97421875 125.82949219 -334.9484375 128.65898437 -334.921875 131.57421875 C-334.88343788 134.32130793 -334.83828306 137.06821047 -334.79248047 139.81518555 C-334.7642939 141.72101905 -334.74306784 143.62696895 -334.72900391 145.53295898 C-334.70754217 148.27648406 -334.66087635 151.01861313 -334.609375 153.76171875 C-334.60814636 154.61086349 -334.60691772 155.46000824 -334.60565186 156.33488464 C-334.58593323 157.13533707 -334.5662146 157.93578949 -334.54589844 158.76049805 C-334.53701599 159.45999069 -334.52813354 160.15948334 -334.51898193 160.88017273 C-333.67591764 164.32374285 -332.70337544 165.61422647 -330 168 C-325.96360395 168.78324939 -321.94639016 168.6691505 -317.84629822 168.62818909 C-316.58726309 168.63528347 -315.32822796 168.64237786 -314.03104025 168.64968723 C-310.53394658 168.66865343 -307.03755014 168.65635206 -303.54047382 168.6389643 C-299.77013411 168.62561637 -295.99989818 168.641018 -292.22956848 168.65278625 C-284.84287147 168.67118606 -277.4564386 168.66263528 -270.06974977 168.64469803 C-264.06823033 168.63068562 -258.06678271 168.62677629 -252.06524849 168.6301403 C-250.78514379 168.63085647 -250.78514379 168.63085647 -249.47917839 168.6315871 C-247.7456457 168.6326134 -246.01211303 168.63366876 -244.27858038 168.63475286 C-228.94274739 168.64332452 -213.60704214 168.62662927 -198.27124023 168.59692383 C-183.38023514 168.56808023 -168.48941404 168.56100465 -153.59838867 168.57641602 C-137.39280885 168.59316483 -121.18731642 168.59722628 -104.98173434 168.57970566 C-103.25480148 168.57786121 -101.52786862 168.57602649 -99.80093575 168.57420158 C-98.52631993 168.57283345 -98.52631993 168.57283345 -97.22595431 168.57143768 C-91.2290457 168.56582444 -85.23217967 168.56914672 -79.23527336 168.57574654 C-71.93082813 168.58346603 -64.62656424 168.57677719 -57.32215565 168.5515715 C-53.59314991 168.53904463 -49.86442694 168.53296816 -46.13541031 168.54411316 C-42.09891546 168.55594965 -38.06316848 168.53695859 -34.02671814 168.5146637 C-32.24630053 168.52702485 -32.24630053 168.52702485 -30.42991489 168.53963572 C-29.3535227 168.52858803 -28.27713052 168.51754034 -27.16812038 168.50615788 C-26.23579694 168.50496639 -25.3034735 168.50377491 -24.34289783 168.50254732 C-21.85579388 168.19633156 -21.85579388 168.19633156 -20.19807214 166.13964379 C-18.6071766 163.29845448 -18.66202803 161.30178604 -18.71566772 158.0526886 C-18.7276973 156.83487701 -18.73972687 155.61706543 -18.75212097 154.36235046 C-18.78040781 153.01540842 -18.80883982 151.66846943 -18.83740234 150.3215332 C-18.85622222 148.90028801 -18.8734709 147.47902127 -18.88926697 146.05773926 C-18.92498762 142.99598107 -18.96857108 139.93446772 -19.01722336 136.87288857 C-19.09102133 132.01627671 -19.12687408 127.15985244 -19.15371704 122.30278015 C-19.15841896 121.4815535 -19.16312089 120.66032684 -19.16796529 119.81421453 C-19.1775113 118.13456838 -19.18697074 116.45492174 -19.19634557 114.77527463 C-19.26101085 103.47180382 -19.35011064 92.16996865 -19.54492188 80.86791992 C-19.67611756 73.23986561 -19.74566382 65.61388316 -19.74652636 57.98466748 C-19.74940291 53.95378798 -19.7822636 49.92848016 -19.8909111 45.89895058 C-20.60939351 18.20624302 -20.60939351 18.20624302 -11.84293556 8.64113903 C-2.6423612 0 -2.6423612 0 0 0 Z " fill="#A1D0FC" transform="translate(400,298)"/>
<path d="M0 0 C1.30399293 -0.00765109 2.60798587 -0.01530219 3.95149374 -0.02318513 C7.55100865 -0.0436738 11.15012357 -0.03940024 14.74967074 -0.03082395 C18.63933484 -0.02587646 22.52890424 -0.04393363 26.41853333 -0.05889893 C34.03042684 -0.08435965 41.64217914 -0.08798464 49.25410807 -0.0832984 C55.44185685 -0.0797286 61.62956285 -0.0832387 67.81730652 -0.09174728 C69.13959 -0.09353285 69.13959 -0.09353285 70.48858628 -0.09535449 C72.2795239 -0.09777805 74.07046151 -0.10020631 75.86139911 -0.10263924 C92.64503238 -0.12437677 109.42858521 -0.12007121 126.21222299 -0.10786955 C141.56043912 -0.09752818 156.90840149 -0.12005227 172.25656742 -0.15806599 C188.02624289 -0.1968236 203.79579831 -0.21333494 219.56552172 -0.20581949 C228.4150379 -0.20199603 237.26433802 -0.20696496 246.11381531 -0.23524857 C253.64601419 -0.25907912 261.17786394 -0.26188296 268.71006763 -0.23766823 C272.55137761 -0.22589321 276.39204904 -0.22368264 280.23331642 -0.24767303 C284.40124844 -0.27340079 288.56766198 -0.25245745 292.7355957 -0.22705078 C293.94445356 -0.24179935 295.15331141 -0.25654792 296.39880133 -0.27174342 C304.05353081 -0.17354923 309.17373254 1.23935864 314.86779785 6.52139282 C320.06931411 13.0346194 319.52097666 20.85465151 319.5916748 28.83755493 C319.61841719 30.27914101 319.64663027 31.72070045 319.67619324 33.16223145 C319.76501025 37.87419124 319.81188527 42.58618175 319.8560791 47.29873657 C319.87360367 48.93035154 319.89133238 50.56196433 319.9092617 52.19357491 C319.98142837 58.98869754 320.04358258 65.78376726 320.07713032 72.57919979 C320.12497495 82.26933832 320.23102299 91.95461264 320.42162353 101.64303201 C320.55149584 108.48249221 320.61482697 115.32067539 320.6299836 122.16134077 C320.64061345 126.23441598 320.6784954 130.30258009 320.78746986 134.37431145 C321.49851891 162.30181747 321.49851891 162.30181747 312.7086134 171.90013218 C303.52536968 180.52139282 303.52536968 180.52139282 300.86779785 180.52139282 C300.86144994 179.30410634 300.86144994 179.30410634 300.85497379 178.0622282 C300.7517532 158.33308691 300.64312839 138.60398187 300.5284586 118.87490368 C300.47313647 109.33414631 300.41965611 99.7933852 300.3704834 90.25259399 C300.32762921 81.93866114 300.28134807 73.62475571 300.2309193 65.31086522 C300.20432834 60.90709852 300.17947548 56.50333722 300.15872383 52.0995388 C300.13914941 47.95704094 300.11500317 43.81459522 300.08730698 39.67214394 C300.07794082 38.14954703 300.07026397 36.62693868 300.06437874 35.10432434 C300.05611016 33.02964131 300.04183141 30.95508459 300.02601624 28.88044739 C300.01956368 27.71806643 300.01311113 26.55568548 300.00646305 25.35808086 C299.9917502 22.44403043 299.9917502 22.44403043 298.86779785 19.52139282 C259.44374073 19.42989288 220.01969742 19.35938238 180.59555538 19.3171315 C175.9441152 19.31212851 171.29267522 19.30695124 166.64123535 19.30166626 C165.25217335 19.3000924 165.25217335 19.3000924 163.83504948 19.29848674 C148.82891137 19.2810683 133.82283438 19.24952271 118.81673256 19.21278164 C103.42594816 19.1754122 88.03519584 19.15316545 72.64436793 19.14503884 C63.14279567 19.13954276 53.64139615 19.12216668 44.13987705 19.08972695 C37.62962142 19.06862838 31.11945545 19.06218218 24.60916808 19.06738731 C20.84965927 19.06995639 17.09045289 19.06594178 13.33099747 19.04457092 C9.25967025 19.02159554 5.1889917 19.02941239 1.11761475 19.04037476 C-0.67419916 19.02289771 -0.67419916 19.02289771 -2.50221133 19.00506759 C-3.59002815 19.01303178 -4.67784498 19.02099597 -5.79862595 19.02920151 C-6.73881348 19.02768263 -7.67900102 19.02616374 -8.64767909 19.02459884 C-11.88437416 19.67179373 -13.08258193 20.99227044 -15.13220215 23.52139282 C-15.73655604 25.56068046 -15.73655604 25.56068046 -15.67810059 27.73916626 C-15.70767853 28.96998932 -15.70767853 28.96998932 -15.737854 30.22567749 C-15.73969696 31.5399472 -15.73969696 31.5399472 -15.74157715 32.88076782 C-15.7581134 33.78514587 -15.77464966 34.68952393 -15.79168701 35.62130737 C-15.84020194 38.50473803 -15.86154559 41.38764116 -15.88220215 44.27139282 C-15.91035893 46.22845066 -15.94028594 48.18548389 -15.9720459 50.14248657 C-16.0492902 54.93569877 -16.08977602 59.72724023 -16.13220215 64.52139282 C-22.07220215 64.52139282 -28.01220215 64.52139282 -34.13220215 64.52139282 C-34.25662029 58.58071365 -34.34692571 52.64080751 -34.40686035 46.6991272 C-34.43186795 44.68174004 -34.46588555 42.66444223 -34.50939941 40.64736938 C-34.7830566 27.62772656 -34.95308742 17.78944652 -25.88220215 7.64639282 C-18.05382843 0.6773303 -10.18478105 -0.06368256 0 0 Z " fill="#A1D1FC" transform="translate(81.1322021484375,26.478607177734375)"/>
<path d="M0 0 C11.55 0 23.1 0 35 0 C35 130.02 35 260.04 35 394 C23.45 394 11.9 394 0 394 C0 383.44 0 372.88 0 362 C4.29 361.34 8.58 360.68 13 360 C17.34043165 357.94400606 19.83012195 355.57379409 22.16430664 351.35668945 C24.02315614 346.11465784 23.52528269 340.42816567 23.4375 334.9375 C23.44458984 333.68388672 23.45167969 332.43027344 23.45898438 331.13867188 C23.4156007 324.86138792 23.27951175 320.50567521 20 315 C13.64840272 308.78954933 8.79186067 308.09898258 0 307 C0 294.79 0 282.58 0 270 C3.96 269.67 7.92 269.34 12 269 C17.84278855 265.55835743 20.29919471 263.22757604 23 257 C23.59606556 252.367256 23.46389612 247.7298142 23.4375 243.0625 C23.45748047 241.81275391 23.47746094 240.56300781 23.49804688 239.27539062 C23.49435266 232.31918769 23.3017841 227.58601634 19 222 C12.7656236 216.22179748 9.22870595 216.83897327 0 216 C0 203.46 0 190.92 0 178 C3.63 177.67 7.26 177.34 11 177 C16.44700626 175.01927045 19.09828079 172.09985788 22.08618164 167.22949219 C24.10972172 162.29255177 23.41340658 156.50771952 23.4375 151.25 C23.47037109 149.99960938 23.50324219 148.74921875 23.53710938 147.4609375 C23.58050508 139.99687599 23.08441254 134.6907675 18 129 C12.23788798 123.51896661 9.00282892 124.75023574 0 124 C0 111.79 0 99.58 0 87 C5.445 86.01 5.445 86.01 11 85 C16.42728609 82.92776349 19.0825934 80.12542878 22.08618164 75.22949219 C24.10972172 70.29255177 23.41340658 64.50771952 23.4375 59.25 C23.47037109 57.99960938 23.50324219 56.74921875 23.53710938 55.4609375 C23.57950339 48.16916744 23.25683048 42.43437788 18 37 C12.35872882 32.71215985 7.21145262 32.72114526 0 32 C0 21.44 0 10.88 0 0 Z " fill="#A0D0FB" transform="translate(79,59)"/>
<path d="M0 0 C1.64428734 -0.01073296 1.64428734 -0.01073296 3.3217926 -0.02168274 C4.51978989 -0.02437164 5.71778717 -0.02706055 6.9520874 -0.02983093 C8.85026466 -0.03968773 8.85026466 -0.03968773 10.78678894 -0.04974365 C14.97957094 -0.07073909 19.17235312 -0.08114181 23.36517334 -0.09111023 C24.81124643 -0.09515948 26.25731933 -0.09927645 27.70339203 -0.10346031 C34.49826049 -0.12250208 41.29311816 -0.13673522 48.08800817 -0.14507228 C55.9195658 -0.15484121 63.75084053 -0.18115571 71.58229852 -0.22157317 C77.64360292 -0.25177671 83.70482642 -0.26654516 89.7662046 -0.26985329 C93.38269861 -0.27219895 96.99889006 -0.28109566 100.61530304 -0.30631447 C104.65352562 -0.33402085 108.69111944 -0.32975119 112.72943115 -0.32279968 C113.91933151 -0.33560974 115.10923187 -0.3484198 116.33518982 -0.36161804 C123.23481758 -0.31835753 127.74039754 0.41816169 133.59954834 4.14717102 C137.72403687 8.48317179 138.71795775 11.74534968 138.77655029 17.62495422 C138.79580315 19.3073394 138.79580315 19.3073394 138.81544495 21.02371216 C138.82283188 22.2362114 138.83021881 23.44871063 138.83782959 24.69795227 C138.84590134 25.94465195 138.85397308 27.19135162 138.86228943 28.47583008 C138.87612942 31.11623348 138.88714611 33.75651206 138.89471436 36.39692688 C138.90357595 39.10028104 138.92445393 41.80312145 138.95623779 44.50630188 C138.99883596 48.40367685 139.01507351 52.30037362 139.02532959 56.19795227 C139.04283768 57.40437881 139.06034576 58.61080536 139.0783844 59.85379028 C139.06188489 66.23262462 139.02760305 70.37054495 134.59954834 75.14717102 C129.75827492 78.80282646 126.29683961 80.26757118 120.28138733 80.29434204 C118.62654076 80.305075 118.62654076 80.305075 116.93826294 80.31602478 C115.72731964 80.31871368 114.51637634 80.32140259 113.26873779 80.32417297 C111.99367874 80.33074417 110.71861969 80.33731537 109.40492249 80.34408569 C105.17423762 80.36511064 100.94355247 80.37548811 96.71282959 80.38545227 C95.25468616 80.38950072 93.79654293 80.39361767 92.33839989 80.39780235 C85.48586288 80.41685232 78.63333662 80.43108252 71.78077823 80.43941432 C63.88016095 80.4491798 55.97982436 80.47548183 48.07930595 80.51591522 C41.96706672 80.54611884 35.85490775 80.56088729 29.74259537 80.56419533 C26.09478845 80.56654143 22.44728145 80.57544354 18.79955482 80.60065651 C14.7253021 80.62836239 10.65167261 80.62409319 6.57733154 80.61714172 C5.3765094 80.62995178 4.17568726 80.64276184 2.93847656 80.65596008 C-3.98710466 80.61292001 -8.52178877 79.89613377 -14.40045166 76.14717102 C-18.4804566 71.85793506 -19.51569472 68.61207753 -19.59332275 62.79292297 C-19.60938568 61.69780899 -19.62544861 60.60269501 -19.64199829 59.47439575 C-19.68654566 54.4611121 -19.72752193 49.44795999 -19.75054932 44.43452454 C-19.76709536 41.79348429 -19.79436705 39.15248858 -19.83258057 36.51167297 C-19.88745966 32.69853033 -19.90924284 28.88643714 -19.92388916 25.07295227 C-19.94655853 23.89872208 -19.96922791 22.72449188 -19.99258423 21.51467896 C-19.97453634 14.48005173 -19.18634148 9.50781494 -14.40045166 4.14717102 C-9.79790929 0.66719996 -5.66316085 0.02542268 0 0 Z M-5.40045166 16.14717102 C-5.5039536 17.64038399 -5.53895905 19.13842759 -5.54571533 20.63520813 C-5.55209518 21.58967331 -5.55847504 22.54413849 -5.56504822 23.52752686 C-5.56616104 24.56603287 -5.56727386 25.60453888 -5.56842041 26.67451477 C-5.57174881 27.73376663 -5.57507721 28.79301849 -5.57850647 29.8843689 C-5.58358035 32.1297614 -5.58591465 34.37516147 -5.58575439 36.62055969 C-5.58794007 40.0664048 -5.60608887 43.51192954 -5.62506104 46.9577179 C-5.62799495 49.13414909 -5.62997976 51.31058181 -5.63092041 53.48701477 C-5.63810593 54.52349655 -5.64529144 55.55997833 -5.6526947 56.62786865 C-5.64961807 57.58548599 -5.64654144 58.54310333 -5.64337158 59.52973938 C-5.6447966 60.3749968 -5.64622162 61.22025421 -5.64768982 62.09112549 C-5.58822389 64.37115096 -5.58822389 64.37115096 -3.40045166 66.14717102 C-1.09855657 66.45143723 -1.09855657 66.45143723 1.61004639 66.40113831 C2.67008881 66.40677795 3.73013123 66.4124176 4.82229614 66.41822815 C5.99015656 66.41417969 7.15801697 66.41013123 8.36126709 66.40596008 C9.58729645 66.40946472 10.81332581 66.41296936 12.07650757 66.4165802 C15.44427074 66.42388936 18.81178912 66.42215513 22.17953873 66.41582203 C25.69934678 66.41076821 29.21914418 66.41545175 32.73895264 66.41859436 C38.65051152 66.42223582 44.56202047 66.41743022 50.47357178 66.40791321 C57.31391876 66.39702829 64.15414653 66.40055374 70.99449062 66.41156602 C76.86119071 66.4206338 82.72785484 66.42192668 88.59455967 66.41668868 C92.10123716 66.41356616 95.60785856 66.41316731 99.11453247 66.41976166 C103.02234554 66.42659667 106.93002443 66.41713065 110.83782959 66.40596008 C112.58962021 66.41203278 112.58962021 66.41203278 114.37680054 66.41822815 C115.96686417 66.40976868 115.96686417 66.40976868 117.58905029 66.40113831 C118.5137764 66.40038425 119.4385025 66.3996302 120.39125061 66.3988533 C122.80598555 66.35572525 122.80598555 66.35572525 124.59954834 64.14717102 C124.89833545 62.01242297 124.89833545 62.01242297 124.84246826 59.52973938 C124.84554489 58.57212204 124.84862152 57.6145047 124.85179138 56.62786865 C124.84460587 55.59138687 124.83742035 54.55490509 124.83001709 53.48701477 C124.82955887 52.42680618 124.82910065 51.3665976 124.82862854 50.27426147 C124.82560405 48.03063337 124.8177119 45.7870074 124.80535889 43.54341125 C124.78710567 40.09550093 124.78484913 36.64785898 124.78509521 33.1999054 C124.7801801 31.02477285 124.77435181 28.84964213 124.76751709 26.67451477 C124.76584785 25.11675575 124.76584785 25.11675575 124.7641449 23.52752686 C124.75776505 22.57306168 124.75138519 21.6185965 124.74481201 20.63520813 C124.74100021 19.79074631 124.73718842 18.94628448 124.73326111 18.07623291 C124.81113737 16.13992056 124.81113737 16.13992056 123.59954834 15.14717102 C121.94429011 15.04888302 120.28482162 15.02085126 118.62664795 15.02018738 C117.01123611 15.01595764 117.01123611 15.01595764 115.3631897 15.01164246 C113.57559738 15.0146788 113.57559738 15.0146788 111.75189209 15.01777649 C110.50489532 15.01602417 109.25789856 15.01427185 107.97311401 15.01246643 C104.5434423 15.00880813 101.11383055 15.00968141 97.68416214 15.01284552 C94.10248989 15.01536941 90.52082029 15.0130315 86.93914795 15.01145935 C80.9232741 15.00963774 74.90741251 15.01204374 68.89154053 15.01679993 C61.92682507 15.02224253 54.96213888 15.02047987 47.99742413 15.01497352 C42.02800845 15.01044215 36.0586016 15.00979196 30.08918476 15.01241219 C26.51938204 15.01397483 22.9495931 15.01416909 19.37979126 15.0108757 C15.40225071 15.00746277 11.4247432 15.01218713 7.44720459 15.01777649 C6.25547638 15.01575226 5.06374817 15.01372803 3.83590698 15.01164246 C2.75896576 15.01446228 1.68202454 15.0172821 0.57244873 15.02018738 C-0.84009438 15.02075292 -0.84009438 15.02075292 -2.28117371 15.02132988 C-4.38554026 14.91094301 -4.38554026 14.91094301 -5.40045166 16.14717102 Z " fill="#1F4671" transform="translate(197.40045166015625,102.85282897949219)"/>
<path d="M0 0 C6.26394826 3.31826256 10.36171629 8.55610204 12.52734375 15.2734375 C14.25490901 23.18311644 13.06059811 29.47616263 9 36.4375 C6.62180788 39.35660113 3.99285138 41.92566028 1.25 44.5 C0.55261719 45.17482422 -0.14476562 45.84964844 -0.86328125 46.54492188 C-2.56455739 48.18793513 -4.27637807 49.81800021 -6 51.4375 C-8.95265112 50.10755617 -11.02350216 48.65970684 -13.29980469 46.36474609 C-13.92014587 45.74425385 -14.54048706 45.1237616 -15.17962646 44.48446655 C-15.83706848 43.81670197 -16.4945105 43.14893738 -17.171875 42.4609375 C-18.1955014 41.43306625 -18.1955014 41.43306625 -19.23980713 40.38442993 C-21.41461598 38.19844155 -23.58236072 36.00559571 -25.75 33.8125 C-27.2247999 32.32766745 -28.70005506 30.84328694 -30.17578125 29.359375 C-33.78915448 25.7239709 -37.39620853 22.08240176 -41 18.4375 C-40.05409186 17.32784793 -39.10730519 16.21894472 -38.16015625 15.11035156 C-37.63301025 14.49274963 -37.10586426 13.87514771 -36.56274414 13.23883057 C-34.45347201 10.80753278 -32.25403053 8.48487727 -30 6.1875 C-29.195625 5.35734375 -28.39125 4.5271875 -27.5625 3.671875 C-19.88369038 -3.02367241 -9.3982748 -3.70186715 0 0 Z " fill="#A2D2FD" transform="translate(476,156.5625)"/>
<path d="M0 0 C1.70209877 0.00333092 1.70209877 0.00333092 3.43858337 0.00672913 C4.71983597 0.00680466 6.00108856 0.00688019 7.32116699 0.00695801 C8.73001646 0.01206542 10.13886554 0.01728143 11.54771423 0.02259827 C12.98118033 0.02446249 14.41464706 0.02588637 15.84811401 0.02688599 C19.62765755 0.03071079 23.40716288 0.04054075 27.18669128 0.05158997 C31.04075097 0.06180489 34.8948168 0.06638378 38.74888611 0.07142639 C46.31596085 0.08216306 53.88300407 0.09923903 61.45005798 0.12025452 C63.39351772 4.007174 62.63486601 8.84540033 62.63755798 13.12025452 C62.64980408 14.14377014 62.66205017 15.16728577 62.67466736 16.22181702 C62.67660095 17.19892639 62.67853455 18.17603577 62.68052673 19.18275452 C62.68463562 20.08123108 62.68874451 20.97970764 62.69297791 21.90541077 C62.45005798 24.12025452 62.45005798 24.12025452 60.45005798 26.12025452 C57.86924744 26.3742218 57.86924744 26.3742218 54.56333923 26.37904358 C53.32865906 26.3853479 52.09397888 26.39165222 50.82188416 26.39814758 C49.46877399 26.3945679 48.11566511 26.39046596 46.76255798 26.38587952 C45.38015169 26.38722626 43.99774586 26.38916687 42.61534119 26.39167786 C39.71677648 26.39462869 36.81833495 26.39033288 33.91978455 26.3809967 C30.20045161 26.36960206 26.4814073 26.37616177 22.76208496 26.38814163 C19.90710772 26.3953614 17.05219914 26.3930718 14.19721985 26.38788605 C12.82565782 26.38654987 11.45408959 26.38819618 10.08253479 26.39284515 C8.16728328 26.397912 6.25200998 26.38882283 4.33677673 26.37904358 C3.24582703 26.37745239 2.15487732 26.37586121 1.03086853 26.3742218 C-1.54994202 26.12025452 -1.54994202 26.12025452 -3.54994202 24.12025452 C-3.79286194 21.79774475 -3.79286194 21.79774475 -3.78041077 18.92884827 C-3.77847717 17.90210999 -3.77654358 16.8753717 -3.77455139 15.81752014 C-3.7623053 14.74179749 -3.7500592 13.66607483 -3.73744202 12.55775452 C-3.73679749 11.47816467 -3.73615295 10.39857483 -3.73548889 9.28627014 C-3.68394092 0.17373357 -3.68394092 0.17373357 0 0 Z " fill="#A3D3FE" transform="translate(26.549942016601563,380.87974548339844)"/>
<path d="M0 0 C1.85202026 -0.00945648 1.85202026 -0.00945648 3.74145508 -0.019104 C5.09456525 -0.01552432 6.44767412 -0.01142238 7.80078125 -0.00683594 C9.18318754 -0.00818268 10.56559338 -0.01012329 11.94799805 -0.01263428 C14.84656276 -0.01558511 17.74500428 -0.0112893 20.64355469 -0.00195312 C24.36288762 0.00944152 28.08193193 0.00288181 31.80125427 -0.00909805 C34.65623152 -0.01631782 37.5111401 -0.01402822 40.36611938 -0.00884247 C41.73768142 -0.00750629 43.10924964 -0.0091526 44.48080444 -0.01380157 C46.39605595 -0.01886842 48.31132926 -0.00977925 50.2265625 0 C51.31751221 0.00159119 52.40846191 0.00318237 53.5324707 0.00482178 C56.11328125 0.25878906 56.11328125 0.25878906 58.11328125 2.25878906 C58.35620117 4.47363281 58.35620117 4.47363281 58.34375 7.19628906 C58.34181641 8.17339844 58.33988281 9.15050781 58.33789062 10.15722656 C58.32564453 11.18074219 58.31339844 12.20425781 58.30078125 13.25878906 C58.29981445 14.7940625 58.29981445 14.7940625 58.29882812 16.36035156 C58.25360376 23.97814404 58.25360376 23.97814404 57.11328125 26.25878906 C48.78599178 26.28191591 40.45871562 26.29970589 32.13140202 26.31060123 C28.26508007 26.31582932 24.39878004 26.3229256 20.5324707 26.33422852 C16.80424724 26.34506006 13.07604491 26.35106646 9.34780693 26.35366631 C7.92238469 26.35552007 6.49696366 26.35913977 5.07155037 26.36451912 C3.08164717 26.37173299 1.09172291 26.37219715 -0.89819336 26.37231445 C-2.03292587 26.37453506 -3.16765839 26.37675568 -4.33677673 26.37904358 C-6.88671875 26.25878906 -6.88671875 26.25878906 -7.88671875 25.25878906 C-8.13880597 21.45290762 -8.07194219 17.6345345 -8.07421875 13.82128906 C-8.08646484 12.74556641 -8.09871094 11.66984375 -8.11132812 10.56152344 C-8.11326172 9.53478516 -8.11519531 8.50804688 -8.1171875 7.45019531 C-8.12129639 6.50345947 -8.12540527 5.55672363 -8.12963867 4.58129883 C-7.5985088 -0.49672979 -4.26734984 0.00622407 0 0 Z " fill="#A3D3FE" transform="translate(30.88671875,104.7412109375)"/>
<path d="M0 0 C1.25477646 -0.00637985 2.50955292 -0.0127597 3.80235291 -0.01933289 C5.18276939 -0.02086145 6.56318638 -0.02197547 7.94360352 -0.02270508 C9.34985896 -0.025916 10.75611405 -0.02927995 12.16236877 -0.03279114 C15.11395034 -0.03878864 18.06550261 -0.04063041 21.01708984 -0.04003906 C24.80481022 -0.03993742 28.59234324 -0.05358917 32.38001919 -0.07081127 C35.28559741 -0.08191375 38.1911301 -0.08395881 41.09672737 -0.08342934 C42.49341541 -0.08461212 43.89010452 -0.08905054 45.28677177 -0.0967617 C47.23803178 -0.10652558 49.1893464 -0.10242867 51.140625 -0.09765625 C52.2523558 -0.09908127 53.36408661 -0.10050629 54.50950623 -0.10197449 C57.13500977 0.14526367 57.13500977 0.14526367 59.13500977 2.14526367 C59.39379883 4.36010742 59.39379883 4.36010742 59.40063477 7.08276367 C59.40450195 8.54842773 59.40450195 8.54842773 59.40844727 10.04370117 C59.40071289 11.0672168 59.39297852 12.09073242 59.38500977 13.14526367 C59.39661133 14.68053711 59.39661133 14.68053711 59.40844727 16.24682617 C59.40586914 17.22393555 59.40329102 18.20104492 59.40063477 19.20776367 C59.39837891 20.10624023 59.39612305 21.0047168 59.39379883 21.93041992 C59.13500977 24.14526367 59.13500977 24.14526367 57.13500977 26.14526367 C54.55419922 26.39923096 54.55419922 26.39923096 51.24829102 26.40405273 C50.01361084 26.41035706 48.77893066 26.41666138 47.50683594 26.42315674 C46.15372577 26.41957705 44.8006169 26.41547512 43.44750977 26.41088867 C42.06510347 26.41223542 40.68269764 26.41417603 39.30029297 26.41668701 C36.40172826 26.41963785 33.50328673 26.41534203 30.60473633 26.40600586 C26.88540339 26.39461122 23.16635908 26.40117092 19.44703674 26.41315079 C16.5920595 26.42037055 13.73715092 26.41808095 10.88217163 26.4128952 C9.5106096 26.41155902 8.13904138 26.41320533 6.76748657 26.41785431 C4.85223506 26.42292115 2.93696176 26.41383198 1.02172852 26.40405273 C-0.06922119 26.40246155 -1.1601709 26.40087036 -2.28417969 26.39923096 C-4.86499023 26.14526367 -4.86499023 26.14526367 -6.86499023 24.14526367 C-7.10791016 21.82275391 -7.10791016 21.82275391 -7.09545898 18.95385742 C-7.09352539 17.92711914 -7.0915918 16.90038086 -7.08959961 15.8425293 C-7.07735352 14.76680664 -7.06510742 13.69108398 -7.05249023 12.58276367 C-7.0518457 11.50317383 -7.05120117 10.42358398 -7.05053711 9.3112793 C-6.99800071 0.02401127 -6.99800071 0.02401127 0 0 Z " fill="#A3D3FE" transform="translate(29.864990234375,288.854736328125)"/>
<path d="M0 0 C1.85202026 -0.00945648 1.85202026 -0.00945648 3.74145508 -0.019104 C5.09456525 -0.01552432 6.44767412 -0.01142238 7.80078125 -0.00683594 C9.18318754 -0.00818268 10.56559338 -0.01012329 11.94799805 -0.01263428 C14.84656276 -0.01558511 17.74500428 -0.0112893 20.64355469 -0.00195312 C24.36288762 0.00944152 28.08193193 0.00288181 31.80125427 -0.00909805 C34.65623152 -0.01631782 37.5111401 -0.01402822 40.36611938 -0.00884247 C41.73768142 -0.00750629 43.10924964 -0.0091526 44.48080444 -0.01380157 C46.39605595 -0.01886842 48.31132926 -0.00977925 50.2265625 0 C51.31751221 0.00159119 52.40846191 0.00318237 53.5324707 0.00482178 C56.11328125 0.25878906 56.11328125 0.25878906 58.11328125 2.25878906 C58.37207031 4.47363281 58.37207031 4.47363281 58.37890625 7.19628906 C58.38277344 8.66195312 58.38277344 8.66195312 58.38671875 10.15722656 C58.37898438 11.18074219 58.37125 12.20425781 58.36328125 13.25878906 C58.37488281 14.7940625 58.37488281 14.7940625 58.38671875 16.36035156 C58.38414063 17.33746094 58.3815625 18.31457031 58.37890625 19.32128906 C58.37665039 20.21976563 58.37439453 21.11824219 58.37207031 22.04394531 C58.11328125 24.25878906 58.11328125 24.25878906 56.11328125 26.25878906 C53.48104858 26.4992981 53.48104858 26.4992981 50.10302734 26.48583984 C48.21129288 26.48561325 48.21129288 26.48561325 46.28134155 26.48538208 C44.89979903 26.47516804 43.5182581 26.46473604 42.13671875 26.45410156 C40.72710368 26.45037194 39.31748602 26.44752473 37.90786743 26.44552612 C34.19568743 26.43788561 30.48366364 26.41823367 26.77154541 26.39611816 C22.98443719 26.37566865 19.19730375 26.36652633 15.41015625 26.35644531 C7.97779332 26.33498806 0.54555917 26.30084722 -6.88671875 26.25878906 C-8.83017849 22.37186958 -8.07152678 17.53364325 -8.07421875 13.25878906 C-8.08646484 12.23527344 -8.09871094 11.21175781 -8.11132812 10.15722656 C-8.11422852 8.6915625 -8.11422852 8.6915625 -8.1171875 7.19628906 C-8.12129639 6.2978125 -8.12540527 5.39933594 -8.12963867 4.47363281 C-7.58164482 -0.52274928 -4.17023489 0.00608243 0 0 Z " fill="#A3D3FE" transform="translate(30.88671875,196.7412109375)"/>
<path d="M0 0 C4.07637122 1.62275148 6.82612042 4.53715823 9.859375 7.59375 C10.40861633 8.14107788 10.95785767 8.68840576 11.52374268 9.25231934 C12.67925859 10.4064778 13.83226685 11.56315167 14.98291016 12.72216797 C16.750735 14.50073946 18.5290213 16.26834763 20.30859375 18.03515625 C21.43032971 19.15821308 22.55144551 20.28188976 23.671875 21.40625 C24.20617126 21.9364978 24.74046753 22.46674561 25.29095459 23.01306152 C29 26.77006146 29 26.77006146 29 29 C24.05744594 30.80004704 19.11355691 32.59636295 14.16845703 34.3894043 C12.49036105 34.99843491 10.81261843 35.60844014 9.13525391 36.21948242 C0.4821788 39.37097463 -8.13127427 42.49833296 -17 45 C-14.47692769 35.30761697 -10.56669352 26.136529 -6.8125 16.875 C-6.1512898 15.23453734 -5.49047918 13.59391356 -4.83007812 11.953125 C-3.22465388 7.96687713 -1.61383429 3.98285006 0 0 Z " fill="#A1D1FC" transform="translate(272,342)"/>
<path d="M0 0 C5.94 0 11.88 0 18 0 C18 12.54 18 25.08 18 38 C12.06 38 6.12 38 0 38 C0 25.46 0 12.92 0 0 Z " fill="#9FCEFA" transform="translate(47,329)"/>
<path d="M0 0 C5.94 0 11.88 0 18 0 C18 12.54 18 25.08 18 38 C12.06 38 6.12 38 0 38 C0 25.46 0 12.92 0 0 Z " fill="#9FCEFA" transform="translate(47,237)"/>
<path d="M0 0 C5.94 0 11.88 0 18 0 C18 12.54 18 25.08 18 38 C12.06 38 6.12 38 0 38 C0 25.46 0 12.92 0 0 Z " fill="#9FCEF9" transform="translate(47,145)"/>
</svg>
