<?xml version="1.0" encoding="UTF-8"?>
<svg version="1.1" xmlns="http://www.w3.org/2000/svg" width="512" height="512">
<path d="M0 0 C3.12040818 3.36206925 4.65840095 6.21955405 5.83325195 10.62866211 C6.14000854 11.75552933 6.44676514 12.88239655 6.76281738 14.04341125 C7.08472046 15.27560898 7.40662354 16.5078067 7.73828125 17.77734375 C8.094187 19.10320782 8.45119316 20.42877692 8.8092041 21.7540741 C9.78572113 25.38128521 10.74685041 29.01242092 11.70550919 32.64438629 C12.73235662 36.52365079 13.77356562 40.39905789 14.81323242 44.27490234 C16.60712082 50.96981234 18.39229946 57.66699469 20.171875 64.36572266 C23.05858773 75.23073219 25.96543904 86.09030904 28.875 96.94921875 C31.83864753 108.01107649 34.80040444 119.07341573 37.74951172 130.13916016 C41.80690059 145.35980172 45.86455646 160.57954546 50.03987312 175.76834106 C50.88983747 178.86233684 51.73590646 181.95739868 52.58276367 185.05224609 C53.77379132 189.4037445 54.97875169 193.75101923 56.19262695 198.09619141 C56.71101732 199.98714904 57.22887813 201.87825196 57.74609375 203.76953125 C58.0957872 204.99599617 58.0957872 204.99599617 58.45254517 206.24723816 C59.81268619 211.28273762 61.19562249 216.82204955 60 222 C57.11420218 225.76462005 54.29503067 226.82139401 49.78662109 228.02368164 C48.52103363 228.3682692 47.25544617 228.71285675 45.95150757 229.06788635 C44.55889352 229.4322668 43.16620097 229.79634734 41.7734375 230.16015625 C40.31004447 230.55292211 38.84696661 230.94686387 37.38418579 231.34190369 C33.50066066 232.38713055 29.61292366 233.41577237 25.72412109 234.44116211 C21.93965432 235.4421461 18.15951179 236.45916014 14.37890625 237.47460938 C-9.052352 243.75635429 -32.52875585 249.86975919 -56 256 C-56.00219984 256.99033375 -56.00219984 256.99033375 -56.00444412 258.00067425 C-56.04149955 274.067085 -56.1004972 290.13324278 -56.18390274 306.19947338 C-56.22370828 313.96900465 -56.25609301 321.73843441 -56.27099609 329.50805664 C-56.28400484 336.28025617 -56.31094936 343.05223249 -56.35461307 349.82430631 C-56.37724572 353.409962 -56.39290963 356.99534221 -56.39188385 360.58107567 C-56.39099973 364.58455866 -56.42122843 368.58722804 -56.45410156 372.59057617 C-56.4490712 373.77884506 -56.44404083 374.96711395 -56.43885803 376.19139099 C-56.54087961 384.20113735 -56.54087961 384.20113735 -58.84661865 388.21308899 C-62.5287376 391.26857143 -65.68629512 391.12581373 -70.30539513 391.12863445 C-71.27324601 391.13126401 -71.27324601 391.13126401 -72.26064944 391.13394669 C-74.43757121 391.13862397 -76.61442669 391.13613676 -78.79135132 391.13371277 C-80.36192652 391.13557987 -81.93250125 391.13788017 -83.50307524 391.14057809 C-87.83064903 391.14671495 -92.15820356 391.14656029 -96.48578072 391.14538372 C-101.14844691 391.14518018 -105.81110684 391.15069391 -110.47377014 391.15544128 C-119.61313974 391.1637587 -128.7525029 391.16649662 -137.89187597 391.16705366 C-145.31834616 391.1675283 -152.74481421 391.16958044 -160.17128372 391.17275429 C-181.21183036 391.1815638 -202.2523719 391.18617319 -223.2929204 391.18542381 C-224.99547363 391.18536388 -224.99547363 391.18536388 -226.73242188 391.18530273 C-227.86883805 391.18526185 -229.00525422 391.18522097 -230.17610724 391.18517885 C-248.59891461 391.18477229 -267.02170154 391.1943437 -285.44450299 391.2084411 C-304.346341 391.22279131 -323.24816902 391.22971203 -342.15001261 391.22884732 C-352.76781681 391.22851489 -363.38559959 391.23128237 -374.0033989 391.24202538 C-383.04284983 391.25111257 -392.08226964 391.25332033 -401.12172316 391.24651595 C-405.73594237 391.24324173 -410.35010182 391.24322646 -414.96431541 391.2518692 C-419.18592556 391.25969542 -423.40742815 391.25834274 -427.62903555 391.24958507 C-429.15863488 391.24804148 -430.68824208 391.24989831 -432.21783213 391.25544515 C-434.29299355 391.26247372 -436.36777435 391.2572367 -438.44292259 391.24888897 C-439.59678534 391.24910634 -440.75064809 391.24932371 -441.93947637 391.24954766 C-445.07636508 390.99377338 -447.22418712 390.46854637 -450 389 C-452.61565172 385.07652242 -452.28389367 381.75278638 -452.26742554 377.20021057 C-452.27195665 376.28983738 -452.27648776 375.3794642 -452.28115618 374.44150394 C-452.29385842 371.37835072 -452.29217607 368.31537398 -452.29052734 365.25219727 C-452.29650891 363.06122609 -452.30331359 360.87025704 -452.31088257 358.67929077 C-452.32858644 352.71863492 -452.33323976 346.75803644 -452.33451414 340.79735684 C-452.33641036 335.82692064 -452.34376461 330.85649789 -452.35085833 325.88606685 C-452.36622461 314.8332688 -452.37219475 303.78049762 -452.37084763 292.72768963 C-452.37076772 292.06433672 -452.3706878 291.40098381 -452.37060547 290.7175293 C-452.37052371 290.05336795 -452.37044195 289.3892066 -452.37035771 288.70491915 C-452.36954455 277.93775224 -452.38868899 267.17072514 -452.4168822 256.40359867 C-452.44559246 245.35195182 -452.45905704 234.30037657 -452.45769465 223.24869198 C-452.45718378 217.04236946 -452.46293617 210.83620514 -452.48405075 204.62991524 C-452.50335969 198.79486777 -452.50360799 192.96013064 -452.48901749 187.12507248 C-452.48691922 184.98043174 -452.49169038 182.83577194 -452.5037384 180.69116402 C-452.51909288 177.76933109 -452.50994776 174.84858138 -452.49447632 171.92677307 C-452.50476344 171.07278933 -452.51505057 170.21880558 -452.52564943 169.33894354 C-452.48233684 165.65211826 -452.36829571 163.48221387 -450.09409523 160.50457668 C-446.87043501 158.18842414 -445.11147938 157.87660432 -441.18310547 157.88647461 C-440.18221893 157.88655014 -439.1813324 157.88662567 -438.15011597 157.88670349 C-437.06674957 157.89186478 -435.98338318 157.89702606 -434.8671875 157.90234375 C-433.76021515 157.9037587 -432.6532428 157.90517365 -431.51272583 157.90663147 C-427.96679007 157.91224228 -424.42091677 157.92479663 -420.875 157.9375 C-418.47526133 157.94251361 -416.07552167 157.94707675 -413.67578125 157.95117188 C-407.78383275 157.96221522 -401.89192084 157.9789639 -396 158 C-396.33322266 156.794646 -396.66644531 155.58929199 -397.00976562 154.34741211 C-398.24874085 149.85652351 -399.47594962 145.36248863 -400.69970703 140.86743164 C-401.23005087 138.92580371 -401.7635425 136.98503264 -402.30029297 135.04516602 C-403.07316517 132.2497776 -403.83450424 129.45145965 -404.59375 126.65234375 C-404.83436157 125.7916478 -405.07497314 124.93095184 -405.32287598 124.04417419 C-406.59635964 119.30061059 -407.71160202 114.93354879 -407 110 C-403.40804057 105.55159491 -399.87850809 103.91594217 -394.47192383 102.57836914 C-393.34890051 102.27840955 -393.34890051 102.27840955 -392.20318985 101.97239017 C-389.70844544 101.31035941 -387.20807806 100.67292574 -384.70703125 100.03515625 C-382.92223603 99.56647839 -381.13785654 99.09621491 -379.35386658 98.6244812 C-375.52312578 97.61491977 -371.68981814 96.61603943 -367.85412598 95.62545776 C-361.73906998 94.04604454 -355.63032113 92.44316539 -349.52246094 90.83618164 C-343.21503596 89.1778272 -336.90723581 87.52098434 -330.59725952 85.87236023 C-312.28865379 81.08862862 -294.00880058 76.20206821 -275.73690796 71.28024292 C-268.16799508 69.24168665 -260.59719755 67.21014856 -253.02646828 65.17835045 C-250.48658313 64.49668638 -247.94674284 63.81485535 -245.40690613 63.13301086 C-226.84273714 58.14993693 -208.27336767 53.18632016 -189.70397186 48.22276688 C-162.79388429 41.02974826 -135.88596401 33.82877115 -108.98323822 26.60826206 C-103.7957848 25.21614634 -98.60794777 23.82547229 -93.4197464 22.43614674 C-89.2562598 21.32121095 -85.09293017 20.20568998 -80.9296875 19.08984375 C-80.12403351 18.87392012 -79.31837952 18.65799648 -78.48831177 18.43552971 C-67.88503911 15.59256674 -57.29017318 12.72041773 -46.70243454 9.82016373 C-42.1058448 8.56251704 -37.50705727 7.31292051 -32.90863037 6.06201172 C-29.3573298 5.09182174 -25.80979731 4.10865319 -22.26220703 3.125 C-20.15937361 2.55267242 -18.05635837 1.98101229 -15.953125 1.41015625 C-15.01985382 1.14682999 -14.08658264 0.88350372 -13.12503052 0.61219788 C-4.57827626 -1.6779357 -4.57827626 -1.6779357 0 0 Z " fill="#343433" transform="translate(452,61)"/>
<path d="M0 0 C14.32103829 53.09772806 28.4600976 106.24369269 42.58525085 159.39381409 C42.8510945 160.39386003 43.11693815 161.39390596 43.39083767 162.42425632 C43.90067308 164.34301541 44.41004757 166.26189703 44.91890812 168.18091488 C46.02248053 172.3400723 47.13223609 176.4971467 48.26641846 180.64807129 C48.4567396 181.34838093 48.64706074 182.04869057 48.84314919 182.77022171 C49.33908482 184.59183531 49.83910667 186.41233513 50.33950806 188.23272705 C51 191 51 191 51 194 C50.01572021 194.25467041 49.03144043 194.50934082 48.01733398 194.77172852 C43.15625753 196.03097754 38.29666403 197.29589326 33.4375 198.5625 C32.53071503 198.79877106 31.62393005 199.03504211 30.68966675 199.2784729 C18.4629102 202.46904983 6.25755926 205.73188726 -5.9296875 209.0703125 C-7.17791794 209.41213058 -8.42614838 209.75394867 -9.71220398 210.10612488 C-15.91153735 211.80540125 -22.10909797 213.51090942 -28.30493164 215.22290039 C-30.58738556 215.85048421 -32.86985549 216.47800983 -35.15234375 217.10546875 C-36.20674652 217.39870026 -37.26114929 217.69193176 -38.34750366 217.99404907 C-39.31427032 218.25922333 -40.28103699 218.52439758 -41.27709961 218.79760742 C-42.12082626 219.03090256 -42.96455292 219.26419769 -43.83384705 219.50456238 C-46 220 -46 220 -49 220 C-49.00364563 219.05452805 -49.00729126 218.10905609 -49.01104736 217.13493347 C-49.04796042 208.23239455 -49.10569218 199.33020272 -49.18390274 190.42792797 C-49.22344193 185.85094437 -49.2555986 181.27415502 -49.27099609 176.69702148 C-49.28612054 172.2812454 -49.3204902 167.86600311 -49.36830902 163.45046425 C-49.38316652 161.76438342 -49.39104351 160.07822639 -49.39188385 158.39208031 C-49.39424227 156.03318492 -49.4212277 153.67577834 -49.45410156 151.31713867 C-49.4490712 150.61726837 -49.44404083 149.91739807 -49.43885803 149.19631958 C-49.50918102 145.34223626 -49.50918102 145.34223626 -51.69420743 142.32117146 C-54.48558403 140.72177039 -56.20476534 140.62161215 -59.41166306 140.61523914 C-60.51689686 140.6057826 -61.62213066 140.59632606 -62.76085639 140.58658296 C-63.97485374 140.59143053 -65.18885108 140.59627811 -66.43963623 140.60127258 C-68.37424127 140.59130234 -68.37424127 140.59130234 -70.34792924 140.58113068 C-73.93044493 140.56306915 -77.51275373 140.56366682 -81.09530425 140.56726015 C-84.9576083 140.56788293 -88.81984227 140.55127395 -92.68211365 140.53674316 C-99.37462631 140.51392965 -106.06708683 140.50206732 -112.75963593 140.49761391 C-122.43595936 140.49115922 -132.11218842 140.46823387 -141.78847387 140.44127061 C-157.48706177 140.39797413 -173.1856457 140.36802373 -188.88427734 140.34643555 C-204.13527375 140.32543442 -219.38623768 140.29816691 -234.63720703 140.26245117 C-236.0469861 140.25915293 -236.0469861 140.25915293 -237.48524556 140.25578807 C-242.20014571 140.24471863 -246.91504556 140.23352578 -251.62994528 140.22227156 C-290.75326855 140.12904596 -329.87660882 140.05746677 -369 140 C-369.47875831 138.7425327 -369.95566987 137.48436219 -370.43182373 136.22590637 C-370.69760601 135.52534024 -370.96338829 134.82477411 -371.23722458 134.10297871 C-373.05563717 129.08959881 -374.32554512 123.89331963 -375.69921875 118.74389648 C-376.25403833 116.6724225 -376.82209804 114.60485757 -377.390625 112.53710938 C-377.7456024 111.21636347 -378.09979778 109.89540707 -378.453125 108.57421875 C-378.77442383 107.38401123 -379.09572266 106.19380371 -379.42675781 104.9675293 C-380 102 -380 102 -379 99 C-376.05047458 97.95462333 -373.20605098 97.11653736 -370.18188477 96.34643555 C-369.24848015 96.09798952 -368.31507553 95.8495435 -367.35338593 95.5935688 C-364.21911377 94.76253589 -361.08038426 93.94978004 -357.94140625 93.13671875 C-355.72482927 92.55264065 -353.50856194 91.96738633 -351.29258728 91.38102722 C-346.54264573 90.12666023 -341.79072956 88.88018428 -337.03710938 87.63983154 C-329.51489511 85.67693912 -321.99728946 83.69681141 -314.48046875 81.71337891 C-306.86642088 79.70505805 -299.25214233 77.69764761 -291.63626099 75.69628906 C-272.17725929 70.58244397 -252.73722846 65.40123405 -233.30953979 60.16983032 C-225.97629207 58.19516703 -218.64168526 56.22556215 -211.3071003 54.25587273 C-209.64476776 53.80944645 -207.98244857 53.36297051 -206.32014275 52.91644478 C-192.00784909 49.07200675 -177.69206036 45.24070749 -163.375 41.4140625 C-162.3176918 41.13143681 -161.26038361 40.84881111 -160.17103577 40.557621 C-149.41339038 37.68210376 -138.6554101 34.80784989 -127.89633942 31.93766975 C-122.60780972 30.52677856 -117.3194712 29.11517204 -112.03125 27.703125 C-110.46953316 27.28613153 -110.46953316 27.28613153 -108.87626648 26.86071396 C-94.4110121 22.99685243 -79.95584719 19.09716967 -65.50810242 15.16836548 C-59.7389435 13.60053679 -53.96836527 12.03793716 -48.19785309 10.47509766 C-42.80382992 9.01332552 -37.41256466 7.54188859 -32.02318573 6.06309128 C-28.74049658 5.16469448 -25.45544537 4.27519874 -22.16966248 3.38819122 C-20.65920464 2.97838802 -19.14977715 2.5647649 -17.64149475 2.14702606 C-15.59430205 1.58046381 -13.54391754 1.02740294 -11.4921875 0.47753906 C-10.35120605 0.16592834 -9.21022461 -0.14568237 -8.03466797 -0.46673584 C-4.96435453 -1.00626377 -2.97516791 -0.84151331 0 0 Z " fill="#FEE3AE" transform="translate(443,80)"/>
<path d="M0 0 C2.7527505 1.29814634 5.13220513 2.73274267 7.546875 4.58203125 C8.21855713 5.09515869 8.89023926 5.60828613 9.58227539 6.13696289 C10.29762451 6.68989014 11.01297363 7.24281738 11.75 7.8125 C12.50079834 8.3892749 13.25159668 8.9660498 14.02514648 9.56030273 C19.7824435 14.00509286 25.42694556 18.57742905 31.04785156 23.19262695 C36.25152268 27.44442261 41.59413723 31.47792651 46.99365234 35.47631836 C52.51914115 39.58898634 57.86233914 43.89973093 63.18896484 48.26538086 C69.35494174 53.31256209 75.59326496 58.26041264 82 63 C82.96679688 63.75152344 83.93359375 64.50304687 84.9296875 65.27734375 C88.80207341 67.45001828 90.61458501 67.7722449 95 67 C98.12652196 65.21525496 100.80897129 62.99609513 103.5625 60.6875 C104.74440918 59.73170044 104.74440918 59.73170044 105.95019531 58.7565918 C107.55353171 57.45968017 109.15173691 56.15639814 110.74462891 54.84667969 C113.87394739 52.28441891 117.05998791 49.7983959 120.25 47.3125 C121.3807342 46.42384579 122.51094623 45.53452676 123.640625 44.64453125 C127.67790836 41.46581836 131.71890395 38.29183766 135.75976562 35.11767578 C138.62734065 32.86492288 141.49422954 30.61131111 144.359375 28.35546875 C151.01743548 23.11506122 157.69011526 17.89365304 164.375 12.6875 C165.11202148 12.11281982 165.84904297 11.53813965 166.60839844 10.94604492 C168.73472108 9.2918388 170.86663274 7.645107 173 6 C173.7415332 5.4220166 174.48306641 4.8440332 175.24707031 4.24853516 C175.96217773 3.69858887 176.67728516 3.14864258 177.4140625 2.58203125 C178.05553223 2.08550049 178.69700195 1.58896973 179.35791016 1.07739258 C181 0 181 0 183 0 C184.35009766 1.65454102 184.35009766 1.65454102 185.9140625 4.00390625 C186.50219727 4.87837402 187.09033203 5.7528418 187.69628906 6.65380859 C188.33276367 7.61367676 188.96923828 8.57354492 189.625 9.5625 C190.98590408 11.58796235 192.34791937 13.61267843 193.7109375 15.63671875 C194.41702148 16.68778809 195.12310547 17.73885742 195.85058594 18.82177734 C199.26746902 23.87413808 202.75737863 28.87482954 206.25 33.875 C210.68646011 40.23660659 215.11523438 46.60263694 219.5 53 C223.970171 59.52084915 228.48155144 66.01252448 233 72.5 C238.48926994 80.38227565 243.96105234 88.27570445 249.390625 96.19921875 C251.26718964 98.93719266 253.1544677 101.66748403 255.046875 104.39453125 C255.55114014 105.12293213 256.05540527 105.85133301 256.57495117 106.60180664 C257.53922548 107.99433079 258.50541723 109.38552991 259.47387695 110.77514648 C261.56231991 113.79602031 263.35229741 116.70459483 265 120 C150.49 120 35.98 120 -82 120 C-79.75152298 114.37880746 -79.75152298 114.37880746 -77.7421875 111.6015625 C-77.06397949 110.65385986 -77.06397949 110.65385986 -76.37207031 109.68701172 C-75.87803711 109.00654785 -75.38400391 108.32608398 -74.875 107.625 C-73.78297664 106.09958616 -72.69187965 104.57350885 -71.6015625 103.046875 C-71.01793945 102.23154297 -70.43431641 101.41621094 -69.83300781 100.57617188 C-66.60175407 96.03485734 -63.42789109 91.45373837 -60.25 86.875 C-58.88022379 84.9036351 -57.51043195 82.93228104 -56.140625 80.9609375 C-55.45548828 79.97448242 -54.77035156 78.98802734 -54.06445312 77.97167969 C-50.71207243 73.14609102 -47.35588175 68.32315423 -44 63.5 C-42.66664758 61.58334661 -41.33331427 59.66667993 -40 57.75 C-32 46.25 -32 46.25 -29.99707031 43.37084961 C-28.67342619 41.46807073 -27.34985758 39.56523932 -26.02636719 37.66235352 C-22.54542944 32.65775419 -19.06290409 27.65426921 -15.578125 22.65234375 C-14.85367188 21.61207031 -14.12921875 20.57179688 -13.3828125 19.5 C-11.99788117 17.51138066 -10.61249102 15.52308075 -9.2265625 13.53515625 C-6.10531617 9.05237859 -3.00546227 4.56132027 0 0 Z " fill="#FEA621" transform="translate(106,315)"/>
<path d="M0 0 C109.23 0 218.46 0 331 0 C327.44131566 3.55868434 324.27175253 6.45124025 320.3125 9.4375 C319.15580253 10.31581727 317.99957934 11.19475937 316.84375 12.07421875 C316.225 12.5439209 315.60625 13.01362305 314.96875 13.49755859 C311.39715321 16.22320426 307.85635064 18.9884386 304.3125 21.75 C302.77216527 22.9492571 301.23180033 24.14847539 299.69140625 25.34765625 C298.91812988 25.94980957 298.14485352 26.55196289 297.34814453 27.17236328 C295.01302017 28.98986598 292.6766529 30.80575788 290.33984375 32.62109375 C283.54747653 37.89836793 276.75876555 43.17972897 270 48.5 C262.46316591 54.43274019 254.88902129 60.31721918 247.31445312 66.20166016 C243.54184368 69.13299361 239.77097422 72.06656343 236 75 C231.45402154 78.53631149 226.90762452 82.07207843 222.359375 85.60546875 C215.00312261 91.32147568 207.65469673 97.04659448 200.3359375 102.81054688 C197.06018813 105.38812386 193.77605956 107.95451376 190.484375 110.51171875 C189.70465332 111.11749756 188.92493164 111.72327637 188.12158203 112.34741211 C186.55608876 113.56206341 184.98938018 114.77515018 183.42138672 115.98657227 C180.16194793 118.51029304 176.91843307 121.03746316 173.7734375 123.703125 C172.89945313 124.44046875 172.02546875 125.1778125 171.125 125.9375 C170.04605469 126.87916016 170.04605469 126.87916016 168.9453125 127.83984375 C167 129 167 129 165.125 128.984375 C162.0191287 127.5456258 159.50548934 125.46543473 156.875 123.3125 C155.61771389 122.30403088 154.35987441 121.29625139 153.1015625 120.2890625 C152.43543945 119.75313477 151.76931641 119.21720703 151.08300781 118.66503906 C147.50109274 115.80185801 143.87387628 112.99724302 140.25 110.1875 C138.71865966 108.99751208 137.18741062 107.80740666 135.65625 106.6171875 C134.10420059 105.41141466 132.55211715 104.20568564 131 103 C122.09019308 96.07885601 113.18348234 89.15459367 104.31835938 82.17626953 C97.34011194 76.68737948 90.3256084 71.24508327 83.31445312 65.79833984 C78.79477526 62.28653107 74.27748443 58.77165256 69.75976562 55.25732422 C65.96044255 52.3020196 62.16050662 49.34750945 58.359375 46.39453125 C51.56070615 41.11178181 44.76534602 35.82538788 38 30.5 C32.65867575 26.29594149 27.30224242 22.11163525 21.9375 17.9375 C20.80078857 17.05251831 20.80078857 17.05251831 19.64111328 16.1496582 C16.0940073 13.39152108 12.54031348 10.64317025 8.96484375 7.921875 C8.35455322 7.456604 7.7442627 6.99133301 7.11547852 6.51196289 C5.4827568 5.26950037 3.84695389 4.03108979 2.2109375 2.79296875 C1.48132812 2.20128906 0.75171875 1.60960937 0 1 C0 0.67 0 0.34 0 0 Z " fill="#FEA621" transform="translate(32,236)"/>
<path d="M0 0 C0 57.09 0 114.18 0 173 C-0.66 173 -1.32 173 -2 173 C-3.46465572 171.01045692 -4.80125555 169.01935249 -6.125 166.9375 C-10.60313033 160.05527633 -15.23438484 153.29285814 -19.9375 146.5625 C-21.3321927 144.56391474 -22.72672612 142.56521832 -24.12109375 140.56640625 C-24.78737793 139.61137207 -25.45366211 138.65633789 -26.14013672 137.67236328 C-28.60873177 134.12533763 -31.05741595 130.56496615 -33.5 127 C-37.97005359 120.47907113 -42.48155221 113.98747441 -47 107.5 C-52.05709148 100.23830774 -57.10949805 92.97382763 -62.10693359 85.67089844 C-64.4125554 82.30175249 -66.73529748 78.94614769 -69.08203125 75.60546875 C-69.59080811 74.87706787 -70.09958496 74.14866699 -70.6237793 73.39819336 C-71.59829143 72.0037012 -72.57736639 70.61238247 -73.56176758 69.22485352 C-75.69015379 66.16896136 -77.25190493 63.64609415 -78 60 C-66.59360717 51.01425645 -55.1352717 42.09628518 -43.66796875 33.18847656 C-41.36174149 31.39678992 -39.05576633 29.60477977 -36.75 27.8125 C-35.62670288 26.93936157 -35.62670288 26.93936157 -34.48071289 26.04858398 C-29.87165616 22.4633129 -25.275041 18.86274498 -20.6875 15.25 C-16.03297696 11.58848688 -11.36989205 7.93832908 -6.6875 4.3125 C-6.12957764 3.87776367 -5.57165527 3.44302734 -4.99682617 2.99511719 C-1.11578614 0 -1.11578614 0 0 0 Z " fill="#FCA521" transform="translate(379,244)"/>
<path d="M0 0 C10.03960396 6.69306931 10.03960396 6.69306931 14.75 10.75 C20.39755546 15.54833984 26.23440384 20.07189348 32.12646484 24.56494141 C35.74500173 27.33660675 39.34031388 30.13821728 42.9375 32.9375 C43.70481445 33.53425537 44.47212891 34.13101074 45.26269531 34.74584961 C49.98017352 38.41794345 54.6816988 42.10958895 59.375 45.8125 C65.50564473 50.64748844 71.72906534 55.34848253 78 60 C76.68050333 63.61880172 75.08506706 66.56696673 72.8671875 69.7109375 C72.23425781 70.61392578 71.60132812 71.51691406 70.94921875 72.44726562 C69.92248047 73.89649414 69.92248047 73.89649414 68.875 75.375 C67.41393072 77.45563663 65.95299694 79.53636843 64.4921875 81.6171875 C63.74420898 82.67905273 62.99623047 83.74091797 62.22558594 84.83496094 C58.79767145 89.70984943 55.39944466 94.60523801 52 99.5 C50.66682907 101.41677963 49.33349521 103.33344595 48 105.25 C47.34 106.19875 46.68 107.1475 46 108.125 C40 116.75 40 116.75 37.9987793 119.62670898 C36.66945771 121.5376392 35.34019311 123.44860907 34.01098633 125.35961914 C30.61674652 130.23938502 27.2214281 135.11839466 23.82421875 139.99609375 C23.137229 140.98279053 22.45023926 141.9694873 21.74243164 142.98608398 C20.38908707 144.92983858 19.03541694 146.87336656 17.68139648 148.81665039 C14.63112064 153.19873145 11.59184259 157.58733839 8.5859375 162 C8.07071533 162.75547119 7.55549316 163.51094238 7.0246582 164.28930664 C6.07479712 165.68483639 5.1278487 167.08235468 4.18432617 168.48217773 C3.14776842 170.00535364 2.07784917 171.5057584 1 173 C0.67 173 0.34 173 0 173 C0 115.91 0 58.82 0 0 Z " fill="#FEA621" transform="translate(16,244)"/>
<path d="M0 0 C2.90289052 3.1030585 3.84687335 6.25424547 4.9375 10.3125 C5.44410156 12.17455078 5.44410156 12.17455078 5.9609375 14.07421875 C6.30740816 15.38278166 6.65376181 16.69137556 7 18 C7.34289062 19.26457031 7.68578125 20.52914062 8.0390625 21.83203125 C9.04241237 25.55055311 10.02338123 29.27438024 11 33 C11.45439453 34.68416016 11.45439453 34.68416016 11.91796875 36.40234375 C12.19253906 37.44519531 12.46710938 38.48804688 12.75 39.5625 C12.99234375 40.47128906 13.2346875 41.38007813 13.484375 42.31640625 C14.32706042 46.70220084 14.84689477 49.67051405 12.37385559 53.55278015 C9.5338758 56.48052982 7.61683401 57.11257855 3.69018555 58.12817383 C2.75520233 58.37798508 2.75520233 58.37798508 1.80133057 58.63284302 C-0.2492774 59.17570525 -2.30559039 59.69172914 -4.36328125 60.20703125 C-5.79846796 60.57965697 -7.23329326 60.95367718 -8.66777039 61.32902527 C-11.67177654 62.1109427 -14.67859723 62.88042378 -17.68823242 63.64038086 C-21.53293416 64.61156272 -25.3710397 65.6062467 -29.20748615 66.60948658 C-32.16977795 67.38260049 -35.13435414 68.14661439 -38.09978294 68.9075985 C-39.51517179 69.27124666 -40.93005969 69.63685075 -42.34441566 70.00449562 C-44.3281884 70.51793984 -46.31452245 71.01992288 -48.30200195 71.51879883 C-49.42911087 71.80572098 -50.55621979 72.09264313 -51.71748352 72.38825989 C-60.40625426 74.00752658 -60.40625426 74.00752658 -64.26269531 71.56958008 C-66.74329182 67.90062586 -67.69971374 64.14744873 -68.796875 59.88671875 C-69.0353717 58.99894241 -69.27386841 58.11116608 -69.51959229 57.19648743 C-70.02009641 55.32128466 -70.51391087 53.44428526 -71.00146484 51.56567383 C-71.74578309 48.70371432 -72.51368346 45.84888532 -73.28515625 42.99414062 C-73.76964748 41.16704217 -74.25276575 39.33957899 -74.734375 37.51171875 C-74.96243835 36.66357101 -75.19050171 35.81542328 -75.42547607 34.9415741 C-76.63529245 30.22986646 -77.60726065 25.89329422 -77 21 C-74.21485604 16.87626652 -70.40499039 15.89023411 -65.7890625 14.703125 C-64.72003441 14.41073692 -64.72003441 14.41073692 -63.62940979 14.11244202 C-61.29797393 13.47828907 -58.96190265 12.86367223 -56.625 12.25 C-55.00794621 11.81636578 -53.39116776 11.38170357 -51.7746582 10.94604492 C-48.47111664 10.05754517 -45.16563713 9.17676807 -41.85888672 8.30029297 C-38.00067143 7.27368986 -34.15317366 6.21342307 -30.31011963 5.13156128 C-27.58055973 4.36320664 -24.84811735 3.60546047 -22.11517334 2.84924316 C-20.22712848 2.32353419 -18.34227737 1.78639778 -16.45751953 1.24902344 C-5.3367521 -1.78377116 -5.3367521 -1.78377116 0 0 Z " fill="#343434" transform="translate(418,117)"/>
<path d="M0 0 C1.01094544 3.39267194 2.00680051 6.78959455 3 10.1875 C3.28617187 11.14720703 3.57234375 12.10691406 3.8671875 13.09570312 C4.13789063 14.02705078 4.40859375 14.95839844 4.6875 15.91796875 C5.06455078 17.19837036 5.06455078 17.19837036 5.44921875 18.50463867 C6.01786865 21.08095545 6.09883894 23.37047227 6 26 C0.63032201 27.53496004 -4.74080563 29.06470445 -10.11328125 30.58984375 C-11.93692097 31.10830426 -13.76017196 31.62813428 -15.58300781 32.14941406 C-18.21836452 32.90278548 -20.85512676 33.65105561 -23.4921875 34.3984375 C-24.29365204 34.6287265 -25.09511658 34.8590155 -25.92086792 35.09628296 C-31.56556591 36.68882573 -37.23527816 37.92360596 -43 39 C-44.20152572 35.0666405 -45.38379219 31.12775181 -46.5625 27.1875 C-46.90474609 26.06794922 -47.24699219 24.94839844 -47.59960938 23.79492188 C-47.91865234 22.72177734 -48.23769531 21.64863281 -48.56640625 20.54296875 C-48.86490479 19.55321045 -49.16340332 18.56345215 -49.47094727 17.54370117 C-50 15 -50 15 -49 12 C-47.19828796 11.18367004 -47.19828796 11.18367004 -44.8190918 10.55786133 C-43.93114426 10.3178389 -43.04319672 10.07781647 -42.12834167 9.83052063 C-41.16173111 9.58351913 -40.19512054 9.33651764 -39.19921875 9.08203125 C-37.71733818 8.68886971 -37.71733818 8.68886971 -36.20552063 8.2877655 C-34.11132346 7.7347651 -32.01549138 7.18792547 -29.91821289 6.64672852 C-26.70801676 5.8177978 -23.50321778 4.97021035 -20.29882812 4.11914062 C-18.26591577 3.58482998 -16.23272128 3.05159138 -14.19921875 2.51953125 C-13.23868088 2.26645706 -12.27814301 2.01338287 -11.28849792 1.75263977 C-10.3910939 1.52207382 -9.49368988 1.29150787 -8.5690918 1.05395508 C-7.78157028 0.84982498 -6.99404877 0.64569489 -6.18266296 0.43537903 C-4 0 -4 0 0 0 Z " fill="#1A9FFC" transform="translate(408,134)"/>
</svg>
